{"glyphs":{"0":{"ha":842,"x_min":0,"x_max":865,"o":"m 675 1215 l 694 1215 q 806 1133 762 1215 l 806 1127 l 802 1127 q 798 1135 802 1128 l 796 1135 l 796 1133 q 838 1090 796 1128 q 855 1023 855 1051 q 853 1007 855 1021 l 850 1007 l 850 1017 l 848 1017 l 848 1005 l 844 1005 q 820 1034 843 1014 l 820 1032 q 865 876 865 965 q 808 541 865 798 q 669 134 743 284 q 614 45 635 45 q 538 -49 569 -19 l 537 -49 l 537 -47 l 549 -29 l 549 -27 q 533 -43 547 -27 l 531 -43 q 535 -24 535 -26 l 533 -24 q 344 -94 431 -94 l 321 -94 q 161 -43 222 -94 q 138 -39 152 -39 l 138 -37 q 144 -33 138 -33 l 144 -31 q 132 -22 136 -31 q 51 67 61 33 q 8 132 46 71 l 8 136 q 22 124 20 124 l 22 126 q 14 138 22 127 l 14 140 l 24 138 l 26 138 q 0 301 0 221 l 0 327 q 68 629 0 436 q 79 645 76 645 l 79 641 q 75 625 75 629 l 75 623 l 77 623 q 90 653 77 635 q 179 857 127 764 q 319 1050 224 943 q 411 1139 404 1139 l 413 1139 q 391 1113 413 1136 l 391 1111 q 415 1131 393 1111 l 417 1131 l 417 1129 q 354 1031 417 1124 q 324 981 348 1023 l 324 979 q 675 1215 530 1215 m 755 1143 q 781 1131 755 1138 q 755 1143 768 1143 m 368 785 l 369 781 q 345 747 369 773 q 317 685 317 690 q 320 682 320 684 l 320 678 l 315 672 l 315 669 q 323 659 323 669 q 315 647 320 659 l 297 637 q 262 454 262 551 l 262 442 q 340 280 262 345 q 391 259 379 259 q 416 264 399 259 l 416 262 q 410 257 416 257 l 410 256 l 415 256 q 418 259 416 259 l 420 259 l 420 257 l 415 248 l 423 245 l 428 245 l 427 249 l 428 252 q 427 259 427 255 q 428 260 427 260 l 427 264 q 439 275 427 266 l 448 275 q 466 295 448 284 q 551 370 519 351 q 602 425 602 402 q 633 505 625 475 q 627 511 630 505 q 631 515 627 515 q 628 524 628 521 q 663 583 657 553 q 679 655 672 604 q 730 842 717 769 l 730 857 q 694 986 730 926 q 636 1011 662 1009 q 549 978 587 1011 q 523 954 549 960 q 500 926 523 952 q 436 871 500 895 q 368 785 386 819 z "},"1":{"ha":627,"x_min":-133,"x_max":627,"o":"m 399 1253 q 433 1230 420 1253 q 467 1204 467 1230 l 475 1208 q 501 1200 490 1200 q 532 1211 520 1211 l 536 1211 q 593 1162 570 1162 q 608 1143 602 1143 q 627 1116 616 1141 q 623 1113 627 1113 l 627 1086 q 425 665 627 1053 q 125 102 317 396 q 57 -12 98 44 l 57 -8 l 64 18 q -118 -267 -18 -93 l -118 -259 q -103 -214 -118 -254 l -103 -210 l -106 -210 q -125 -255 -125 -252 l -133 -255 l -133 -243 q -130 -240 -133 -240 l -133 -233 q -27 136 -133 -203 q 201 675 -27 234 l 273 839 l 266 839 q 155 789 174 789 l 163 801 l 159 801 q 83 755 100 755 l 72 755 q 60 770 66 755 l 53 767 q 30 779 33 767 l 38 789 q 15 820 20 789 q 30 843 20 833 l 26 850 l 117 972 q 296 1215 117 990 q 349 1242 317 1242 q 357 1227 357 1233 l 361 1227 l 399 1253 z "},"2":{"ha":817,"x_min":-216,"x_max":881,"o":"m 411 1183 q 627 1015 528 1183 q 646 924 642 968 l 642 916 q 646 905 642 912 q 391 422 646 762 l 282 254 l 282 250 l 286 250 q 442 274 361 266 q 446 270 446 274 q 548 278 490 278 q 618 266 604 266 q 881 317 637 266 l 881 309 l 842 298 l 842 294 l 850 294 l 877 301 l 877 298 q 732 192 852 267 l 713 176 l 732 176 q 568 86 712 151 q 368 -4 525 64 q 153 -90 224 -90 q -83 -196 18 -180 q -121 -176 -83 -192 l -121 -161 l -149 -161 q -161 -141 -160 -161 l -165 -141 q -173 -153 -165 -153 q -200 -114 -200 -125 q -204 -98 -200 -105 q -200 -83 -200 -92 q -216 -75 -216 -83 l -216 -63 l -212 -63 l -200 -71 l -200 -67 l -204 -39 q -86 113 -144 33 q 35 281 -33 170 q 219 564 98 345 q 380 991 380 855 q 356 1018 380 1009 q 227 842 238 909 q 180 631 201 771 q 113 583 144 588 q 102 595 113 589 q 90 572 90 577 l 71 576 l 71 568 l 39 568 q 0 583 28 578 q -32 658 -32 618 l -32 682 q -47 697 -47 682 l -55 693 q -79 740 -65 693 q 188 1139 -79 964 q 380 1179 243 1179 q 411 1183 380 1183 z "},"3":{"ha":1211,"x_min":1,"x_max":1234,"o":"m 1048 1253 q 1091 1236 1072 1253 l 1091 1232 l 1080 1217 l 1080 1214 l 1098 1192 l 1098 1189 l 1095 1171 q 1101 1164 1101 1170 l 1087 1156 q 1091 1153 1087 1153 q 894 923 1091 1118 l 854 873 q 1016 895 955 873 q 1116 866 1041 885 q 1192 780 1171 844 q 1234 686 1234 747 l 1234 665 q 955 231 1234 480 q 499 -74 691 -5 q 170 -195 307 -163 l 170 -189 q 223 -170 178 -189 l 223 -163 q 173 -178 198 -174 l 173 -170 q 234 -127 180 -170 q 331 -74 239 -127 l 331 -70 l 327 -70 q 234 -117 305 -84 l 234 -113 l 270 -84 l 266 -84 q 223 -106 228 -106 l 223 -102 q 280 -38 256 -62 q 277 -34 277 -38 q 305 -13 300 -24 l 302 -13 q 277 -20 288 -20 q 438 102 314 18 q 836 465 512 177 q 951 665 937 571 l 944 669 q 930 665 938 665 l 930 669 l 922 665 l 901 665 q 747 626 821 665 q 621 590 680 604 q 600 576 621 585 l 582 576 q 564 579 570 576 q 481 565 527 576 l 481 572 q 424 557 435 557 q 341 576 421 557 l 341 579 l 345 586 q 334 590 334 586 q 349 611 334 593 q 345 626 345 618 q 374 654 349 626 l 370 654 q 320 640 326 640 l 320 647 q 341 661 331 647 l 338 661 l 313 651 l 313 654 q 485 816 313 667 q 571 891 555 867 l 614 938 l 610 938 q 187 777 463 852 l 187 783 l 209 791 l 209 794 l 205 794 l 83 769 l 83 777 l 112 787 l 112 791 l 109 791 q 79 783 81 783 l 79 787 q 195 873 96 812 l 195 877 q 94 841 120 863 l 76 841 l 40 838 q 33 844 40 844 l 12 844 l 12 852 l 18 852 l 18 855 l 12 855 q 8 852 12 852 l 8 855 l 22 873 q 18 877 18 873 q 29 880 26 880 l 29 884 l 22 884 l 22 888 l 65 916 q 18 934 18 927 l 22 941 q 8 970 14 941 q 1 977 1 970 l 15 991 l 8 991 l 8 995 q 98 1038 12 1010 q 109 1063 101 1063 l 109 1056 l 112 1056 l 112 1063 q 109 1067 109 1063 l 112 1067 q 155 1049 147 1049 q 259 1081 163 1063 q 786 1181 641 1181 q 1048 1253 991 1253 z "},"4":{"ha":979,"x_min":-270,"x_max":846,"o":"m 796 1245 q 804 1223 804 1245 l 832 1223 q 843 1170 843 1223 l 839 1156 q 846 1149 846 1154 q 621 751 846 1122 l 592 690 l 600 690 q 689 705 677 705 l 689 698 q 653 684 653 692 l 656 684 q 696 690 687 690 q 675 669 675 673 l 682 669 l 760 684 l 760 676 q 728 665 730 665 l 728 662 l 732 662 q 764 669 759 669 l 764 665 q 603 566 731 628 q 481 490 481 496 q 84 -193 244 36 q -77 -397 -64 -389 q -80 -387 -80 -390 l -87 -390 l -91 -390 q -94 -365 -91 -379 q -31 -182 -85 -317 l -31 -179 l -34 -179 q -105 -294 -83 -272 l -105 -286 q -84 -236 -94 -266 q -113 -286 -91 -236 l -119 -286 q -23 11 -119 -243 q 138 365 26 170 l 138 372 q -70 322 -24 322 q -109 344 -98 322 q -105 358 -105 350 q -134 354 -120 358 l -152 358 q -223 340 -199 340 q -245 354 -238 340 l -245 358 l -241 365 q -270 383 -262 365 l -262 393 l -270 404 q -245 444 -270 411 l 13 833 q 142 1023 63 893 q 285 1209 259 1187 q 302 1195 300 1195 l 317 1206 l 331 1206 l 353 1184 q 395 1206 377 1206 q 403 1198 397 1198 l 414 1206 q 435 1192 435 1196 q 431 1188 431 1192 l 439 1184 q 453 1188 445 1188 l 453 1166 q 464 1116 460 1160 q 446 1074 458 1116 q 431 1059 442 1074 l 435 1052 l 435 1048 q 134 659 195 730 l 81 597 l 88 597 q 342 665 258 665 q 686 1198 516 962 l 700 1209 l 703 1209 l 718 1195 q 796 1245 771 1245 z "},"5":{"ha":920,"x_min":-294,"x_max":1038,"o":"m 849 1247 q 1006 1222 861 1247 l 1006 1216 l 1000 1216 l 1000 1213 q 1038 1209 1032 1209 l 1038 1203 l 1028 1203 q 953 1184 1010 1203 l 953 1181 l 959 1181 q 1016 1184 997 1184 l 1016 1178 q 987 1172 995 1172 l 981 1172 l 981 1165 l 965 1168 l 962 1168 q 959 1162 962 1162 q 940 1165 957 1162 l 937 1165 l 937 1162 l 943 1162 l 943 1156 q 918 1149 938 1156 l 918 1143 l 946 1143 l 946 1137 q 748 1093 897 1114 l 745 1086 q 754 1080 745 1080 l 754 1074 l 751 1074 q 471 1011 557 1040 q 395 977 420 1011 q 361 926 380 976 q 336 882 336 892 q 648 942 555 942 l 650 942 q 817 873 692 942 q 874 779 874 820 l 874 760 q 767 570 874 681 q 342 23 716 451 q -35 -301 260 -60 l -39 -301 q 2 -254 2 -259 l -1 -254 l -42 -289 l -45 -289 q 75 -128 -26 -249 l 71 -128 l -184 -304 l -190 -304 l -171 -282 l -174 -282 q -196 -295 -189 -295 q -186 -273 -186 -281 q -284 -326 -270 -326 l -288 -326 l -243 -292 l -246 -292 q -294 -317 -288 -317 l -294 -314 q -54 -68 -294 -307 q 572 614 427 418 q 635 706 635 694 q 566 715 611 715 l 537 715 q 286 608 415 682 q 119 501 170 541 q 62 467 85 467 q 56 473 62 473 q -58 382 10 442 l -77 378 q -79 388 -79 385 l -96 385 l -98 385 q -105 391 -105 385 q -102 394 -102 391 q -114 404 -114 394 l -114 413 q -77 520 -114 441 q 31 787 -77 576 q 134 1027 48 882 q 163 1096 163 1088 l 153 1109 l 153 1128 q 134 1140 140 1128 q 159 1168 134 1168 q 786 1244 632 1213 q 849 1247 795 1244 m 131 1165 l 134 1159 l 134 1156 l 131 1156 q 125 1162 125 1156 l 131 1165 z "},"6":{"ha":944,"x_min":-7,"x_max":1046,"o":"m 353 1144 q 422 1175 399 1169 l 425 1175 q 438 1180 432 1180 l 438 1178 l 429 1166 l 431 1166 l 553 1234 l 539 1225 l 542 1225 q 560 1232 553 1232 q 565 1230 560 1230 q 684 1261 585 1230 q 924 1300 806 1300 q 1046 1274 983 1300 l 1046 1270 l 1034 1272 l 1029 1272 l 1029 1270 l 1044 1267 l 1044 1265 q 941 1232 1033 1255 l 941 1230 q 1015 1201 981 1221 l 1015 1196 l 1006 1196 l 1006 1194 l 1010 1194 l 1010 1192 q 928 1164 995 1181 q 793 1124 884 1145 q 809 1117 793 1118 l 809 1112 l 806 1112 l 785 1114 q 804 1107 785 1109 l 804 1103 q 739 1088 783 1095 l 739 1086 l 816 1063 l 816 1061 q 745 1040 794 1051 l 745 1037 l 755 1037 l 755 1035 q 713 1015 755 1031 q 650 1000 671 1000 q 502 957 528 968 q 493 952 498 954 l 353 1144 m 492 926 q 373 806 384 825 l 378 806 q 699 905 564 905 l 715 905 l 730 907 q 880 856 818 907 q 922 785 922 817 l 918 785 q 913 795 918 795 l 915 783 l 915 781 l 913 781 q 870 804 881 804 l 870 802 q 912 709 905 753 q 918 663 918 677 l 918 650 q 893 385 918 530 q 696 62 789 178 q 659 5 667 18 q 588 -50 638 -36 l 559 -58 q 485 -69 528 -66 q 349 -78 422 -78 l 331 -78 q 279 -66 315 -78 l 279 -62 l 293 -64 l 302 -64 l 302 -62 l 286 -59 l 286 -57 q 305 -47 286 -52 l 305 -45 q 153 12 196 -14 l 155 12 q 178 7 159 12 l 180 7 l 180 9 l 157 16 l 157 21 l 169 21 q 93 75 134 50 l 67 105 q 6 199 29 144 q 7 217 7 207 q 7 234 7 224 q 2 237 2 234 l 5 248 l 0 251 l 2 262 q 0 267 2 267 q 5 378 0 298 l -7 450 l -2 525 l 29 684 q 147 923 61 821 q 331 1128 233 1025 q 364 1156 331 1140 l 560 976 q 492 926 517 947 m 289 420 q 357 224 289 300 q 387 208 375 209 q 583 297 456 208 q 679 439 647 357 q 702 542 702 478 q 645 627 685 602 q 591 645 637 637 q 446 602 562 645 q 302 445 350 522 q 289 420 289 424 m 505 117 l 505 112 q 575 161 549 126 l 575 166 l 572 166 q 505 117 512 117 z "},"7":{"ha":889,"x_min":-67,"x_max":1077,"o":"m 1042 1376 q 1064 1366 1064 1373 l 1064 1360 l 1062 1356 l 1064 1356 q 1074 1358 1069 1358 l 1074 1356 l 1069 1348 l 1069 1343 q 1077 1318 1077 1332 q 1057 1308 1063 1308 l 1057 1305 l 1059 1292 q 907 1124 956 1198 l 899 1109 l 899 1106 l 901 1094 q 792 934 879 1054 q 693 773 693 777 l 696 773 q 729 781 700 773 l 729 776 q 701 768 724 776 l 701 766 l 703 766 q 726 771 715 771 l 726 766 l 721 766 l 721 763 l 729 763 q 920 789 911 789 l 920 783 l 884 776 l 884 773 l 889 773 l 922 779 l 922 773 q 747 700 894 755 q 706 682 744 696 l 706 680 l 711 680 l 711 674 q 678 667 681 667 l 678 664 l 683 664 q 711 669 686 664 l 711 664 q 604 616 685 648 q 421 222 521 464 q 269 -266 269 -180 l 264 -266 l 264 -228 l 261 -228 l 258 -254 l 258 -261 l 254 -261 q 241 -208 241 -227 l 241 -121 l 238 -121 q 162 -530 162 -435 l 157 -530 l 154 -513 l 149 -515 l 152 -520 l 152 -533 l 146 -533 q 109 -350 109 -466 q 182 11 109 -213 q 200 69 195 42 q 195 105 195 96 q 279 402 197 162 l 332 511 l 327 511 q 144 458 170 463 q 83 476 83 458 l 78 473 l 75 473 q 65 494 75 486 q 68 501 68 498 l 65 507 q 88 540 66 515 l 88 547 l 85 557 l 98 581 q 101 578 98 578 q 312 680 101 602 q 437 710 427 705 q 617 1015 506 857 q 696 1126 693 1118 q 126 1023 549 1082 l 126 1025 q 17 1015 126 1020 l -1 1015 q -26 1030 -16 1015 l -24 1048 l -57 1066 l -57 1071 l -52 1078 l -52 1084 q -67 1099 -67 1084 q -59 1119 -62 1099 q -41 1129 -46 1129 l -41 1137 q -64 1165 -56 1148 l -54 1187 q -57 1196 -57 1193 l -37 1211 l -31 1208 q -18 1221 -28 1208 q 612 1295 488 1295 q 764 1297 743 1297 q 1042 1376 1027 1376 m 241 -114 l 241 -119 l 243 -119 l 243 -114 l 241 -114 z "},"8":{"ha":963,"x_min":-265,"x_max":712,"o":"m 333 1284 q 530 1189 452 1255 l 532 1189 q 528 1214 530 1211 l 532 1214 l 541 1200 l 543 1200 l 537 1214 l 542 1214 q 583 1162 564 1196 l 599 1131 q 618 1071 609 1113 q 622 1059 619 1064 l 623 1058 l 625 1058 q 642 1095 642 1089 l 642 1096 l 646 1096 l 648 1080 q 652 1087 652 1080 l 652 1091 l 656 1091 q 666 1078 660 1084 q 669 1023 669 1047 q 656 949 669 971 q 645 930 654 949 l 647 930 q 659 935 654 935 l 644 918 l 647 918 l 665 928 l 667 928 l 668 927 l 668 926 q 628 869 668 913 q 501 772 547 781 q 388 737 438 740 l 389 734 q 591 524 530 636 l 603 502 q 609 496 605 498 l 609 495 q 608 494 609 494 l 615 485 q 706 238 706 319 l 706 235 q 710 170 710 192 q 708 149 710 154 l 712 106 l 707 106 q 703 134 704 131 q 700 125 700 134 q 701 109 700 119 l 696 109 l 694 119 q 684 132 693 121 l 677 154 l 676 156 l 673 156 q 677 127 677 142 q 635 -7 677 75 q 641 -28 641 -19 q 597 -62 641 -54 q 538 -92 581 -62 l 532 -92 l 543 -79 l 541 -79 q 450 -108 507 -108 l 448 -108 l 447 -106 l 443 -108 q 440 -106 441 -108 q 438 -107 438 -106 l 438 -108 q 366 -101 395 -104 q 210 -109 257 -109 l 203 -109 l 201 -106 q 222 -102 222 -106 l 222 -101 l 211 -103 l 197 -103 l 195 -100 q 231 -87 224 -87 l 230 -85 q 17 -24 79 -60 q -74 33 -69 24 l -62 28 l -59 28 l -71 36 l -72 37 q -16 23 -50 35 l -18 25 q -127 144 -29 25 q -142 167 -132 149 l -143 168 q -149 175 -145 172 l -148 178 q -153 183 -149 180 q -157 194 -156 188 q -182 235 -176 224 q -228 398 -209 286 q -256 419 -246 408 l -256 420 q -254 420 -256 420 l -261 429 q -265 456 -265 441 q -193 616 -265 517 q -83 729 -150 677 q 54 815 -6 789 q 47 850 47 827 q 11 885 39 865 q 17 891 17 886 l 17 892 q 12 897 16 893 q -13 1005 -13 964 q -10 1029 -13 1018 q 172 1241 20 1181 l 270 1262 l 269 1263 q 252 1274 252 1272 l 256 1274 q 264 1272 262 1272 l 254 1278 l 253 1280 l 262 1280 q 343 1267 281 1280 l 342 1268 q 329 1280 330 1276 l 331 1280 l 337 1278 l 336 1280 l 332 1283 q 334 1284 334 1283 l 333 1284 m 153 1011 q 158 1006 157 1008 q 156 1006 156 1006 l 157 1005 l 168 1005 l 171 1000 q 163 997 163 1000 q 164 996 163 996 l 174 996 l 174 994 q 136 942 136 960 q 136 938 136 940 l 140 935 l 146 924 q 161 892 154 909 q 205 865 181 865 l 208 866 q 216 865 214 865 q 290 898 221 865 q 376 927 323 911 q 411 1031 411 983 q 395 1093 411 1064 l 393 1096 q 341 1136 367 1136 q 205 1095 252 1129 q 153 1011 167 1050 m 19 277 q 134 217 68 228 q 216 207 170 207 q 258 209 236 207 l 260 210 q 347 292 302 224 q 384 388 384 381 q 358 530 363 485 q 349 566 355 553 q 269 640 279 629 q 263 642 264 642 l 265 643 q 176 703 204 694 l 174 703 q 168 706 172 703 q 81 648 163 705 l 42 624 q -41 481 -16 572 q -47 425 -47 452 q 13 283 -47 344 l 19 277 m 699 140 l 701 135 l 704 135 l 701 140 l 699 140 m 313 -24 l 305 -24 l 288 -23 q 335 -36 315 -36 l 349 -36 q 429 -14 380 -36 l 435 -2 l 435 -1 q 313 -24 391 -24 z "},"9":{"ha":846,"x_min":-118,"x_max":826,"o":"m 497 1232 l 497 1227 l 478 1219 l 478 1217 l 480 1217 q 502 1224 498 1224 l 502 1219 q 488 1205 493 1219 l 490 1205 q 616 1219 551 1219 l 633 1219 q 790 1148 732 1219 q 826 1098 826 1114 l 823 1098 l 817 1103 l 817 1101 l 821 1091 q 787 1013 813 1088 q 473 281 711 848 l 404 104 q 149 -368 307 -96 q -20 -580 92 -447 l -20 -575 l -3 -547 l -3 -544 l -6 -544 q -27 -572 -6 -549 l -30 -572 q 18 -456 -29 -551 q -20 -496 -17 -496 l -20 -494 l -1 -463 l -6 -463 q -35 -509 -35 -505 l -39 -509 l -37 -496 l -42 -498 l -44 -498 q -32 -432 -42 -467 l -106 -534 l -106 -530 l -90 -496 l -94 -496 l -111 -528 l -115 -528 q -111 -511 -115 -511 q -113 -509 -111 -509 q 66 -127 -87 -433 q 216 159 170 46 q 356 459 280 287 l 351 459 q 180 412 260 412 l 170 412 q -20 464 61 412 q -75 512 -72 512 q -111 550 -100 512 q -118 610 -118 567 l -118 645 q -25 941 -118 800 q 123 1072 61 1031 q 173 1101 163 1101 l 154 1082 q 178 1093 174 1093 l 175 1088 l 180 1086 q 351 1181 255 1144 q 497 1232 484 1232 m 258 932 l 260 924 l 251 918 l 252 915 l 252 911 q 240 905 250 905 l 235 905 l 227 906 q 161 777 169 840 q 160 760 160 768 l 160 747 q 219 695 160 712 q 233 693 232 693 q 315 704 303 693 q 455 810 393 752 q 544 978 484 831 q 542 983 542 981 q 546 987 546 983 q 485 1015 517 1015 l 477 1011 q 472 1018 474 1018 q 313 976 389 1014 q 258 932 269 950 m 216 559 l 216 557 q 249 555 238 557 q 268 564 268 560 q 216 559 233 559 z "},"\u0000":{"ha":0,"x_min":0,"x_max":0,"o":""}," ":{"ha":345,"x_min":0,"x_max":0,"o":""},"!":{"ha":456,"x_min":4,"x_max":428,"o":"m 129 235 q 140 227 140 231 q 142 229 142 227 q 164 227 157 227 l 170 229 q 183 210 183 229 l 189 212 l 191 212 q 208 178 208 208 q 148 19 208 86 q 102 -6 119 10 l 99 -1 l 94 -3 q 64 22 77 22 q 20 -9 24 -9 l 20 -6 q 23 2 23 -1 q 18 -6 18 2 l 12 -6 l 9 8 q 4 98 9 41 q 37 193 28 183 q 47 210 47 193 l 53 212 l 53 204 l 61 204 q 66 212 66 204 l 72 212 q 80 201 73 201 q 91 223 91 201 l 102 223 q 115 212 114 212 l 118 212 l 118 215 l 115 229 q 129 235 124 235 m 257 1131 l 265 1131 q 295 1117 283 1117 q 333 1128 307 1128 l 336 1128 q 344 1119 336 1119 q 349 1124 345 1124 q 352 1112 349 1112 l 366 1114 q 379 1107 366 1109 l 382 1112 q 398 1107 398 1111 l 409 1112 q 412 1110 409 1110 l 409 1105 l 422 1096 q 412 1085 417 1095 q 428 1058 425 1085 q 284 444 428 1011 l 195 214 l 189 214 l 189 216 l 192 237 l 192 239 l 189 239 q 184 216 184 225 l 178 216 q 173 239 173 235 l 173 275 q 157 357 157 313 l 157 444 q 151 448 157 448 l 119 355 l 113 355 q 121 394 113 360 l 121 396 l 119 396 l 108 362 l 102 362 q 100 396 102 368 q 181 899 135 732 q 224 1112 203 976 q 252 1128 241 1112 l 257 1131 z "},"\"":{"ha":545,"x_min":-9,"x_max":420,"o":"m 39 1250 q 54 1239 40 1247 l 63 1250 q 75 1239 71 1250 l 80 1242 l 88 1242 q 102 1223 99 1233 q 141 1182 130 1215 l 143 1177 q 152 1114 152 1152 q 136 995 152 1065 q 100 935 136 989 q 77 892 81 892 l 76 897 l 76 901 q 75 905 76 903 l 52 878 l 50 878 q 43 884 44 878 q 45 885 45 884 q 44 886 45 886 l 41 886 l 41 885 q 36 878 41 882 l 31 878 l 30 881 q 29 891 29 884 q 38 973 29 913 q 32 984 34 978 q 36 987 36 984 q 35 989 36 988 l 35 992 l 26 984 l 24 984 l 22 989 q -3 1177 -3 1116 l -8 1182 l -9 1185 l -9 1185 q 3 1198 -9 1190 q 14 1190 4 1194 q 12 1200 12 1195 q 15 1217 12 1208 q 12 1220 12 1217 q 26 1242 18 1220 q 39 1250 33 1242 m 319 1223 l 322 1223 q 339 1215 334 1215 l 340 1209 l 340 1204 q 403 1163 376 1204 q 415 1144 407 1163 q 420 1108 420 1128 q 382 976 420 1056 q 283 854 361 956 q 273 862 279 854 q 275 903 275 891 q 275 911 275 909 l 259 892 l 256 892 l 256 895 l 262 916 l 260 919 l 247 897 l 244 897 l 243 900 q 274 1198 251 1109 l 288 1198 q 287 1201 287 1200 q 302 1220 287 1209 q 305 1217 304 1220 q 319 1223 313 1223 z "},"#":{"ha":1414,"x_min":0,"x_max":1249,"o":"m 1056 995 q 1104 987 1083 987 l 1104 980 l 1097 943 l 1111 951 l 1132 951 q 1104 819 1132 927 l 1111 819 q 1242 812 1187 812 l 1249 812 l 1249 798 l 1242 798 l 1173 790 l 1173 783 l 1242 783 l 1242 768 q 1042 695 1179 734 q 952 519 1038 678 l 966 519 q 1160 526 1004 519 l 1160 512 l 1111 505 l 1111 497 l 1139 497 l 1173 505 l 1173 490 q 842 322 1116 447 q 608 0 780 181 l 608 7 l 614 44 l 587 15 l 580 15 l 580 22 q 587 29 580 29 l 580 44 l 580 58 q 614 256 580 87 l 608 256 q 448 161 448 218 l 373 73 l 373 87 l 393 132 l 393 139 l 387 139 q 352 95 387 121 l 352 183 l 359 197 l 352 197 q 90 183 122 183 l 90 190 l 76 183 q 7 227 26 183 q 0 234 0 227 q 28 256 0 252 l 28 263 q 0 278 0 263 q 235 388 42 336 q 414 439 414 425 q 469 585 421 477 q 331 578 376 578 l 311 578 q 256 607 291 600 l 256 622 l 352 644 l 352 651 l 269 651 l 269 665 q 545 746 545 717 q 635 907 593 855 q 669 878 665 878 q 684 914 669 914 q 773 812 773 902 l 773 783 q 932 848 911 783 q 1056 995 990 944 m 663 490 l 704 490 q 801 644 730 506 l 801 651 q 704 578 717 651 l 663 490 z "},"$":{"ha":916,"x_min":-271,"x_max":1122,"o":"m 1121 1100 l 1121 1092 l 1070 1081 l 1070 1076 l 1086 1076 q 1121 1085 1106 1085 l 1121 1076 q 899 959 1085 1052 l 832 915 q 838 912 838 915 q 798 900 809 900 l 798 896 l 803 896 q 843 900 830 900 q 529 707 784 850 q 392 636 456 674 q 832 538 481 636 q 955 474 955 507 q 965 463 960 474 q 960 451 960 455 q 970 443 970 450 l 970 439 q 955 427 970 436 q 965 404 965 415 l 944 396 l 949 388 l 949 384 q 655 195 844 289 q 225 14 475 103 q -8 -84 179 -15 q -256 -182 -232 -182 q -205 -154 -256 -174 l -205 -151 l -210 -151 q -266 -175 -248 -164 l -271 -175 l -271 -170 q -84 -29 -271 -154 l -89 -29 q -205 -60 -187 -60 q -149 -33 -204 -51 l -149 -29 l -154 -29 q -210 -45 -195 -45 l -215 -45 q 28 121 -174 -3 q 392 365 101 179 l 478 436 l 478 439 l 473 439 q 205 471 258 471 q 68 467 134 467 q -104 507 -76 467 q -149 530 -116 507 q -159 522 -149 522 q -170 538 -170 532 l -175 538 l -175 534 q -170 518 -170 527 l -175 518 q -225 581 -225 541 q 118 884 -225 745 q 681 1065 543 1065 l 696 1065 q 813 1057 727 1065 q 1121 1100 957 1073 m 363 1441 l 364 1441 l 370 1432 l 378 1435 l 378 1432 l 382 1435 l 385 1435 q 397 1377 397 1400 q 396 1369 397 1373 q 247 351 302 817 l 201 -28 q 136 -396 173 -266 l 133 -396 l 135 -376 l 133 -376 l 129 -396 l 126 -396 q 122 -367 122 -386 q 122 -355 122 -362 l 125 -341 l 123 -341 l 120 -368 l 116 -368 l 118 -330 l 114 -330 q 105 -399 107 -382 l 101 -399 l 104 -365 l 102 -365 l 98 -402 l 94 -402 l 95 -396 l 94 -396 l 79 -514 l 76 -514 q 79 -459 77 -507 l 78 -459 l 75 -480 q 72 -517 73 -515 l 69 -517 q 65 -410 65 -454 q 68 -350 65 -373 q 89 56 71 -94 l 89 67 l 90 67 l 90 73 l 96 124 q 96 129 96 127 q 95 136 96 133 l 98 141 q 111 323 107 289 l 116 366 q 117 372 117 369 q 116 378 117 375 q 119 389 118 382 l 126 446 q 127 455 127 451 q 126 460 127 458 l 130 478 l 133 504 q 133 510 133 508 q 133 512 133 512 l 135 524 q 264 1280 174 845 l 267 1282 l 271 1282 l 275 1277 l 278 1277 q 302 1386 286 1302 q 328 1418 326 1418 l 332 1418 l 335 1415 l 343 1421 q 347 1418 345 1418 q 363 1441 353 1433 m 750 1486 q 754 1471 754 1480 q 753 1465 754 1468 l 755 1465 q 759 1474 756 1474 q 763 1466 763 1469 l 763 1465 q 761 1461 762 1465 q 766 1426 765 1461 q 767 1423 767 1426 l 767 1422 l 765 1407 q 763 1404 765 1404 l 764 1398 q 744 1295 750 1321 l 744 1294 q 745 1292 744 1292 q 470 76 599 543 q 447 -6 469 75 l 444 -6 l 456 49 l 457 52 l 455 52 q 353 -376 420 -102 l 351 -376 q 360 -327 353 -370 l 360 -324 l 359 -324 q 350 -367 351 -359 l 348 -367 q 348 -333 348 -358 l 367 -194 l 367 -182 q 373 -155 369 -175 l 373 -151 l 372 -151 q 363 -178 366 -178 l 362 -178 l 363 -167 l 362 -167 q 351 -209 351 -203 l 348 -209 l 357 -163 q 348 -197 354 -163 l 345 -197 q 346 -180 346 -186 q 345 -172 346 -172 q 476 546 426 321 q 582 1059 528 833 q 617 1249 610 1189 l 618 1249 l 617 1255 q 627 1265 618 1259 l 628 1274 l 631 1267 l 632 1267 l 655 1331 q 661 1337 657 1331 l 667 1337 q 669 1333 669 1337 l 669 1331 l 676 1334 l 677 1334 q 686 1316 683 1316 l 689 1319 q 694 1316 691 1316 q 725 1449 706 1345 q 731 1461 730 1461 l 738 1461 q 750 1486 739 1468 z "},"%":{"ha":1263,"x_min":0,"x_max":1263,"o":"m 1242 1359 q 1246 1348 1246 1354 q 1244 1337 1246 1343 l 1246 1337 q 1254 1343 1250 1343 l 1255 1343 q 1263 1334 1263 1338 q 1262 1333 1263 1333 l 1261 1333 q 1258 1330 1259 1333 q 1261 1321 1261 1329 q 1257 1293 1261 1312 q 1259 1291 1259 1292 q 1259 1289 1259 1290 l 1251 1276 q 1248 1274 1250 1274 l 1247 1274 l 1247 1267 q 1182 1177 1202 1200 q 1181 1176 1181 1177 q 1183 1174 1181 1175 q 348 134 715 522 q 282 66 346 134 l 277 68 l 315 115 l 316 117 l 313 118 q 9 -245 206 -14 l 3 -243 q 33 -201 9 -239 l 35 -199 l 33 -198 q 5 -235 8 -229 l 0 -233 q 9 -201 4 -226 l 81 -76 l 84 -64 q 102 -41 90 -59 l 103 -37 l 100 -37 q 78 -59 83 -59 l 77 -59 l 75 -58 l 80 -47 l 77 -47 q 45 -82 47 -77 l 40 -81 l 68 -41 l 68 -41 q 43 -69 62 -41 l 37 -68 q 44 -46 44 -51 q 43 -44 44 -44 q 477 586 323 394 q 810 1029 649 838 q 925 1197 898 1141 l 928 1196 l 928 1202 q 948 1206 930 1206 l 952 1215 l 957 1207 l 960 1206 l 1020 1257 l 1021 1257 q 1034 1260 1025 1257 l 1044 1257 q 1047 1253 1047 1255 q 1046 1250 1047 1251 l 1061 1250 l 1063 1249 q 1076 1227 1069 1229 l 1083 1228 q 1092 1223 1086 1224 q 1184 1337 1121 1246 q 1200 1345 1197 1345 l 1200 1345 l 1213 1341 q 1242 1359 1217 1348 z "},"&":{"ha":1141,"x_min":0,"x_max":0,"o":""},"'":{"ha":404,"x_min":39,"x_max":333,"o":"m 229 1274 q 208 1263 217 1263 q 179 1234 188 1234 q 182 1231 179 1231 q 168 1195 168 1208 q 157 1206 157 1200 q 136 1187 136 1193 l 136 1184 l 139 1177 q 39 957 39 1013 q 66 927 39 927 q 85 930 75 927 l 85 922 l 89 922 l 104 933 l 104 930 q 62 878 62 888 q 65 876 62 876 q 75 868 70 868 q 100 908 86 868 q 46 786 46 802 l 46 783 l 54 783 q 64 793 64 788 l 68 793 q 64 790 68 790 q 71 783 64 783 l 75 783 l 118 819 q 114 808 118 814 l 114 801 q 164 858 118 801 q 239 937 239 931 q 333 1177 333 1099 l 333 1184 q 300 1238 333 1227 q 290 1263 300 1251 l 279 1263 l 272 1259 q 261 1274 272 1274 l 243 1259 q 229 1274 229 1270 z "},"(":{"ha":514,"x_min":0,"x_max":0,"o":""},")":{"ha":514,"x_min":0,"x_max":0,"o":""},"*":{"ha":694,"x_min":7,"x_max":534,"o":"m 404 1224 l 409 1224 l 404 1216 l 417 1224 l 417 1221 q 338 1091 394 1177 l 341 1091 q 534 1078 496 1078 l 534 1072 l 531 1072 q 504 1069 528 1072 l 504 1067 l 531 1067 l 531 1061 q 347 1002 489 1042 q 374 953 374 956 l 371 953 l 357 964 l 357 961 q 368 947 368 949 l 368 945 l 363 945 q 385 885 363 943 l 371 899 l 371 896 q 374 882 374 892 q 243 975 294 930 q 140 877 184 912 l 138 877 q 130 888 131 877 l 124 888 l 124 877 q 89 915 95 877 l 89 918 q 130 988 92 946 q 7 1045 7 996 l 7 1056 l 13 1059 q 16 1056 13 1056 q 26 1072 16 1068 q 29 1069 29 1072 q 119 1091 106 1091 l 132 1091 l 132 1097 q 108 1170 108 1130 l 108 1186 q 135 1216 117 1210 q 178 1197 165 1216 q 186 1200 184 1200 q 262 1121 260 1121 l 265 1121 q 404 1224 289 1142 z "},"+":{"ha":905,"x_min":8,"x_max":787,"o":"m 498 890 l 502 890 l 502 887 q 498 879 498 882 q 505 887 505 879 l 512 887 q 526 789 519 858 q 502 678 519 726 q 675 708 621 708 q 713 705 682 708 q 787 708 751 708 l 787 703 l 770 700 l 770 697 l 787 697 l 787 694 q 621 602 758 667 l 614 602 l 614 600 l 634 600 l 634 597 l 631 591 l 634 591 q 688 597 640 591 l 688 591 q 665 586 667 586 l 665 583 l 668 583 l 688 586 l 692 586 q 505 486 654 551 q 471 437 471 486 q 427 255 444 344 q 379 220 400 220 l 372 222 q 369 220 369 222 q 318 255 328 220 l 315 255 l 304 228 l 297 228 q 304 258 301 252 l 304 260 l 301 260 q 294 239 294 243 l 290 239 q 283 252 283 239 l 280 252 l 270 247 l 267 247 l 267 252 l 256 247 q 233 361 245 247 q 236 423 236 404 q 239 426 239 423 q 236 429 236 426 q 90 401 115 410 q 35 429 49 401 l 25 442 l 28 448 l 25 453 l 25 461 l 15 467 l 18 472 l 18 475 l 8 486 q 28 491 28 488 l 25 505 q 39 515 31 505 l 39 545 l 32 543 l 25 543 q 15 551 20 543 l 18 564 q 12 570 12 564 q 69 618 12 597 q 273 651 134 632 q 290 751 290 734 q 283 760 283 751 l 280 760 l 273 757 l 270 762 q 355 854 339 845 q 460 882 405 882 q 477 871 461 878 l 498 890 m 318 266 l 318 260 l 321 260 l 321 266 l 318 266 z "},",":{"ha":378,"x_min":-49,"x_max":259,"o":"m 76 264 q 84 256 76 256 l 95 264 q 106 260 100 260 q 114 264 111 264 l 117 256 q 136 264 122 256 q 168 231 155 235 l 165 222 q 182 173 182 194 q 224 218 197 218 q 258 203 239 218 q 259 186 259 195 q 204 29 259 83 q 92 -194 196 -32 q 27 -264 87 -208 l 22 -264 l 22 -252 l 14 -260 l 11 -260 l 11 -248 q 19 -149 11 -240 l 14 -153 l 11 -144 q -16 -157 -5 -157 q -49 -115 -33 -144 l -49 -99 l -43 -70 q -46 -37 -43 -66 q 32 86 -43 -18 q 76 264 53 264 m 10 -60 l 13 -66 l 18 -63 l 16 -56 l 10 -60 z "},"-":{"ha":1140,"x_min":-1,"x_max":983,"o":"m 726 773 l 772 773 q 983 762 814 773 l 983 757 l 954 757 l 954 751 l 979 751 l 979 746 q 789 697 941 732 l 789 694 l 810 694 q 928 692 843 694 q 941 686 928 686 l 941 681 q 814 646 820 646 l 814 640 l 857 643 l 861 643 l 861 637 q 823 632 829 632 l 823 629 l 844 629 l 865 632 l 865 627 q 375 515 581 528 q 58 494 113 494 l 41 499 q 29 496 33 496 l 12 518 l 16 524 q -1 548 -1 540 q 46 575 35 575 l 50 575 l 41 583 q 67 616 56 616 q 58 632 58 625 l 71 632 l 71 637 l 62 646 q 105 673 68 656 q 270 705 105 684 l 616 762 q 726 773 699 773 z "},".":{"ha":378,"x_min":15,"x_max":218,"o":"m 140 229 q 151 221 151 225 q 153 224 153 221 q 175 221 168 221 l 180 224 q 194 204 194 224 l 199 207 l 202 207 q 218 173 218 203 q 159 14 218 81 q 113 -12 130 5 l 110 -6 l 104 -9 q 75 16 88 16 q 31 -14 35 -14 l 31 -12 q 34 -3 34 -6 q 28 -12 28 -3 l 23 -12 l 20 3 q 15 92 20 35 q 47 187 39 178 q 58 204 58 187 l 64 207 l 64 199 l 72 199 q 77 207 77 199 l 83 207 q 91 195 84 195 q 102 218 102 195 l 113 218 q 126 207 125 207 l 129 207 l 129 210 l 126 224 q 140 229 135 229 z "},"/":{"ha":717,"x_min":12,"x_max":855,"o":"m 823 1486 q 829 1471 829 1480 q 829 1465 829 1468 l 831 1465 q 839 1474 833 1474 q 848 1466 848 1469 l 848 1465 q 844 1461 845 1465 q 853 1426 852 1461 q 855 1423 855 1426 l 855 1422 l 852 1407 q 848 1404 851 1404 l 850 1398 q 809 1295 823 1321 l 809 1294 q 811 1292 809 1292 q 262 76 520 543 q 215 -6 260 75 l 210 -6 l 235 49 l 235 52 l 233 52 q 28 -376 162 -102 l 23 -376 q 41 -327 27 -370 l 42 -324 l 39 -324 q 22 -367 24 -359 l 17 -367 q 18 -333 18 -358 l 56 -194 l 56 -182 q 67 -155 60 -175 l 68 -151 l 65 -151 q 48 -178 54 -178 l 45 -178 l 48 -167 l 45 -167 q 23 -209 24 -203 l 18 -209 l 35 -163 q 18 -197 29 -163 l 12 -197 q 14 -180 14 -186 q 12 -172 14 -172 q 274 546 173 321 q 486 1059 378 833 q 555 1249 543 1189 l 558 1249 l 557 1255 q 575 1265 557 1259 l 577 1274 l 584 1267 l 587 1267 l 633 1331 q 644 1337 637 1331 l 655 1337 q 660 1333 660 1337 l 660 1331 l 674 1334 l 677 1334 q 694 1316 687 1316 l 701 1319 q 711 1316 705 1316 q 771 1449 733 1345 q 785 1461 782 1461 l 798 1461 q 823 1486 800 1468 z "},":":{"ha":378,"x_min":15,"x_max":218,"o":"m 140 229 q 151 221 151 225 q 153 224 153 221 q 175 221 168 221 l 180 224 q 194 204 194 224 l 199 207 l 202 207 q 218 173 218 203 q 159 14 218 81 q 113 -12 130 5 l 110 -6 l 104 -9 q 75 16 88 16 q 31 -14 35 -14 l 31 -12 q 34 -3 34 -6 q 28 -12 28 -3 l 23 -12 l 20 3 q 15 92 20 35 q 47 187 39 178 q 58 204 58 187 l 64 207 l 64 199 l 72 199 q 77 207 77 199 l 83 207 q 91 195 84 195 q 102 218 102 195 l 113 218 q 126 207 125 207 l 129 207 l 129 210 l 126 224 q 140 229 135 229 m 140 1061 q 151 1053 151 1057 q 153 1055 153 1053 q 175 1053 168 1053 l 180 1055 q 194 1036 194 1055 l 199 1038 l 202 1038 q 218 1004 218 1034 q 159 845 218 912 q 113 820 130 836 l 110 825 l 104 823 q 75 848 88 848 q 31 817 35 817 l 31 820 q 34 828 34 825 q 28 820 28 828 l 23 820 l 20 834 q 15 924 20 867 q 47 1019 39 1009 q 58 1036 58 1019 l 64 1038 l 64 1030 l 72 1030 q 77 1038 77 1030 l 83 1038 q 91 1027 84 1027 q 102 1049 102 1027 l 113 1049 q 126 1038 125 1038 l 129 1038 l 129 1041 l 126 1055 q 140 1061 135 1061 z "},";":{"ha":418,"x_min":-49,"x_max":259,"o":"m 76 264 q 84 256 76 256 l 95 264 q 106 260 100 260 q 114 264 111 264 l 117 256 q 136 264 122 256 q 168 231 155 235 l 165 222 q 182 173 182 194 q 224 218 197 218 q 258 203 239 218 q 259 186 259 195 q 204 29 259 83 q 92 -194 196 -32 q 27 -264 87 -208 l 22 -264 l 22 -252 l 14 -260 l 11 -260 l 11 -248 q 19 -149 11 -240 l 14 -153 l 11 -144 q -16 -157 -5 -157 q -49 -115 -33 -144 l -49 -99 l -43 -70 q -46 -37 -43 -66 q 32 86 -43 -18 q 76 264 53 264 m 10 -60 l 13 -66 l 18 -63 l 16 -56 l 10 -60 m 140 1061 q 151 1053 151 1057 q 153 1055 153 1053 q 175 1053 168 1053 l 180 1055 q 194 1036 194 1055 l 199 1038 l 202 1038 q 218 1004 218 1034 q 159 845 218 912 q 113 820 130 836 l 110 825 l 104 823 q 75 848 88 848 q 31 817 35 817 l 31 820 q 34 828 34 825 q 28 820 28 828 l 23 820 l 20 834 q 15 924 20 867 q 47 1019 39 1009 q 58 1036 58 1019 l 64 1038 l 64 1030 l 72 1030 q 77 1038 77 1030 l 83 1038 q 91 1027 84 1027 q 102 1049 102 1027 l 113 1049 q 126 1038 125 1038 l 129 1038 l 129 1041 l 126 1055 q 140 1061 135 1061 z "},"<":{"ha":1179,"x_min":-1263,"x_max":191,"o":"m 1675 -1805 q 1681 -1819 1681 -1816 q 1677 -1819 1681 -1822 l 1680 -1823 q 1693 -1836 1686 -1828 l 1695 -1839 q 1707 -1859 1707 -1856 q 1706 -1858 1707 -1859 l 1705 -1856 q 1699 -1851 1702 -1852 q 1705 -1862 1705 -1858 q 1698 -1868 1705 -1867 q 1702 -1873 1702 -1873 q 1701 -1873 1702 -1874 l 1689 -1865 q 1683 -1859 1686 -1863 l 1682 -1858 l 1682 -1861 q 1578 -1775 1609 -1804 q 1577 -1775 1577 -1774 q 1580 -1780 1577 -1775 q 243 -629 830 -1169 q 138 -531 240 -625 l 129 -519 l 190 -572 l 192 -573 l 188 -568 q -299 -140 17 -419 l -308 -129 q -260 -167 -299 -137 l -258 -169 l -261 -164 q -305 -128 -300 -131 l -313 -117 q -298 -120 -307 -121 l -184 -199 l -179 -200 q -151 -224 -170 -209 l -148 -225 l -153 -219 q -189 -185 -180 -196 l -190 -184 l -194 -178 l -185 -184 l -190 -178 q -241 -132 -237 -134 l -249 -120 l -204 -158 l -205 -156 q -245 -120 -215 -144 l -254 -109 q -243 -111 -243 -114 q -244 -109 -243 -110 q 451 -662 203 -449 q 982 -1105 725 -879 q 1167 -1252 1123 -1225 l 1171 -1257 l 1171 -1254 q 1204 -1293 1174 -1256 l 1210 -1297 l 1218 -1310 l 1222 -1316 l 1319 -1412 l 1321 -1414 q 1340 -1437 1327 -1422 l 1357 -1459 q 1362 -1468 1362 -1467 q 1361 -1468 1362 -1469 l 1384 -1496 l 1388 -1502 q 1409 -1539 1397 -1523 l 1420 -1552 q 1434 -1572 1424 -1559 q 1581 -1700 1480 -1619 q 1606 -1727 1602 -1722 l 1607 -1728 l 1628 -1756 q 1675 -1805 1633 -1759 m -145 1494 q -141 1487 -141 1490 q -143 1481 -141 1484 l -142 1480 q -134 1484 -138 1484 l -133 1484 q -126 1479 -126 1481 q -127 1478 -126 1478 l -127 1478 q -131 1476 -129 1478 q -127 1471 -127 1476 q -131 1454 -127 1465 q -129 1452 -129 1453 q -130 1452 -129 1452 l -137 1444 q -140 1442 -138 1442 l -140 1442 l -140 1439 q -199 1385 -181 1398 q -199 1384 -199 1384 q -198 1382 -199 1383 q -950 759 -619 991 q -1009 718 -951 758 l -1014 719 l -980 747 l -978 749 l -981 749 q -1255 531 -1077 670 l -1260 532 q -1233 557 -1255 535 l -1232 559 l -1233 559 q -1258 537 -1255 541 l -1263 538 q -1254 557 -1259 543 l -1190 633 l -1187 640 q -1171 654 -1182 643 l -1170 656 l -1172 656 q -1193 643 -1188 643 l -1193 643 l -1196 643 l -1191 650 l -1193 650 q -1222 629 -1220 632 l -1227 630 l -1201 653 l -1202 653 q -1224 637 -1207 653 l -1229 637 q -1223 651 -1223 648 q -1224 652 -1223 652 q -833 1030 -972 915 q -534 1296 -679 1181 q -430 1396 -455 1363 l -428 1396 l -428 1400 q -409 1402 -426 1402 l -406 1407 l -402 1402 l -399 1402 l -345 1432 l -344 1432 q -333 1434 -340 1432 l -323 1433 q -320 1430 -320 1431 q -321 1428 -320 1429 l -308 1428 l -306 1428 q -294 1414 -301 1415 l -288 1415 q -280 1412 -286 1413 q -197 1480 -254 1426 q -183 1485 -185 1485 l -182 1485 l -171 1483 q -145 1494 -168 1487 z "},"=":{"ha":688,"x_min":-1,"x_max":802,"o":"m 596 841 l 634 841 q 802 830 667 841 l 802 825 l 778 825 l 778 819 l 799 819 l 799 814 q 647 765 769 800 l 647 762 l 664 762 q 758 760 690 762 q 769 754 758 754 l 769 749 q 667 713 672 713 l 667 708 l 701 711 l 704 711 l 704 705 q 674 700 679 700 l 674 697 l 691 697 l 708 700 l 708 694 q 316 583 481 595 q 62 562 106 562 l 49 567 q 39 564 42 564 l 25 586 l 29 591 q 15 616 15 608 q 52 643 43 643 l 56 643 l 49 651 q 69 684 60 684 q 62 700 62 692 l 73 700 l 73 705 l 66 713 q 100 741 70 724 q 232 773 100 752 l 508 830 q 596 841 575 841 m 581 570 l 618 570 q 787 559 652 570 l 787 553 l 763 553 l 763 548 l 783 548 l 783 543 q 632 494 753 529 l 632 491 l 648 491 q 743 488 674 491 q 753 483 743 483 l 753 477 q 652 442 656 442 l 652 437 l 685 439 l 688 439 l 688 434 q 658 429 664 429 l 658 426 l 675 426 l 692 429 l 692 423 q 300 312 465 324 q 47 290 90 290 l 33 296 q 23 293 27 293 l 10 315 l 13 320 q -1 345 -1 336 q 37 372 28 372 l 40 372 l 33 380 q 54 412 44 412 q 47 429 47 421 l 57 429 l 57 434 l 50 442 q 84 469 55 453 q 216 502 84 481 l 493 559 q 581 570 559 570 z "},">":{"ha":1179,"x_min":-292,"x_max":1137,"o":"m 942 680 q 954 671 962 674 l 981 673 l 982 673 q 991 669 987 673 q 911 612 910 623 q 935 614 923 612 l 943 614 q 1009 625 960 614 l 1015 625 l 1038 625 q 1042 627 1039 626 q 1057 629 1047 628 l 1078 630 q 1091 629 1084 629 l 1093 629 l 1090 604 l 1095 604 l 1119 608 l 1108 604 q 1133 602 1137 604 l 1120 598 l 1126 599 q 975 515 1058 571 q 620 293 848 419 q 54 -22 484 197 q 50 -23 54 -22 q 17 -34 40 -25 l 5 -35 q 21 -20 31 -20 l 20 -20 l -14 -40 l -25 -41 q -5 -23 -18 -39 l -11 -24 l -24 -29 l -30 -29 l -31 -29 q -22 -18 -39 -29 l -28 -18 l -32 -20 q -50 -32 -50 -29 l -69 -38 l -206 -100 q -254 -117 -246 -113 l -266 -117 q -236 -99 -258 -114 l -241 -99 l -244 -100 q -280 -121 -279 -119 l -292 -122 q -54 59 -146 -7 l -59 59 l -62 58 l -95 34 l -106 33 q -76 67 -74 67 q 667 587 111 261 q 673 588 671 587 q 675 589 675 589 q 751 634 688 600 l 764 637 l 763 637 q 762 638 760 637 l 777 645 q 778 646 777 645 q 785 646 781 646 q 836 661 817 656 q 859 665 852 665 q 859 667 862 667 l 858 667 q 859 667 858 667 q 890 672 867 669 l 892 672 q 892 669 899 672 l 897 669 q 913 674 903 671 q 942 680 925 677 m -97 1493 q -71 1483 -74 1487 l -59 1485 l -58 1485 q -44 1480 -56 1485 q 39 1412 12 1426 q 47 1415 44 1413 l 53 1414 q 64 1428 60 1415 l 66 1428 l 79 1428 q 79 1430 79 1429 q 82 1432 79 1432 l 91 1434 q 102 1432 98 1432 l 103 1432 l 158 1402 l 160 1402 l 164 1407 l 168 1402 q 186 1400 184 1402 l 186 1396 l 189 1396 q 292 1296 213 1363 q 591 1029 437 1181 q 982 652 731 915 q 982 650 982 652 q 988 637 982 648 l 983 637 q 960 653 966 653 l 960 653 l 985 630 l 981 629 q 951 650 979 632 l 949 650 l 954 643 l 951 643 l 951 643 q 931 656 946 643 l 928 656 l 930 654 q 945 640 941 643 l 949 633 l 1013 557 q 1021 538 1018 543 l 1017 537 q 992 559 1014 541 l 990 559 l 991 557 q 1019 532 1013 535 l 1013 531 q 739 749 836 669 l 737 749 l 738 747 l 772 719 l 768 718 q 708 759 710 758 q -43 1383 378 991 q -42 1383 -42 1383 q -43 1385 -42 1384 q -101 1438 -60 1398 l -101 1442 l -102 1442 q -104 1444 -104 1442 l -111 1452 q -112 1453 -112 1452 q -111 1454 -112 1453 q -114 1471 -114 1465 q -111 1476 -114 1476 q -114 1478 -112 1478 l -115 1478 q -115 1478 -115 1478 q -109 1485 -115 1481 l -107 1485 q -100 1480 -104 1485 l -98 1480 q -100 1487 -100 1484 q -97 1493 -100 1491 z "},"?":{"ha":630,"x_min":-39,"x_max":693,"o":"m 511 1118 q 547 1108 521 1118 q 616 1112 589 1112 l 627 1112 q 693 1065 693 1105 q 692 1055 693 1060 l 690 1046 q 657 1018 675 1018 q 650 964 650 970 q 614 838 634 897 q 616 831 616 833 q 611 823 612 827 q 613 817 613 819 l 608 817 l 607 812 l 608 802 q 578 762 604 802 q 435 585 502 654 q 348 470 359 526 q 272 330 345 454 l 271 328 q 271 324 271 326 q 295 269 271 307 l 294 264 q 276 254 294 262 l 280 248 q 270 238 273 238 q 262 240 265 240 q 250 234 261 234 l 250 231 q 254 210 250 224 l 248 210 q 243 221 243 218 l 243 222 l 237 222 l 245 208 l 245 205 l 242 205 q 181 267 228 207 q 148 334 161 267 q 142 382 142 354 q 153 476 142 420 q 178 536 158 498 q 359 780 189 587 q 429 890 371 780 l 431 899 q 438 952 435 918 q 452 981 449 966 l 450 981 q 191 907 355 970 q 176 899 178 903 l 176 898 q 218 878 176 889 l 217 874 l 206 874 l 206 872 l 214 872 l 214 870 q 136 848 211 867 q 66 836 134 838 l 63 836 q 27 819 42 819 q 24 827 24 823 l 24 829 q 13 827 18 829 q -8 831 -3 831 q -31 825 -23 825 l -18 836 l -21 836 l -36 829 l -39 829 l -38 831 l -7 866 q -12 869 -12 866 l -12 870 l -11 874 q 26 913 -9 884 l 23 924 q 29 928 28 924 q 23 938 23 928 l 43 956 q 165 1028 47 979 q 500 1116 399 1116 q 511 1118 501 1116 m 231 132 q 298 64 290 132 q 292 58 295 58 l 294 54 l 294 52 l 279 43 q 280 37 280 39 q 271 35 275 35 l 263 35 q 253 25 261 25 q 245 27 248 27 q 131 -18 242 9 q 120 -7 120 -12 l 120 -6 l 101 8 l 101 10 q 123 41 117 41 l 121 45 q 136 66 123 52 q 116 73 116 66 l 116 74 l 117 78 q 129 82 118 82 q 125 91 125 88 l 125 92 q 143 115 140 102 l 157 113 q 231 132 157 118 z "},"@":{"ha":1369,"x_min":0,"x_max":0,"o":""},"A":{"ha":1200,"x_min":-73,"x_max":1421,"o":"m 1289 1295 l 1301 1294 q 1259 1221 1259 1232 q 1261 1219 1259 1219 q 1296 1246 1268 1219 q 1278 1215 1278 1219 q 1278 1213 1278 1213 q 1417 1350 1289 1213 q 1299 1141 1358 1238 l 1421 1296 l 1312 1113 q 1240 861 1312 1076 q 964 0 1181 692 q 754 -259 880 -129 l 897 70 l 803 -60 q 842 101 842 63 q 835 118 842 118 q 791 76 823 118 q 888 227 888 222 q 849 172 855 172 q 848 174 848 172 q 920 360 848 193 q 888 322 888 339 l 875 322 l 875 332 l 868 332 l 861 313 l 848 313 l 848 336 l 836 336 q 829 322 836 332 q 809 327 817 327 l 542 265 q 144 -73 303 28 l 237 31 l 45 -78 q 45 -77 45 -78 q 140 40 45 -68 l -73 -79 l 33 51 q 620 608 97 159 q 1025 1051 620 615 q 1289 1295 1160 1175 m 770 460 l 777 460 q 901 532 901 490 q 960 661 907 532 q 770 460 926 631 z "},"B":{"ha":1445,"x_min":-174,"x_max":1592,"o":"m 1198 1170 l 1507 1170 q 1565 1141 1565 1160 l 1565 1128 q 1576 1124 1576 1128 q 1571 1103 1571 1118 q 1592 1086 1579 1103 l 1581 1082 q 1576 1086 1581 1086 l 1576 1074 l 1586 1061 q 1539 1019 1539 1044 q 1049 859 1255 949 q 884 800 989 834 l 884 796 l 1177 796 q 1331 800 1236 796 q 1432 754 1432 778 l 1432 734 l 1438 734 l 1438 725 q 1416 717 1416 725 q 1421 692 1421 694 q 1411 667 1411 677 l 1411 654 q 1145 519 1393 651 q 187 -72 856 372 q -158 -214 51 -172 q -174 -206 -158 -206 l -174 -202 q 33 28 -174 -180 l 33 33 q 22 41 22 33 l 22 96 q 92 285 22 140 q 379 1115 267 811 l 411 1136 l 443 1136 l 458 1128 l 486 1145 q 496 1136 487 1136 q 1198 1170 496 1149 m 980 1010 q 538 985 538 1001 q 507 893 538 975 q 523 880 514 893 l 517 872 q 528 863 528 871 q 507 855 515 855 q 512 842 512 847 q 1001 1010 621 867 l 1001 1015 q 980 1010 983 1010 m 427 654 q 267 184 416 639 l 273 184 q 1028 641 758 503 l 1028 646 l 789 646 q 427 654 713 646 z "},"C":{"ha":1297,"x_min":0,"x_max":1384,"o":"m 1202 1140 q 1356 1084 1269 1140 l 1350 1076 l 1350 1072 q 1373 1059 1373 1069 q 1367 1047 1367 1052 q 1384 1035 1375 1047 l 1373 1019 l 1384 1015 q 1179 705 1369 915 q 1139 688 1165 705 l 1128 688 q 1116 701 1116 688 l 1111 701 l 1088 684 q 1042 705 1088 699 l 1037 713 l 1025 709 l 980 709 q 940 728 980 715 l 906 789 q 923 829 917 789 q 968 874 935 829 l 963 874 q 786 777 863 829 q 518 568 755 777 q 296 152 322 314 l 296 140 q 308 132 308 138 q 296 123 296 130 q 330 59 313 123 q 342 55 330 55 q 547 123 368 55 q 821 208 683 152 l 826 208 l 809 193 l 814 193 l 831 200 l 838 200 q 809 156 838 186 l 831 164 l 831 160 l 814 140 l 821 140 l 843 152 l 849 152 q 433 -122 794 18 q 256 -146 361 -146 q 12 27 81 -146 q 0 116 0 61 l 0 148 q 518 874 0 457 q 1037 1116 788 1050 q 1202 1140 1142 1140 z "},"D":{"ha":1383,"x_min":0,"x_max":1521,"o":"m 1439 1171 q 1510 1143 1495 1171 l 1510 1133 l 1499 1119 l 1499 1114 q 1521 1109 1521 1114 q 1489 1048 1521 1061 l 1494 1038 l 1494 1034 q 1139 754 1494 1027 q 185 -9 248 -9 l 153 -14 q 136 -5 136 -9 q 65 -81 102 -5 l 38 -100 l 33 -100 l 22 -95 q 16 -100 22 -100 q 0 -43 0 -60 l 0 -33 q 158 564 0 219 q 321 924 240 764 l 142 924 q 82 962 113 924 l 93 967 l 87 977 q 251 1048 87 1012 q 823 1105 486 1086 l 823 1100 q 840 1105 834 1105 q 1080 1124 886 1105 q 1112 1119 1108 1119 l 1439 1171 m 627 943 q 610 939 616 939 l 610 943 q 529 901 529 943 q 305 389 398 630 q 741 773 532 627 l 943 953 l 943 958 q 627 943 745 943 z "},"E":{"ha":1293,"x_min":0,"x_max":1615,"o":"m 1245 1170 q 1573 1161 1518 1161 l 1609 1157 l 1609 1148 l 1584 1148 l 1584 1143 l 1615 1143 l 1615 1135 q 1021 943 1467 1065 q 932 899 932 937 q 875 781 932 892 l 880 781 l 911 785 l 943 785 l 1099 742 l 1099 737 l 1094 729 l 1104 729 l 1104 720 q 870 624 895 624 q 771 585 771 624 l 589 205 l 594 205 q 1183 397 742 273 l 1183 388 q 1156 375 1156 385 l 1183 379 l 1187 379 l 1187 375 q 938 218 1137 320 q 536 -5 724 78 q 161 -201 266 -129 q 120 -227 161 -208 l 115 -227 q 94 -201 94 -220 l 47 -210 q 10 -123 25 -189 q 0 -110 0 -123 q 610 882 37 -17 q 646 947 610 890 q 625 951 625 947 q 610 947 615 947 q 511 943 581 947 q 458 969 459 960 l 458 982 l 469 982 q 437 1000 469 987 q 443 1004 437 1004 l 437 1025 q 464 1065 437 1040 q 578 1104 512 1091 q 1219 1170 610 1104 l 1245 1170 z "},"F":{"ha":1018,"x_min":0,"x_max":1256,"o":"m 1256 1150 l 1256 1141 l 1215 1137 l 1215 1132 l 1251 1132 l 1251 1123 q 996 1036 1225 1103 q 726 945 908 995 l 640 753 l 648 758 l 777 758 q 1064 771 878 758 l 1064 762 q 1027 758 1053 762 l 1027 753 l 1064 753 l 1064 744 q 808 657 1035 726 l 808 652 l 827 652 l 827 644 l 817 644 l 817 639 l 831 639 l 831 634 q 616 502 812 613 q 479 456 480 469 q 256 73 363 211 q 32 -220 215 33 l 27 -220 l 14 -211 q 9 -215 14 -215 l 0 -183 q 164 328 68 94 q 388 854 384 825 q 370 886 378 854 l 352 876 q 329 895 331 885 q 334 913 334 903 q 319 926 319 913 q 439 1045 346 1045 q 498 1086 498 1064 l 516 1086 l 534 1073 q 557 1091 544 1091 l 589 1086 q 644 1114 608 1086 l 658 1114 q 667 1105 667 1112 q 1256 1150 805 1131 z "},"G":{"ha":1270,"x_min":0,"x_max":1365,"o":"m 1069 1146 l 1249 1144 q 1028 1130 1249 1139 l 1028 1126 l 1031 1126 q 1069 1133 1063 1133 l 1318 1137 l 1247 1112 l 1006 1082 l 991 1083 l 1002 1083 l 1002 1077 q 945 1063 953 1063 l 945 1060 q 1109 1067 1050 1067 q 1181 1056 1181 1067 q 1173 1047 1181 1052 l 1143 1027 q 1039 1017 1039 1025 l 1079 1006 q 1072 1011 1072 1009 q 1127 1018 1072 1018 q 1166 1017 1143 1018 q 1176 1010 1175 1010 q 1177 1010 1177 1010 q 1175 1013 1177 1011 q 1177 1008 1177 1010 q 938 954 1177 985 q 871 941 871 947 q 882 938 878 938 l 882 931 l 871 931 l 871 928 l 878 928 l 878 924 q 747 898 878 917 q 638 871 662 880 q 357 326 479 614 l 360 326 q 805 601 532 448 l 702 561 q 522 488 550 488 q 515 492 515 488 q 559 538 515 502 l 555 551 q 570 564 561 551 l 566 549 l 522 541 l 509 526 l 592 611 q 642 646 642 635 q 615 654 642 654 q 566 650 597 654 q 1077 812 981 760 q 1365 922 1111 819 l 1167 785 q 1282 842 1171 785 l 1319 833 l 1175 726 l 1288 787 q 923 494 1126 632 q 285 111 354 111 q 113 -15 267 111 l 86 -21 l 83 -21 l 68 -12 l 56 -12 q 45 2 56 2 l 41 2 l 30 -5 q 19 5 24 -5 l 22 12 q 4 28 22 16 q 0 41 4 36 l 4 48 l 0 64 q 169 528 0 104 q 341 998 270 772 l 338 1004 l 338 1007 q 387 1063 352 1045 l 394 1060 q 589 1103 394 1075 q 732 1113 641 1113 l 766 1109 q 1024 1139 819 1125 q 1069 1146 1024 1143 z "},"H":{"ha":1226,"x_min":0,"x_max":1315,"o":"m 1247 1158 q 1255 1152 1249 1152 l 1268 1158 l 1276 1158 q 1298 1145 1288 1145 q 1315 1090 1315 1133 q 1036 589 1315 1036 l 1036 582 l 1040 582 l 1188 600 l 1188 592 q 1137 582 1141 582 l 1137 578 l 1145 578 l 1188 585 l 1188 578 q 985 500 1127 544 q 786 109 868 298 q 655 -120 747 47 l 651 -120 l 651 -117 q 659 -83 651 -102 l 659 -79 l 655 -79 l 642 -110 l 634 -110 q 626 -73 634 -105 q 740 381 676 212 q 757 429 746 381 l 753 429 q 427 368 608 398 q 288 129 309 155 l 288 132 q 304 180 288 136 q 279 136 294 180 l 271 136 l 275 159 l 267 163 q 157 -24 171 -11 l 152 -24 l 152 -7 q 144 -28 144 -7 l 135 -28 q 119 9 119 3 l 119 16 q 182 344 119 150 q 178 347 178 344 l 157 344 l 80 344 q 21 357 21 344 l 21 361 l 25 368 q 0 385 8 372 l 0 391 l 13 391 l 4 401 l 4 405 q 110 456 23 437 q 229 477 229 470 q 482 1101 300 666 q 562 1121 482 1114 q 600 1073 600 1095 l 604 1073 q 642 1114 626 1102 l 664 1114 l 664 1118 q 685 1111 685 1116 l 693 1114 l 706 1114 q 748 1090 720 1090 q 761 1083 761 1090 l 761 1076 l 753 1066 q 769 1056 769 1065 q 744 1053 763 1053 l 744 1049 l 753 1039 q 549 592 753 1031 q 532 545 532 556 q 812 568 632 561 q 1015 1036 892 772 q 998 1049 1008 1036 l 1006 1063 q 994 1066 994 1063 l 998 1073 q 989 1090 989 1084 q 1015 1111 999 1090 l 1031 1121 q 1048 1118 1039 1118 q 1166 1141 1048 1131 q 1204 1135 1181 1135 q 1247 1158 1223 1158 z "},"I":{"ha":960,"x_min":0,"x_max":1056,"o":"m 994 1152 q 1016 1137 994 1149 l 1013 1132 q 1052 1108 1021 1122 q 1041 1099 1047 1108 l 1041 1097 q 1056 1088 1056 1095 q 1052 1079 1056 1085 l 1056 1067 q 1034 1023 1047 1023 l 1030 1023 l 1013 1027 q 911 965 1013 1016 q 500 263 654 454 l 500 254 l 508 254 l 508 249 q 619 276 608 276 l 621 276 q 503 233 621 272 l 665 263 q 707 259 665 259 q 752 260 726 259 q 566 193 745 259 l 566 190 l 569 190 q 736 245 727 245 q 726 239 736 243 l 741 224 q 551 161 577 173 q 393 85 551 144 q 332 53 340 60 q 328 56 328 53 q 112 18 204 26 q 58 0 107 10 q 47 9 58 4 l 50 15 q 14 23 50 21 l 14 29 l 22 38 l 14 41 q 3 38 7 38 l 0 44 l 7 53 l 3 64 q 87 129 14 94 q 288 210 87 149 q 357 395 302 210 q 609 909 399 505 q 598 912 602 912 q 511 921 511 914 q 418 912 508 918 q 393 924 393 920 l 393 933 q 375 945 376 939 l 382 954 q 375 959 375 954 l 389 989 q 375 1000 383 989 l 375 1003 q 382 1006 382 1003 l 378 1021 q 566 1088 407 1054 q 667 1097 634 1097 q 721 1094 689 1097 q 966 1149 791 1094 q 994 1152 981 1149 z "},"J":{"ha":1093,"x_min":0,"x_max":1171,"o":"m 1013 1140 l 1036 1131 q 1103 1140 1069 1140 q 1129 1118 1126 1133 l 1139 1111 q 1152 1127 1147 1127 l 1155 1127 l 1155 1124 q 1152 1114 1152 1118 q 1158 1124 1158 1114 l 1164 1124 q 1171 1095 1168 1102 q 1013 590 1171 924 q 882 288 985 465 q 727 62 840 200 q 611 -31 625 -31 q 357 -150 490 -118 q 209 -179 281 -179 q 9 -137 62 -179 q 0 -121 9 -132 l 0 -102 l 3 -102 l 3 -79 q 96 50 3 -54 q 142 117 96 60 q 299 342 192 200 q 412 503 408 502 l 412 494 l 408 487 l 412 487 q 454 535 433 487 l 460 535 q 437 481 460 528 l 437 477 l 441 477 q 463 522 463 519 l 469 522 q 431 394 460 470 q 412 339 413 366 l 412 313 q 505 416 502 416 l 505 413 q 479 368 479 373 l 511 404 l 511 397 q 431 220 511 378 q 476 239 467 239 q 415 188 459 216 q 408 127 415 172 q 495 162 495 142 q 656 345 591 237 l 769 481 q 891 793 891 733 q 904 854 895 793 l 888 857 q 746 834 888 847 q 714 819 717 828 l 682 821 l 679 821 q 386 786 614 821 l 386 793 q 425 802 421 802 l 425 806 l 421 806 q 386 799 417 806 l 386 802 q 479 854 406 826 l 479 857 l 425 867 q 370 854 389 860 l 347 867 l 351 873 q 321 892 321 888 l 325 899 l 319 899 l 319 909 q 338 937 328 909 q 347 944 347 941 q 345 954 345 950 q 360 966 353 955 q 576 1037 401 989 q 917 1101 625 1069 q 991 1134 991 1115 q 1013 1140 1004 1140 m 393 465 l 386 446 q 395 461 391 446 l 395 465 l 393 465 z "},"K":{"ha":842,"x_min":0,"x_max":877,"o":"m 802 1166 q 850 1126 836 1166 q 871 1105 850 1122 l 877 1078 q 869 1071 873 1078 l 869 1065 l 871 1065 l 877 1068 l 877 1065 q 706 823 877 1034 q 496 621 587 700 l 496 618 q 685 346 536 569 q 818 74 751 245 q 834 26 834 39 q 815 56 829 26 l 812 56 l 812 53 l 826 24 l 823 24 l 810 31 l 810 29 q 861 -70 861 -63 l 837 -43 l 837 -45 q 850 -73 850 -68 l 847 -73 q 738 31 833 -70 q 645 119 730 31 q 666 87 649 110 l 666 82 l 637 109 l 637 106 q 658 77 658 79 l 655 77 q 525 180 632 84 q 304 402 405 281 l 301 402 q 128 -128 212 52 q 80 -214 88 -208 l 80 -208 l 85 -190 q 75 -208 80 -190 l 69 -208 l 66 -184 q 128 133 98 29 l 123 136 q 29 -102 64 -53 l 26 -102 l 26 -96 l 16 -104 l 14 -104 l 14 -85 l 11 -85 l 8 -96 l 5 -96 q 0 -91 0 -96 l 0 -78 q 192 586 0 63 q 336 1055 267 799 q 376 1086 348 1069 q 416 1129 389 1129 q 421 1135 416 1135 l 427 1135 q 429 1132 429 1135 q 437 1135 434 1135 l 450 1132 q 479 1161 450 1152 l 482 1161 q 485 1143 485 1151 l 488 1143 q 493 1153 488 1153 q 504 1126 499 1153 q 399 735 504 1076 l 399 732 l 402 732 q 760 1148 534 896 q 802 1166 791 1166 z "},"L":{"ha":838,"x_min":0,"x_max":833,"o":"m 483 1221 l 492 1221 q 541 1190 518 1215 l 554 1190 q 562 1196 555 1196 l 570 1196 q 595 1178 570 1192 q 633 1196 613 1196 l 642 1194 q 658 1196 648 1196 q 679 1184 676 1184 q 704 1194 679 1190 q 741 1147 728 1181 l 741 1136 q 500 510 741 1031 q 354 264 354 294 q 317 182 317 187 l 321 182 q 654 303 460 250 l 637 291 l 642 291 q 662 297 655 297 l 662 294 q 549 209 662 287 l 554 209 l 829 303 q 808 288 808 291 l 812 288 q 833 294 825 294 l 833 291 q 795 258 795 276 q 191 -77 334 -26 q 104 -132 130 -92 q 87 -146 96 -145 q 66 -110 66 -146 l 66 -89 l 37 -95 q 0 -62 0 -77 l 0 -40 q 62 8 0 -33 q 104 63 62 29 q 179 321 147 153 q 408 1081 179 387 q 454 1208 412 1084 q 483 1221 469 1208 z "},"M":{"ha":1140,"x_min":-24,"x_max":1262,"o":"m 704 -176 q 706 -151 704 -165 q 740 21 713 -92 l 564 -272 q 597 -137 597 -189 q 564 -64 597 -85 q 612 -99 612 -95 q 610 -100 612 -100 l 610 -106 l 601 -106 q 529 -175 544 -175 q 524 -166 524 -175 q 568 -44 524 -141 q 760 535 587 94 l 760 538 l 755 538 q 549 311 708 442 q 502 292 502 296 l 502 260 l 493 260 l 493 295 l 488 295 q 484 270 484 277 l 474 270 q 404 602 460 301 l 399 602 q 272 260 371 492 q 249 159 249 225 q 211 52 233 146 l 174 17 q 155 4 174 12 q 46 -145 77 -130 l 153 47 l 40 -149 q 103 23 103 14 l 94 23 q 15 -136 94 4 l -8 -130 l -24 -115 q 0 61 0 16 q 47 282 0 85 q 305 1173 47 488 q 366 1208 329 1208 q 394 1192 366 1203 q 446 1291 424 1291 l 460 1291 l 460 1284 q 469 1297 469 1284 l 502 1297 q 535 1278 502 1287 q 540 1281 535 1281 q 587 1196 587 1265 l 587 981 q 591 845 587 899 q 587 718 587 810 l 587 589 q 736 798 596 592 q 1019 1123 836 921 l 1023 1123 l 1000 1088 l 1000 1085 l 1004 1085 q 1080 1262 1051 1156 q 1093 1278 1086 1278 q 1117 1274 1099 1274 q 1131 1287 1119 1287 q 1173 1265 1173 1277 l 1187 1265 q 1249 1240 1249 1255 q 1262 1230 1255 1240 q 1257 1227 1262 1227 l 1262 1211 q 1112 798 1262 1174 q 967 380 1012 561 q 955 325 960 351 q 941 245 946 283 q 935 186 937 215 q 936 187 935 187 q 939 178 939 187 q 936 153 939 170 q 892 -43 928 98 l 882 -43 l 882 -31 l 878 -31 l 878 -43 l 868 -43 q 793 -163 829 -156 l 770 -176 l 831 -52 l 748 -248 l 821 -46 l 817 -46 l 817 -56 l 812 -56 q 795 -72 806 -56 q 747 -161 778 -98 l 763 -92 l 768 -68 l 777 -31 l 779 -21 l 779 -29 l 775 -54 l 772 -80 l 762 -155 l 750 -241 l 728 -238 l 705 -235 l 723 -195 l 700 -225 l 718 -214 l 713 -214 q 707 -208 709 -214 q 704 -187 704 -201 l 704 -176 m 568 621 l 568 605 q 572 570 572 576 l 577 570 l 577 586 q 572 621 572 614 l 568 621 z "},"N":{"ha":991,"x_min":0,"x_max":1048,"o":"m 471 1308 l 479 1308 q 471 1251 479 1251 q 479 1222 475 1246 q 475 1176 475 1181 l 597 302 q 642 460 606 302 l 808 916 l 812 916 l 812 912 q 804 873 812 906 l 804 866 l 808 866 q 821 912 808 873 l 829 912 l 829 902 q 825 899 829 899 q 829 876 829 895 l 833 876 l 853 942 l 861 942 l 861 935 l 865 935 q 1032 1268 871 958 l 1036 1268 l 1036 1265 q 1024 1232 1036 1258 l 1024 1228 l 1028 1228 q 1040 1258 1028 1232 l 1048 1258 l 1048 1242 l 935 793 q 804 131 857 349 l 715 -132 q 731 -222 731 -203 l 723 -222 q 719 -201 723 -219 l 715 -201 l 715 -205 l 719 -224 l 719 -231 q 678 -185 712 -231 q 658 -195 678 -195 l 662 -201 l 662 -208 l 654 -208 l 654 -201 l 650 -201 l 650 -205 l 674 -281 l 666 -281 l 658 -261 l 654 -261 l 654 -264 q 658 -277 658 -270 l 650 -277 q 455 164 569 -172 q 329 668 422 280 q 288 553 318 668 q 146 134 288 496 q 110 118 130 118 q 94 134 110 125 l 94 174 l 90 174 q 41 121 75 121 q 37 118 41 118 q 8 184 8 129 q 0 194 5 184 q 280 994 0 307 q 304 1038 280 1038 q 374 1153 324 1059 q 366 1258 366 1186 l 366 1272 q 398 1295 391 1295 q 439 1281 420 1295 l 447 1281 l 455 1304 l 463 1304 q 451 1274 463 1298 l 451 1272 l 455 1272 q 471 1308 471 1301 m 857 955 l 865 955 l 865 948 l 857 948 l 857 955 z "},"O":{"ha":1414,"x_min":0,"x_max":1414,"o":"m 888 1160 l 911 1160 q 1088 1137 986 1160 l 1088 1140 q 1083 1150 1083 1147 l 1088 1150 q 1097 1140 1097 1150 l 1101 1140 l 1101 1143 q 1097 1156 1097 1149 l 1101 1156 q 1142 1127 1106 1156 q 1169 1131 1166 1131 q 1310 1010 1247 1112 q 1414 651 1414 814 q 1360 330 1414 576 l 1351 330 l 1351 357 l 1346 357 l 1341 324 l 1333 324 l 1324 389 l 1319 389 q 1065 123 1282 296 q 721 -75 910 -1 q 530 -117 586 -117 q 277 -75 472 -117 q 41 45 149 -75 q 0 240 0 136 q 222 758 0 516 q 480 991 296 867 q 671 1085 662 1085 q 829 1153 671 1114 q 888 1160 850 1160 m 363 564 q 385 496 385 526 q 317 301 317 336 q 385 146 317 228 q 508 111 472 111 q 789 175 736 136 q 1002 330 1002 296 q 1165 806 1165 562 q 1137 868 1165 860 q 934 975 978 975 l 880 943 q 576 791 722 886 q 490 696 490 727 q 363 564 456 696 z "},"P":{"ha":1022,"x_min":-47,"x_max":1266,"o":"m 603 1379 q 833 1371 767 1371 l 882 1371 l 1141 1347 l 1185 1347 q 1228 1339 1185 1341 l 1228 1335 l 1218 1335 l 1218 1327 l 1228 1327 l 1228 1323 l 1223 1315 q 1257 1311 1242 1311 l 1257 1303 l 1242 1303 q 1261 1295 1242 1295 l 1261 1287 q 1223 1255 1243 1287 l 1223 1251 q 1238 1255 1228 1251 l 1266 1251 q 1218 1208 1266 1233 q 612 715 916 924 q 348 551 395 551 q 343 555 348 555 q 184 150 315 503 l 179 150 l 179 154 q 189 197 179 163 l 189 201 l 184 201 l 170 150 l 160 150 q 165 170 160 163 l 160 186 l 170 245 l 170 249 l 165 249 q 73 -9 93 60 l 64 -9 l 64 11 l 59 11 q 54 -14 54 -10 l 45 -14 l 45 -9 q 50 -5 45 -5 q 40 22 40 15 l 45 62 l 45 74 l 40 74 q -18 -109 40 66 l -33 -109 q -18 -65 -18 -92 l -18 -57 l -23 -57 q -33 -97 -23 -67 l -42 -97 q -47 -69 -42 -85 q 136 842 25 455 l 213 1128 q 208 1148 208 1135 l 194 1148 q 121 1136 148 1136 q 83 1164 100 1136 q 88 1168 83 1168 l 83 1176 l 83 1180 q 194 1259 83 1240 q 179 1299 179 1276 q 367 1367 199 1367 q 603 1379 570 1379 m 444 894 q 857 1160 697 1080 l 857 1168 l 511 1140 l 444 894 z "},"Q":{"ha":1219,"x_min":5,"x_max":1204,"o":"m 785 1175 q 875 1166 803 1175 q 911 1168 907 1168 q 1037 1111 998 1153 q 1114 965 1114 1022 l 1145 853 q 1204 783 1204 838 l 1204 774 q 1078 280 1204 649 q 933 77 974 117 l 933 80 l 938 95 q 924 77 928 95 l 915 77 l 915 86 q 870 53 908 86 q 1055 -369 965 -100 l 1059 -396 q 1055 -408 1055 -401 l 1046 -408 q 960 -320 1046 -401 q 694 -44 872 -222 l 694 -41 q 618 -44 642 -44 l 609 -44 q 483 -29 566 -44 q 262 28 380 -29 q 163 71 223 39 l 163 65 q 168 41 168 43 q 154 59 154 43 l 150 59 l 150 50 q 154 41 154 43 l 150 41 q 87 132 131 41 q 50 198 68 132 q 60 222 60 221 q 41 334 46 292 l 37 334 l 37 323 l 28 323 l 28 332 l 33 350 l 33 353 l 28 353 q 19 317 19 322 l 10 317 l 10 338 q 5 350 10 345 q 244 817 52 623 q 537 1029 363 937 q 667 1090 594 1065 l 663 1105 l 663 1120 q 717 1166 663 1143 q 785 1175 747 1175 m 334 459 l 352 429 q 312 401 345 412 q 289 301 289 357 q 330 250 289 269 q 348 231 348 237 l 343 216 q 537 122 446 153 q 559 111 537 118 l 564 111 q 338 326 474 235 l 338 329 l 348 338 l 338 347 l 338 365 q 375 380 357 365 l 393 380 q 397 377 397 380 q 433 410 407 377 q 447 414 442 414 l 456 410 l 465 414 q 519 389 490 414 l 524 389 q 541 426 534 389 l 591 441 q 640 426 591 434 q 776 229 693 378 l 780 229 q 924 726 924 420 q 897 960 924 960 q 807 983 871 975 q 595 810 746 950 q 334 459 428 629 m 532 386 l 532 380 l 537 380 l 537 386 l 532 386 m 321 113 q 352 98 321 103 q 326 113 352 102 l 321 113 m 145 68 l 145 62 l 150 62 l 150 68 l 145 68 m 510 -14 l 510 -17 l 537 -17 q 564 -11 551 -11 l 564 -5 l 555 -5 q 510 -14 539 -14 z "},"R":{"ha":1147,"x_min":0,"x_max":1343,"o":"m 489 1185 q 519 1168 489 1179 l 530 1154 q 570 1157 566 1157 q 962 1133 625 1157 l 962 1126 l 926 1126 l 926 1123 l 967 1123 l 967 1116 q 952 1109 952 1116 q 1099 1102 1021 1102 l 1156 1102 q 1282 1133 1168 1102 q 1262 1123 1282 1123 l 1262 1120 l 1267 1120 q 1298 1126 1284 1126 l 1262 1095 l 1272 1095 q 1339 1116 1320 1116 l 1329 1105 l 1343 1105 q 993 868 1343 1089 l 530 617 q 957 -40 957 -26 l 1089 -267 q 1059 -233 1061 -249 l 1054 -233 l 1054 -236 q 1074 -274 1074 -265 q 896 -95 1029 -252 q 789 18 823 -21 l 784 18 l 784 15 q 799 -12 799 -2 l 794 -12 q 555 211 754 13 q 336 459 427 332 l 331 459 q 168 -75 331 435 q 163 -109 163 -104 l 153 -109 l 153 -102 l 148 -102 l 148 -109 q 122 -88 122 -109 l 117 -88 l 117 -98 l 112 -98 q 97 -75 100 -98 q 122 204 97 -37 l 122 214 l 117 214 q 46 22 117 207 l 36 22 l 46 63 l 46 66 l 41 66 q 31 28 41 60 l 20 28 l 20 50 q 16 63 20 57 q 173 944 71 446 q 168 958 173 958 q 122 979 140 958 q 127 992 127 984 q 0 1068 41 992 l 0 1082 q 31 1123 0 1105 l 41 1120 q 107 1133 41 1132 q 178 1126 172 1130 q 199 1130 187 1130 l 199 1126 q 422 1154 251 1143 q 443 1178 433 1178 l 448 1178 l 463 1171 q 489 1185 463 1185 m 570 958 l 494 958 q 427 779 481 958 q 809 968 545 824 q 570 958 715 958 z "},"S":{"ha":1223,"x_min":-343,"x_max":1309,"o":"m 1015 1161 q 1030 1163 1015 1161 q 1048 1165 1046 1165 q 1068 1164 1051 1165 q 1085 1161 1085 1164 q 1082 1151 1085 1158 q 1082 1148 1082 1149 q 1090 1141 1082 1143 q 1101 1135 1101 1139 q 1099 1124 1101 1131 q 1097 1120 1097 1121 q 1099 1118 1097 1118 q 1134 1120 1101 1118 q 1233 1133 1167 1123 q 1297 1140 1290 1140 l 1298 1140 l 1298 1136 q 1290 1133 1298 1133 q 1281 1133 1281 1133 q 1295 1131 1281 1131 q 1309 1125 1309 1131 q 1146 1070 1309 1119 q 689 951 984 1021 q 389 882 393 882 l 389 882 q 439 840 389 878 q 647 713 494 799 q 844 591 800 627 q 925 541 888 555 q 966 526 962 526 q 1000 540 970 526 q 1029 552 1026 552 q 1018 543 1029 551 q 1013 538 1013 539 q 1014 538 1013 538 q 1021 539 1016 538 q 1034 542 1031 542 q 1034 541 1034 542 l 1034 534 q 1015 516 1034 529 q 996 500 996 503 q 1015 485 996 498 q 1031 471 1031 473 q 1013 478 1029 471 q 996 484 998 484 l 996 484 q 1006 476 996 482 q 1017 470 1017 471 l 1017 468 q 1015 467 1017 467 q 1004 469 1012 467 q 979 474 996 471 l 978 474 q 858 399 958 474 q 648 257 753 320 q 425 101 542 193 q 175 -74 307 8 q -18 -191 43 -156 q -39 -201 -35 -201 q -41 -200 -41 -201 q 28 -129 -41 -192 q 71 -81 71 -91 q 66 -79 71 -79 q -33 -124 50 -79 q -203 -211 -191 -211 q -203 -210 -203 -211 q -113 -144 -203 -203 q 1 -63 -23 -85 q 155 72 26 -41 q 362 259 284 185 q 534 414 441 334 q 629 496 627 495 q 528 535 629 498 q 359 619 423 572 q 229 707 295 666 q 100 780 163 749 q 35 817 37 810 q 34 821 34 819 q 37 825 34 824 q 41 827 41 825 q 40 829 41 828 q 37 833 37 831 q 47 846 37 834 q 73 857 57 857 q 88 859 88 857 q 74 869 88 860 q 43 893 60 878 q 26 911 26 907 q 29 916 26 914 q 31 918 31 918 q 29 921 31 920 q 26 924 26 923 q 30 926 26 926 q 38 934 34 926 q 57 947 43 942 q 154 970 71 952 q 274 1003 237 988 q 386 1039 312 1019 q 484 1060 459 1060 l 536 1060 q 721 1097 565 1060 q 931 1145 878 1133 q 1015 1161 984 1158 m 823 477 l -343 -258 l 450 389 l 595 519 l 398 586 l 761 643 l 874 565 l 823 477 z "},"T":{"ha":1030,"x_min":-150,"x_max":1188,"o":"m 1185 1240 l 1188 1239 q 1127 1219 1187 1234 l 1050 1188 l 1050 1185 l 1053 1185 l 1137 1193 l 1136 1190 q 1147 1192 1139 1192 q 1164 1191 1154 1192 q 1135 1182 1162 1185 l 1134 1179 l 1142 1178 q 1157 1181 1149 1181 q 1164 1180 1160 1181 l 1158 1173 l 1163 1172 l 1162 1166 l 1160 1166 q 1147 1161 1148 1166 l 1156 1160 l 1155 1157 q 1116 1124 1133 1133 l 1118 1119 l 1118 1114 l 1098 1112 l 1097 1109 l 1100 1108 l 1116 1108 l 1119 1107 q 911 1033 1078 1065 q 866 1026 876 1030 q 868 1015 868 1026 q 802 542 868 953 q 787 471 795 502 l 710 -53 q 638 -352 694 -149 l 635 -351 q 632 -344 632 -351 q 634 -329 632 -338 l 631 -329 q 621 -346 627 -346 l 617 -346 q 610 -251 610 -345 q 611 -185 610 -222 q 608 -178 608 -184 q 610 -163 608 -172 l 607 -162 l 606 -165 q 582 -458 589 -304 l 582 -460 q 575 -416 575 -459 q 581 -304 575 -376 q 579 -159 579 -223 q 589 58 579 1 l 586 58 q 571 1 572 11 l 566 1 l 572 41 l 570 42 q 553 -24 559 14 q 539 -203 545 -75 l 532 -202 q 537 176 536 -56 q 548 439 548 241 q 574 451 549 449 q 568 492 568 481 l 568 496 q 578 502 570 502 l 581 502 l 581 508 q 620 837 581 600 l 648 1005 q 642 1006 646 1006 q 500 972 611 1006 q 328 949 445 962 l 329 954 l 332 954 q 338 958 337 954 l 335 958 l 323 955 l 324 958 q 368 989 325 961 l 365 989 l 311 993 q 228 1010 262 1004 q 210 1011 220 1011 q 60 994 165 1011 l 34 998 q -22 980 21 982 l -109 967 l -111 972 q -44 994 -110 976 l -43 997 l -46 998 q -130 987 -116 987 l -133 987 l -144 989 l -143 995 l -142 995 q 1 1036 -132 995 l 2 1039 l -1 1040 l -148 1031 l -150 1037 q -1 1056 -42 1049 l 0 1059 q -13 1065 -13 1061 l -13 1066 q 3 1072 -3 1072 l 5 1072 l 5 1074 l -8 1076 l -7 1079 q 294 1139 32 1103 q 699 1195 439 1161 q 713 1208 701 1208 q 718 1208 715 1208 q 722 1202 718 1202 q 735 1219 727 1219 l 736 1219 l 764 1200 q 972 1217 831 1208 q 1135 1232 1015 1230 q 1179 1240 1164 1240 q 1185 1240 1183 1240 m 569 296 q 551 227 558 296 l 546 186 l 548 181 l 549 181 q 554 186 553 181 l 555 199 q 572 293 561 248 q 569 296 569 294 z "},"U":{"ha":1076,"x_min":0,"x_max":1126,"o":"m 711 1339 l 712 1333 l 690 1289 l 691 1286 l 695 1286 q 717 1327 717 1324 l 724 1329 l 724 1327 q 722 1319 724 1324 q 727 1311 722 1316 l 727 1310 q 722 1289 727 1304 l 727 1275 l 710 1228 l 739 1274 q 740 1257 740 1266 q 718 1140 740 1213 l 722 1135 l 703 1073 l 703 1070 l 707 1070 l 727 1124 l 734 1124 q 730 1103 734 1104 l 734 1098 l 734 1093 q 637 637 734 1053 q 496 212 496 224 l 496 209 l 500 209 q 766 290 575 236 q 766 308 766 298 q 883 935 766 425 q 920 1106 889 948 l 927 1110 l 935 1111 l 951 1104 l 955 1105 q 964 1121 956 1120 l 976 1122 l 1008 1114 l 1019 1116 l 1019 1118 q 1026 1126 1019 1124 l 1029 1126 q 1050 1117 1046 1117 l 1050 1117 q 1060 1133 1051 1132 l 1075 1135 q 1080 1126 1076 1126 l 1080 1126 q 1091 1131 1087 1131 q 1124 1090 1119 1109 l 1126 1070 l 1126 1065 q 1044 703 1126 1017 q 942 187 1029 639 q 885 -4 908 119 l 877 -5 l 876 3 l 872 3 l 872 3 q 861 -31 872 -2 l 853 -32 l 855 -17 l 848 -20 l 844 -21 l 838 -4 q 827 140 834 29 l 827 146 l 823 146 l 796 53 l 788 52 l 789 79 l 789 82 l 785 81 q 781 58 781 66 l 781 54 l 772 53 l 772 56 q 760 90 770 73 l 762 109 l 760 125 q 414 -87 572 -6 q 223 -242 252 -234 l 204 -245 q 132 -230 134 -243 l 131 -215 q 124 -216 127 -216 q 115 -211 115 -216 q 117 -203 117 -206 l 117 -202 l 117 -202 q 96 -190 111 -202 q 103 -184 103 -189 l 103 -183 l 102 -177 l 98 -172 q 116 -131 113 -170 q 150 -59 150 -73 l 150 -58 l 145 -58 q 125 -50 132 -58 l 132 -39 l 132 -37 q 126 -32 131 -32 l 123 -32 q 127 -7 124 -8 l 123 -2 l 123 1 q 189 155 123 30 q 242 382 230 231 q 421 993 287 610 q 428 1000 422 999 l 435 1001 q 453 988 452 996 l 456 988 l 456 989 q 509 1040 456 1004 l 711 1339 m 568 71 l 568 64 l 571 64 l 571 71 l 568 71 m 0 -145 l 6 -145 l 6 -151 l 0 -151 l 0 -145 m 3 -157 l 9 -157 q 3 -163 9 -163 l 3 -157 z "},"V":{"ha":858,"x_min":-3,"x_max":1028,"o":"m 999 1418 l 1008 1417 q 991 1367 991 1373 l 990 1362 l 994 1361 q 1017 1410 1015 1402 l 1025 1408 q 1025 1399 1025 1404 q 1028 1364 1025 1386 q 844 871 889 937 q 525 272 719 625 q 277 -292 357 -121 q 142 -515 189 -460 l 127 -518 q 115 -511 117 -511 q 104 -519 113 -519 q 99 -519 102 -519 l 86 -511 l 79 -524 l 78 -532 l 69 -531 l 72 -515 l 72 -514 q 63 -508 72 -509 l 58 -507 l 56 -520 l 47 -519 l 25 -425 q -3 77 -3 -132 q 16 360 -3 246 q 13 368 13 361 q 14 382 13 374 q 18 385 15 385 l 19 385 l 17 398 l 26 457 l 24 471 l 28 471 l 25 477 l 26 485 q 35 508 28 494 q 31 517 31 514 l 36 516 l 33 522 q 35 524 33 524 l 37 524 l 33 530 l 35 538 q 42 611 42 583 q 41 631 42 622 q 43 633 41 633 l 45 633 l 45 634 q 43 650 45 637 q 64 881 64 817 q 59 919 64 913 q 74 925 62 919 l 72 939 q 79 1075 79 981 q 78 1125 79 1099 l 83 1124 l 79 1131 q 117 1187 87 1184 l 117 1187 q 121 1184 117 1185 q 133 1192 124 1192 l 136 1192 l 141 1192 l 139 1179 l 159 1183 l 163 1183 l 191 1096 l 224 1093 l 224 1090 l 233 1092 l 238 1090 q 313 1057 271 1069 q 341 987 341 1035 q 338 954 341 972 l 334 954 l 338 948 l 333 922 q 330 920 332 920 l 328 920 l 332 913 l 332 911 q 328 909 331 909 l 326 909 l 330 903 l 330 900 q 326 898 329 898 l 325 898 l 325 897 q 329 895 325 895 l 321 877 l 287 665 q 280 655 286 659 q 285 652 280 652 l 277 633 l 267 570 q 263 568 266 568 l 261 568 q 266 564 261 565 l 259 551 l 254 522 q 251 520 254 520 l 249 520 q 253 517 249 517 q 208 384 209 388 l 209 274 l 214 273 q 446 653 217 294 q 755 1139 591 937 q 912 1347 818 1233 l 916 1346 l 916 1341 l 883 1286 l 883 1283 l 887 1282 l 924 1337 l 934 1335 l 931 1322 l 924 1309 l 925 1309 q 999 1418 940 1309 m 518 1640 l 518 1635 l 515 1635 l 515 1640 l 518 1640 z "},"W":{"ha":1351,"x_min":15,"x_max":1453,"o":"m 460 1247 l 460 1234 l 471 1239 l 474 1239 q 477 1204 477 1205 l 450 1000 l 464 962 q 357 534 464 898 l 357 531 l 361 531 q 481 661 387 582 q 518 702 518 698 q 511 715 511 711 q 532 759 523 715 q 583 778 538 770 q 590 781 583 781 q 593 770 593 776 q 621 789 598 770 l 625 789 l 621 775 l 631 781 l 635 781 l 635 770 q 631 767 635 767 q 635 759 635 762 l 631 745 q 648 696 642 745 l 645 696 l 648 691 l 648 688 q 700 336 700 357 q 1012 726 725 358 l 1299 1084 q 1343 1152 1335 1133 l 1351 1152 l 1351 1149 q 1343 1136 1343 1141 l 1343 1133 l 1347 1133 q 1409 1204 1347 1143 q 1436 1242 1409 1208 l 1443 1242 l 1443 1239 l 1409 1187 l 1409 1185 l 1412 1185 q 1450 1231 1444 1229 l 1453 1231 q 1361 1049 1451 1196 l 1361 1046 l 1364 1046 q 1398 1090 1392 1089 l 1398 1087 q 1375 1041 1398 1081 l 1375 1038 l 1378 1038 q 1405 1082 1405 1080 l 1412 1082 q 1402 1057 1406 1057 q 1405 1055 1402 1055 q 1241 718 1395 1017 q 954 265 1241 712 q 696 -153 799 29 q 662 -177 684 -172 q 614 -196 662 -186 q 604 -193 608 -193 q 573 -229 573 -208 l 570 -229 q 566 -204 566 -227 q 559 -210 559 -205 l 559 -229 l 553 -229 q 511 -182 553 -215 l 508 -169 l 508 -153 q 515 -123 508 -149 q 456 108 477 8 l 429 309 l 426 309 q 203 10 343 164 q 142 -109 142 -48 q 125 -196 125 -168 l 118 -196 q 114 -166 114 -181 l 111 -166 q 107 -196 111 -172 l 100 -196 q 90 -163 100 -193 l 83 -163 l 73 -199 l 66 -199 l 66 -177 l 63 -177 l 60 -196 l 53 -196 q 42 -161 42 -167 l 42 -96 q 28 -85 33 -96 q 18 -77 24 -85 q 22 -68 22 -71 q 15 -63 15 -68 l 45 -1 q 80 211 45 52 l 80 216 l 77 216 q 32 127 52 150 l 32 130 q 50 186 32 134 l 50 189 l 45 189 q 25 135 25 140 l 18 135 q 22 154 18 143 l 18 178 q 203 800 97 544 q 402 1234 361 1158 l 409 1234 l 409 1217 l 412 1217 l 416 1231 l 422 1231 q 433 1198 422 1225 l 436 1198 q 460 1247 452 1247 z "},"X":{"ha":1061,"x_min":-524,"x_max":1195,"o":"m 1025 1334 q 1082 1298 1067 1334 q 1072 1291 1082 1291 l 1063 1294 l 1058 1287 q 1082 1276 1082 1284 l 1082 1272 q 1020 1200 1029 1218 l 1020 1196 q 1114 1240 1089 1240 l 1133 1240 q 1185 1218 1171 1240 l 1185 1211 q 1171 1204 1185 1204 l 1171 1196 q 1195 1185 1195 1196 l 1195 1182 l 1185 1171 q 1190 1139 1185 1158 l 1185 1131 l 1190 1131 q 1171 1102 1190 1122 l 1162 1106 l 1157 1106 l 1157 1102 q 1095 1059 1110 1083 q 987 867 1082 1047 q 991 852 991 861 l 991 848 q 859 656 951 805 q 675 385 813 574 q 878 33 812 157 q 1058 -304 1058 -274 l 1058 -307 l 1015 -271 q 1044 -315 1015 -277 l 1044 -318 l 1034 -318 q 982 -264 1034 -311 q 826 -108 887 -142 q 935 -307 902 -254 q 1015 -470 1001 -418 l 1015 -474 l 1006 -474 q 963 -427 997 -454 q 1001 -485 963 -433 l 996 -485 q 481 149 618 -102 l 477 149 q 217 -123 441 119 q 0 -315 95 -258 q 52 -245 0 -308 l 52 -242 q -19 -307 -14 -307 l -19 -300 q 127 -94 90 -168 l 127 -90 q 14 -205 98 -115 q -189 -391 -72 -309 l -189 -383 l -161 -351 l -161 -347 q -236 -401 -226 -401 q -500 -575 -462 -574 l -505 -575 l -505 -572 q -467 -532 -475 -544 l -524 -572 l -481 -511 q -260 -264 -377 -414 q 99 120 39 39 q 61 92 66 92 l 52 92 q 56 102 52 95 l 56 109 l 47 106 q 274 465 68 148 q 189 584 274 477 q 9 845 28 795 q 24 856 17 856 q 14 878 14 871 q 52 907 29 907 l 47 913 l 52 921 q 94 913 64 921 q 127 950 94 922 l 151 946 l 156 946 q 151 1001 151 983 l 151 1008 q 198 1059 151 1037 l 208 1059 q 217 1048 217 1059 l 231 1048 q 241 1059 231 1059 l 250 1059 q 302 1008 258 1059 q 458 747 441 763 l 463 747 q 873 1251 568 892 q 940 1316 936 1303 l 949 1312 l 949 1316 q 1010 1334 949 1321 l 1025 1334 z "},"Y":{"ha":1140,"x_min":-20,"x_max":1235,"o":"m 1064 1236 l 1080 1226 l 1084 1226 l 1084 1232 l 1088 1232 q 1105 1229 1098 1232 q 1122 1232 1112 1232 l 1122 1229 q 1141 1210 1122 1213 q 1140 1203 1140 1206 q 1142 1187 1140 1196 q 1133 1177 1137 1177 l 1143 1161 q 1112 1093 1143 1156 l 1206 1164 l 1211 1164 l 1211 1161 l 1187 1135 l 1187 1132 l 1218 1155 l 1222 1155 l 1217 1139 l 1216 1135 q 1235 1119 1224 1121 q 1022 840 1147 961 q 784 519 899 690 q 532 -555 736 377 l 523 -384 l 462 -551 l 426 -442 l 494 -219 l 359 -585 l 366 -553 l 366 -552 l 366 -552 q 301 -572 360 -552 l 357 -503 l 392 -316 q 401 -271 401 -280 q 400 -267 401 -267 q 366 -335 395 -267 l 431 -230 l 411 -206 q 418 -177 412 -195 l 418 -174 l 414 -174 l 386 -284 l 341 -384 q 348 -324 348 -351 q 342 -281 348 -299 l 414 98 q 542 523 424 193 q 244 746 366 637 q -20 1012 2 982 l -20 1015 q -7 1025 -20 1020 q -16 1053 -16 1039 l -16 1057 q 18 1099 7 1069 q 39 1106 39 1099 l 36 1112 l 50 1119 q 56 1112 56 1119 l 56 1109 l 73 1109 q 83 1119 75 1119 q 82 1112 82 1115 q 89 1099 82 1099 l 93 1099 q 106 1109 94 1109 l 127 1106 l 128 1116 l 141 1116 l 183 1119 q 202 1106 183 1114 l 211 1109 l 220 1109 q 446 918 242 1109 q 621 682 552 814 l 634 682 q 787 905 753 827 q 842 947 804 930 q 1033 1223 1009 1194 l 1064 1236 z "},"Z":{"ha":1343,"x_min":-193,"x_max":1623,"o":"m 1522 1316 q 1547 1293 1547 1312 l 1547 1290 l 1549 1290 q 1556 1291 1552 1290 l 1568 1286 l 1622 1286 l 1621 1282 q 1603 1275 1620 1275 l 1603 1272 l 1608 1270 l 1623 1271 l 1623 1267 q 1550 1212 1611 1250 q 1468 1126 1547 1179 q 1381 1048 1394 1073 q 1383 1036 1381 1044 q 1320 957 1380 993 q 654 378 1040 707 q 335 71 428 170 l 338 71 q 897 165 667 144 q 1285 183 1002 166 l 1284 176 l 1218 167 l 1218 163 l 1221 163 q 1274 166 1261 166 q 1280 165 1279 166 q 1246 146 1280 161 l 1246 140 l 1266 139 l 1265 132 l 1200 123 l 1199 119 l 1205 118 l 1271 123 l 1270 116 l 1267 116 q 1218 94 1253 116 l 1218 90 q 1293 67 1293 87 q 1276 43 1293 57 q 1139 -26 1208 3 l 1284 -22 q 619 -132 1194 -56 q -123 -282 132 -209 l -143 -278 q -184 -227 -184 -243 l -184 -225 q -193 -202 -184 -218 q -186 -200 -189 -200 l -184 -200 l -186 -182 q -172 -170 -176 -170 l -170 -170 l -172 -151 l -170 -151 q -165 -145 -165 -151 l -165 -142 q -176 -132 -170 -141 l -172 -115 l -174 -107 l -173 -107 q -151 -79 -163 -107 q -66 4 -146 -79 q 745 723 631 654 q 975 908 876 814 l 971 909 q 462 753 672 792 l 178 677 q 170 683 173 682 q -58 658 -1 658 q -79 659 -72 658 l -82 659 l -82 663 q -46 671 -52 671 l -45 671 l -45 674 l -48 675 q -73 673 -64 673 q -81 674 -78 673 q 81 766 -71 696 l 135 800 l 132 800 l -56 761 l -56 768 l -54 768 q -24 784 -45 768 l -31 785 q -57 777 -47 777 l -61 777 q 35 860 -52 793 l 30 861 l 30 868 q 45 876 45 868 l 31 876 l 28 876 q 153 958 41 894 l 154 961 l 148 962 q 68 975 123 967 l 69 981 l 84 982 l 84 986 l 79 987 l 64 986 l 64 990 q 90 1014 64 994 l 83 1015 q 22 1024 32 1022 l 22 1031 l 43 1031 l 43 1034 l 23 1038 l 24 1046 l 25 1046 q 33 1047 28 1046 q 18 1093 18 1081 l 18 1094 l 20 1105 q 34 1139 28 1117 l 35 1139 q 41 1152 40 1139 l 47 1151 l 47 1149 q 55 1135 47 1140 l 57 1135 q 95 1152 69 1135 q 102 1152 99 1152 q 110 1153 106 1152 q 176 1129 146 1135 q 271 1151 254 1139 q 625 1183 385 1179 q 1064 1242 810 1201 q 1501 1314 1392 1276 l 1522 1316 m 1272 -59 l 1276 -60 l 1275 -67 l 1272 -66 l 1272 -59 z "},"[":{"ha":514,"x_min":0,"x_max":0,"o":""},"\\":{"ha":717,"x_min":-59,"x_max":785,"o":"m -26 1470 q -2 1446 -3 1453 l 12 1446 q 25 1434 14 1446 q 85 1301 63 1330 q 96 1303 92 1301 l 102 1301 q 120 1318 110 1301 l 123 1318 l 137 1316 l 137 1318 q 141 1322 137 1321 l 152 1322 q 164 1316 159 1316 l 210 1252 l 212 1252 l 219 1258 l 221 1249 q 239 1240 239 1244 l 238 1234 l 241 1234 q 311 1043 254 1173 q 522 530 418 817 q 785 -188 623 306 q 783 -194 783 -188 q 785 -212 783 -200 l 779 -212 q 761 -179 767 -179 l 779 -224 l 773 -224 q 751 -182 772 -219 l 748 -182 l 751 -194 l 748 -194 q 731 -167 743 -194 l 728 -167 l 729 -170 q 741 -197 736 -191 l 741 -210 l 778 -349 q 779 -382 778 -374 l 774 -382 q 757 -340 772 -375 l 754 -340 l 755 -342 q 773 -391 769 -385 l 768 -391 q 564 36 634 -118 l 561 36 l 562 33 l 587 -22 l 581 -22 q 534 60 536 60 q -15 1276 276 527 q -13 1278 -13 1276 l -13 1279 q -54 1382 -26 1305 l -52 1388 q -56 1392 -55 1388 l -59 1407 l -59 1408 q -57 1410 -59 1410 q -48 1446 -56 1446 q -52 1449 -49 1449 l -52 1450 q -43 1458 -52 1453 q -35 1449 -37 1458 l -33 1449 q -33 1455 -33 1452 q -26 1470 -33 1464 z "},"]":{"ha":514,"x_min":0,"x_max":0,"o":""},"^":{"ha":688,"x_min":0,"x_max":0,"o":""},"_":{"ha":694,"x_min":0,"x_max":0,"o":""},"`":{"ha":694,"x_min":70,"x_max":458,"o":"m 106 1640 q 98 1634 103 1634 q 90 1636 94 1634 q 90 1627 90 1631 q 84 1613 90 1613 q 81 1613 82 1613 q 89 1607 84 1609 q 106 1568 92 1586 q 81 1587 87 1580 q 70 1577 70 1583 q 71 1574 70 1576 l 75 1570 l 86 1558 q 264 1264 142 1285 l 271 1255 l 275 1253 l 284 1259 l 288 1255 q 280 1223 280 1236 q 292 1204 280 1208 q 315 1189 309 1189 q 317 1193 317 1189 q 304 1229 317 1202 q 356 1097 340 1118 l 359 1093 l 370 1089 q 374 1093 374 1090 q 372 1098 374 1095 l 377 1096 q 378 1093 378 1094 q 378 1093 378 1093 q 375 1093 376 1093 q 392 1080 382 1084 l 397 1078 l 417 1103 q 422 1091 421 1098 l 429 1082 q 438 1131 435 1082 q 458 1192 458 1179 q 457 1196 458 1195 q 338 1461 416 1360 l 331 1471 q 235 1557 288 1527 q 196 1595 222 1574 l 182 1600 l 176 1600 q 148 1624 162 1618 l 140 1614 q 106 1640 109 1635 z "},"a":{"ha":906,"x_min":6,"x_max":928,"o":"m 841 1050 q 850 1044 842 1044 q 865 1047 860 1047 q 913 945 913 1016 l 913 937 q 852 433 856 525 q 919 445 911 445 q 890 430 919 441 l 895 430 q 928 436 914 436 q 842 387 917 424 q 833 262 833 293 l 828 262 q 832 260 828 260 q 770 -193 770 -176 l 760 -193 l 760 -188 q 757 -142 760 -172 l 752 -142 l 751 -193 l 741 -193 l 741 -184 q 726 -239 728 -184 l 716 -239 l 713 -202 l 708 -202 l 707 -236 l 697 -236 q 654 -132 675 -203 l 649 -132 l 648 -142 l 640 -142 l 641 -93 l 636 -93 l 630 -130 l 630 -132 l 621 -132 q 602 5 602 -87 q 603 41 602 22 l 593 41 l 593 32 l 584 32 l 589 53 l 591 81 l 586 81 q 575 38 585 74 l 566 38 l 566 46 q 557 81 566 60 q 574 269 572 245 q 301 168 387 175 q 149 14 215 57 l 93 16 l 74 16 l 64 14 q 60 26 60 19 l 51 22 q 6 82 6 61 l 6 92 q 422 667 9 194 q 667 937 449 704 q 755 1010 670 1010 l 760 1004 l 755 998 l 773 998 q 808 1041 774 1025 q 822 1038 817 1038 q 841 1050 822 1042 m 652 907 q 632 873 652 902 l 632 871 l 637 871 q 656 895 637 878 l 657 907 l 652 907 m 628 609 q 449 348 627 590 q 591 385 520 372 l 591 387 l 632 606 l 633 609 l 628 609 z "},"b":{"ha":1026,"x_min":-3,"x_max":1233,"o":"m 1170 1010 l 1177 1010 l 1156 994 l 1160 994 l 1175 1002 l 1182 1002 l 1181 1000 q 1143 954 1161 970 l 1143 951 q 1211 945 1162 951 l 1210 940 l 1183 940 l 1182 935 l 1206 935 l 1205 929 q 1086 894 1166 913 q 882 742 1053 848 l 768 650 l 768 647 q 1190 742 1114 742 l 1200 742 q 1231 720 1231 742 q 1230 715 1231 718 q 1233 711 1233 715 l 1233 709 q 1146 642 1230 694 q 935 487 1108 622 q 351 37 800 359 q 197 -64 197 -60 l 195 -72 l 189 -72 l 189 -66 q -2 -164 20 -164 q 37 -137 -1 -162 l 33 -137 q -3 -153 5 -153 l -3 -151 q 43 -102 -3 -146 q 14 -85 17 -102 q -1 -75 -1 -78 q 14 -66 13 -71 l 14 -64 l 7 -64 l 8 -58 q 37 -31 27 -58 q 75 -4 47 -31 q 73 83 73 43 q 81 208 73 158 q 79 214 79 212 l 79 216 l 82 216 l 82 216 q 79 218 82 218 l 85 235 q 200 661 119 449 l 200 661 q 197 663 200 663 l 227 745 q 186 769 199 749 q 184 777 186 772 q 202 802 193 795 q 195 820 195 817 l 195 821 q 235 861 195 824 q 326 891 238 878 q 368 978 341 941 l 385 975 l 388 975 q 396 986 389 986 l 414 986 q 438 964 418 986 q 456 951 449 951 l 456 950 q 465 937 456 945 q 460 929 460 932 q 469 921 465 929 l 467 907 q 704 924 552 918 l 703 918 q 665 913 699 918 l 664 910 l 674 910 q 1054 954 845 937 l 1170 1010 m 370 603 q 625 730 458 654 l 725 776 q 420 739 598 758 q 370 603 404 713 m 338 414 l 290 199 q 286 197 286 199 l 292 194 q 659 503 433 334 q 682 517 669 503 l 678 517 l 342 422 q 338 414 338 416 z "},"c":{"ha":1211,"x_min":0,"x_max":1204,"o":"m 479 990 l 483 990 l 734 941 q 1011 833 964 882 q 1053 760 1053 780 q 1057 745 1053 751 q 1042 734 1042 740 q 1046 724 1046 728 l 1032 710 l 1025 710 l 1025 718 l 1021 718 l 1021 710 q 1025 661 1025 667 q 990 619 1011 631 l 969 619 q 938 630 951 619 q 924 626 932 626 q 906 637 924 631 q 903 633 903 637 q 749 654 821 654 l 745 654 l 721 651 l 721 654 l 713 651 l 710 651 q 378 567 572 651 q 318 413 318 474 l 318 395 q 347 266 326 266 q 500 238 418 238 q 633 266 511 238 q 1109 420 753 266 q 1168 452 1109 423 l 1172 444 q 1071 395 1076 395 l 1074 389 q 1057 374 1057 379 l 1063 374 l 1183 420 l 1183 416 q 1071 364 1176 408 l 1063 350 l 1067 350 q 1134 378 1112 370 l 1134 374 l 1039 322 l 1046 322 q 1172 374 1093 334 l 1172 371 q 1102 332 1162 357 l 1102 329 l 1105 329 q 1200 360 1185 360 l 1175 339 l 1179 339 q 1204 347 1189 347 q 1053 199 1204 330 q 867 81 1010 157 q 559 3 812 60 l 559 0 l 556 0 q 252 94 435 0 q 126 231 168 166 q 73 371 73 264 q 56 448 56 405 l 56 469 q 168 718 56 603 l 172 718 l 172 721 l 168 721 q 42 651 92 691 q 35 658 42 658 q 3 630 35 652 l 0 637 q 154 777 79 707 q 168 784 163 784 l 164 791 q 241 846 183 815 l 241 850 l 235 850 l 220 843 l 217 850 q 549 948 433 948 q 595 955 549 953 l 595 959 q 479 983 494 983 l 479 990 m 136 613 q 160 627 157 627 l 160 629 l 157 629 q 136 613 137 619 z "},"d":{"ha":894,"x_min":-17,"x_max":1013,"o":"m 326 1000 l 337 1000 l 342 998 l 348 1000 l 382 1000 q 375 991 382 991 q 404 972 389 991 l 404 964 q 408 949 404 949 l 408 949 q 414 945 409 949 q 427 925 414 925 q 421 928 423 928 q 417 915 417 928 q 414 939 414 915 q 417 938 417 939 q 513 943 491 943 q 758 924 646 928 q 846 932 770 926 l 846 935 l 832 930 l 839 930 q 859 928 859 930 q 828 930 828 928 q 945 916 868 930 l 996 940 l 996 911 l 1002 918 l 957 918 q 1003 935 961 918 l 1003 907 l 1002 903 q 1013 888 1013 900 l 1013 872 l 1000 872 l 1000 897 l 1013 897 l 1013 881 q 964 855 1013 868 l 964 865 q 977 836 977 862 l 964 836 l 964 859 l 984 857 l 984 843 q 945 824 984 825 l 945 847 l 958 847 l 958 817 q 876 755 922 817 q 647 427 779 535 q 322 168 469 286 q 171 86 171 112 q 132 37 154 55 l 100 37 l 108 62 l 108 52 l 136 52 q 112 39 132 39 l 94 39 l 92 54 l 104 54 q 24 -14 93 53 l -4 -14 l -4 3 l -5 -1 q 21 -10 21 -1 l 21 -12 l -17 -12 l -17 12 q -7 56 -17 24 q -16 67 -7 67 q 90 488 28 326 q 197 760 189 728 q 195 777 195 760 l 195 781 q 185 796 195 796 l 191 789 q 227 842 191 803 q 300 994 273 994 q 301 994 300 994 q 326 1000 306 994 m 589 764 q 569 763 569 764 l 574 764 q 420 762 555 764 q 411 758 411 762 q 297 430 336 581 q 675 786 505 530 l 675 769 l 589 764 z "},"e":{"ha":966,"x_min":-55,"x_max":1133,"o":"m 444 1025 q 524 1004 482 1025 q 818 1023 698 1020 q 1126 1015 1004 1015 l 1127 1010 l 1084 1007 l 1084 1004 l 1133 1004 q 1041 976 1122 992 q 930 949 995 960 l 931 947 l 1079 939 l 1080 934 l 1044 934 q 1037 929 1037 933 l 1037 928 l 1081 928 l 1082 923 q 724 868 1023 905 q 583 866 641 866 l 574 863 q 555 866 566 866 l 515 866 q 489 821 507 861 q 521 795 490 818 q 508 792 513 792 l 509 790 l 524 779 q 469 607 469 616 l 469 606 l 535 612 l 536 609 q 614 614 557 614 l 637 614 q 864 591 663 614 l 868 591 l 869 585 q 843 583 866 585 l 844 581 l 875 581 l 876 575 q 749 538 779 555 q 638 517 699 530 l 639 515 l 648 515 l 648 512 q 425 447 510 447 q 327 138 393 272 l 328 133 q 460 140 398 140 q 745 136 702 136 l 785 136 l 787 130 q 743 127 781 130 l 743 125 l 779 125 l 779 122 l 779 121 q 767 117 779 117 l 767 115 l 795 112 l 795 106 l 791 106 q 747 104 785 106 l 747 101 q 873 98 813 101 l 873 94 q 830 91 836 91 l 830 88 l 875 88 l 876 83 q 644 41 815 68 q 444 -6 635 34 q 125 -56 395 -30 q 87 -68 87 -56 l 87 -69 q 77 -79 83 -79 l 72 -79 l 69 -66 l 65 -66 l 63 -79 l 54 -79 q 35 -51 37 -58 l 31 -33 l 21 -24 l 20 -22 l 24 -16 q -39 9 -10 -16 q -54 18 -45 9 l -55 23 l -55 26 q -20 67 -55 40 q 35 104 0 95 q 121 454 81 258 q 302 889 202 675 l 298 889 q 269 900 270 895 l 271 913 q 251 921 253 913 l 251 924 q 263 949 251 935 q 257 960 258 954 l 270 960 l 264 965 l 264 970 q 391 1002 296 1002 q 431 1023 403 1023 q 436 1020 431 1020 q 444 1025 436 1025 m 235 151 l 235 150 q 222 125 235 142 l 236 125 q 244 130 244 125 l 244 130 l 239 151 l 235 151 z "},"f":{"ha":928,"x_min":0,"x_max":1065,"o":"m 633 1015 q 637 1011 637 1015 q 648 1015 641 1011 q 1065 965 719 1015 l 1065 958 l 1012 958 l 1012 954 q 1061 944 1061 952 q 941 922 1009 922 l 941 919 q 955 912 955 919 q 924 909 953 909 q 930 901 924 901 l 959 901 l 959 895 q 513 795 907 873 q 471 665 513 787 q 608 678 556 678 q 814 661 722 661 l 814 654 l 779 646 l 779 643 l 793 643 l 817 646 l 817 640 q 623 569 782 623 l 623 565 l 732 555 l 732 547 l 711 547 l 711 544 l 736 544 l 736 537 q 686 515 699 515 l 690 509 l 690 505 q 460 434 619 488 q 386 410 386 422 q 198 -43 309 179 l 120 -220 l 113 -220 q 131 -160 131 -167 l 131 -157 l 127 -157 l 106 -216 l 99 -216 q 106 -184 102 -193 q 102 -171 102 -178 q 117 -100 102 -161 l 117 -96 l 113 -96 l 18 -309 l 11 -309 l 28 -252 l 28 -248 l 25 -248 q 7 -298 7 -291 l 0 -298 l 0 -280 q 3 -277 0 -277 l 0 -270 l 0 -262 q 28 -125 0 -248 q 25 -96 25 -105 q 163 562 81 298 q 223 760 184 617 l 187 760 q 124 781 124 764 l 124 785 l 127 791 q 106 823 116 791 q 120 827 113 827 l 117 845 q 170 880 161 880 l 166 887 l 166 901 q 170 905 166 905 l 166 912 l 166 919 q 212 965 183 949 q 481 1008 245 983 l 481 1004 q 485 1008 485 1004 l 633 1015 m 26 -116 l 26 -123 l 28 -123 l 28 -116 l 26 -116 z "},"g":{"ha":961,"x_min":0,"x_max":984,"o":"m 812 1065 l 812 1061 q 770 1045 808 1061 l 770 1043 l 774 1043 q 819 1057 810 1057 q 703 974 819 1051 l 706 974 q 944 1034 764 1001 l 944 1032 q 911 1021 944 1028 l 911 1019 l 915 1019 q 947 1025 945 1025 l 947 1023 q 828 954 937 1013 l 828 949 l 918 949 l 918 945 l 899 943 l 899 941 l 905 941 l 922 943 l 922 939 q 825 894 849 908 q 735 858 825 886 q 504 753 625 815 q 324 604 458 753 q 328 597 328 600 q 321 591 321 597 l 328 582 q 244 452 311 551 q 180 298 180 338 q 183 281 183 286 q 176 277 176 280 l 183 270 l 183 265 q 163 210 170 265 q 167 161 167 176 q 170 158 170 161 q 420 274 198 158 q 536 330 467 302 q 618 413 557 349 q 398 376 549 391 q 283 352 325 352 q 231 368 252 352 q 235 376 235 372 q 218 395 231 376 q 241 412 224 395 q 273 426 264 418 q 568 537 345 444 q 815 635 711 572 q 911 686 836 644 l 934 689 q 937 677 937 685 l 944 677 l 944 682 l 950 682 q 966 667 950 672 q 976 658 966 663 q 960 631 968 650 l 963 622 q 984 541 963 618 q 913 330 954 422 q 781 208 837 259 q 574 84 726 157 q 365 20 491 45 q 196 2 279 2 q 189 0 196 0 q 48 71 115 0 l 19 94 l 26 100 q 13 107 13 100 q 16 109 13 109 l 13 114 l 16 134 q 0 214 0 185 l 0 254 q 5 396 0 275 q 313 965 146 850 q 633 1053 461 1029 q 812 1065 791 1065 z "},"h":{"ha":864,"x_min":-2,"x_max":855,"o":"m 440 1145 q 498 1069 496 1124 q 501 1067 501 1069 l 502 1040 l 502 1040 q 347 492 502 984 l 350 492 q 473 505 441 505 l 494 505 q 589 920 559 718 l 589 920 q 623 960 589 945 q 633 952 623 956 q 664 996 664 966 l 664 998 q 684 1021 673 1021 l 702 1021 q 720 1032 703 1027 q 723 1024 723 1027 l 741 1027 q 781 960 780 999 q 791 976 785 960 l 808 973 q 815 979 809 979 q 819 976 815 976 l 816 963 l 816 960 l 819 960 l 837 963 q 851 947 851 949 q 848 944 851 944 q 855 918 855 921 l 855 917 q 757 486 855 879 q 646 152 726 323 l 600 23 l 593 23 l 602 68 l 602 71 l 598 71 l 585 28 l 578 28 q 582 31 578 31 q 574 66 578 37 l 577 66 l 574 71 l 594 259 l 594 264 l 590 264 q 489 -38 562 146 q 476 -89 476 -81 l 469 -89 l 469 -71 l 471 -54 l 471 -52 l 468 -52 q 462 -84 462 -73 l 455 -84 q 444 -41 444 -56 l 443 -31 q 446 7 443 -16 l 446 10 l 442 10 l 402 -84 l 395 -84 l 412 -28 l 412 -25 l 408 -25 q 385 -76 391 -76 l 381 -76 l 384 -57 l 384 -36 l 439 304 l 435 304 q 279 251 314 269 q 134 -164 279 238 l 127 -164 l 127 -161 q 134 -121 127 -155 l 134 -119 l 130 -119 q 113 -161 121 -161 q 106 -124 106 -130 l 106 -121 q 111 -43 106 -106 l 104 -46 l 92 -12 q 104 109 95 41 l 104 112 l 100 112 q 20 -62 60 21 l 13 -62 l 26 -17 l 26 -14 l 22 -14 q 6 -60 6 -54 l -1 -60 l -2 -28 l -2 -27 q 73 353 -2 1 q 308 1107 170 699 q 339 1126 320 1126 q 349 1123 346 1123 q 370 1131 353 1131 q 374 1126 370 1126 l 388 1131 q 406 1128 393 1128 q 401 1137 401 1134 q 440 1145 415 1145 z "},"i":{"ha":448,"x_min":18,"x_max":498,"o":"m 424 1156 q 434 1147 434 1152 q 437 1150 437 1147 q 458 1147 452 1147 l 464 1150 q 475 1135 475 1150 l 475 1131 l 481 1133 l 484 1133 q 498 1106 498 1130 l 498 1099 q 424 940 490 1007 q 376 915 395 931 l 373 920 l 368 918 q 340 943 353 943 q 294 912 298 912 l 294 915 q 298 923 297 920 q 292 915 292 923 l 286 915 l 285 929 q 287 997 287 955 l 287 1019 q 328 1114 318 1104 q 340 1131 338 1114 l 346 1133 l 345 1125 l 353 1125 q 359 1133 359 1125 l 365 1133 q 372 1122 365 1122 q 385 1144 382 1122 l 395 1144 q 408 1133 407 1133 l 411 1133 l 411 1136 l 410 1150 q 424 1156 419 1156 m 256 850 l 264 850 q 292 833 280 833 q 332 847 305 847 l 334 847 l 334 845 q 342 836 334 836 q 347 841 342 841 q 347 833 347 836 q 349 827 347 827 l 363 830 l 363 829 q 376 821 363 823 l 378 827 q 395 821 395 825 l 406 827 q 408 825 406 825 l 405 819 l 418 808 q 406 793 412 806 q 419 760 419 793 q 209 4 414 703 l 95 -279 l 90 -279 l 90 -276 l 95 -251 l 95 -248 l 92 -248 q 84 -276 85 -265 l 79 -276 q 76 -250 76 -258 l 76 -248 l 80 -203 q 71 -132 71 -170 q 73 -102 71 -118 l 81 4 l 81 5 q 77 9 81 9 l 34 -105 l 28 -105 q 41 -58 29 -100 l 41 -55 l 39 -55 l 24 -97 l 18 -97 q 20 -55 19 -90 q 155 564 91 359 q 221 827 185 659 q 250 847 238 827 l 256 850 z "},"j":{"ha":627,"x_min":-273,"x_max":722,"o":"m 511 958 l 517 958 q 603 953 596 953 l 641 953 l 640 949 q 614 944 635 949 l 614 942 l 617 942 q 661 946 642 946 q 722 924 722 937 l 722 924 q 696 901 722 920 l 696 899 q 716 888 706 899 l 715 886 q 705 874 706 878 l 711 863 l 711 861 q 708 859 711 859 q 711 856 708 856 q 675 701 691 791 l 633 464 q 631 462 633 462 l 631 461 q 633 459 631 459 q 479 26 606 302 q 313 -224 401 -116 q 98 -427 230 -319 q -79 -524 -18 -505 q -198 -569 -176 -569 l -197 -564 q -174 -553 -188 -564 l -176 -553 q -202 -560 -195 -560 q -86 -472 -201 -555 l -89 -472 l -254 -560 l -256 -560 q -264 -555 -262 -555 q -272 -557 -269 -557 q -273 -552 -273 -554 l -273 -551 l -159 -443 l 45 -235 q 296 96 191 -69 q 389 333 366 205 q 486 658 473 587 l 488 658 q 464 733 464 722 l 464 734 l 467 748 q 469 750 467 750 l 466 759 q 358 748 465 755 q 290 775 298 748 q 256 789 273 775 l 257 793 q 264 798 259 798 q 254 818 262 806 q 270 833 267 825 q 283 845 273 833 l 283 847 l 279 854 l 279 859 q 349 895 313 895 l 349 897 l 347 901 l 358 906 l 357 910 l 357 917 q 436 946 396 946 q 511 958 474 958 z "},"k":{"ha":916,"x_min":5,"x_max":1059,"o":"m 1021 1040 q 1025 1034 1025 1036 l 1025 1033 l 1034 1035 l 1041 1019 q 917 879 1022 962 q 1046 950 1040 950 l 1046 947 l 1018 922 l 1022 922 q 1050 943 1050 939 l 1059 943 q 920 782 1057 922 q 546 496 832 691 q 454 416 455 422 q 562 156 484 380 q 623 -94 591 102 q 649 -180 644 -145 l 641 -180 l 637 -168 l 633 -168 l 632 -178 q 557 -97 607 -172 q 430 55 534 -83 q 258 288 303 197 l 250 288 q 191 189 198 257 l 80 -125 q 73 -148 75 -125 l 68 -148 q 61 -136 61 -148 q 62 -129 61 -132 l 58 -129 l 51 -150 q 5 39 7 -142 q 26 200 11 94 l 36 536 q 188 989 51 678 q 260 1017 205 1017 l 273 1017 q 277 1012 273 1012 q 291 1015 286 1015 l 322 982 l 321 970 l 338 968 l 338 973 l 331 980 l 331 985 l 363 996 l 367 996 q 449 985 379 991 q 478 935 478 946 l 478 934 l 329 587 q 576 791 395 632 l 798 994 q 825 1000 810 994 q 833 994 833 1000 l 833 991 l 850 991 q 865 1000 854 1000 l 869 1000 l 882 996 q 999 1035 948 1021 q 1021 1040 1014 1040 z "},"l":{"ha":525,"x_min":109,"x_max":661,"o":"m 604 1175 l 607 1175 l 616 1168 l 631 1171 l 630 1168 l 636 1171 l 642 1171 q 661 1129 661 1145 q 661 1123 661 1126 q 411 396 504 729 l 335 125 q 227 -138 288 -45 l 221 -138 l 225 -123 l 222 -123 l 216 -138 l 210 -138 q 203 -117 203 -130 q 204 -109 203 -113 l 208 -98 l 205 -98 l 199 -117 l 194 -117 l 196 -90 l 191 -90 q 174 -140 178 -127 l 169 -140 l 173 -115 l 170 -115 l 163 -142 l 157 -142 l 159 -138 l 156 -138 l 132 -222 l 127 -222 q 132 -182 128 -217 l 130 -182 l 125 -197 q 121 -224 121 -222 l 115 -224 q 109 -148 109 -179 q 113 -104 109 -121 q 149 185 119 78 l 148 193 l 151 193 l 149 197 l 159 234 q 160 237 160 236 q 159 242 160 240 l 163 246 q 186 376 179 352 l 194 407 q 195 411 195 409 q 194 415 195 413 q 199 423 197 418 l 210 464 q 212 470 212 467 q 210 474 212 473 l 216 487 l 222 505 q 222 509 222 508 q 221 511 222 511 l 226 519 q 439 1059 290 749 l 446 1061 l 451 1061 l 458 1057 l 463 1057 q 504 1135 477 1076 q 546 1158 543 1158 l 554 1158 l 559 1156 l 571 1160 q 578 1158 575 1158 q 604 1175 588 1169 z "},"m":{"ha":1026,"x_min":64,"x_max":1206,"o":"m 962 1010 q 968 1004 968 1010 l 968 1002 l 977 1005 l 989 1005 q 1152 998 1067 998 q 1206 999 1179 998 q 959 64 1080 615 l 891 -258 l 884 -258 l 884 -256 q 888 -215 885 -251 l 881 -215 l 880 -235 l 876 -258 l 868 -258 q 850 -158 853 -217 q 830 -68 830 -88 q 831 -63 830 -65 q 820 -18 820 -45 q 825 21 820 -1 l 821 21 l 808 -37 l 801 -37 q 787 -26 798 -26 q 652 -135 755 -26 q 793 467 766 340 l 789 467 q 648 188 682 240 q 621 170 645 188 l 602 173 q 589 165 602 169 q 582 169 582 165 l 582 170 l 574 168 l 566 170 q 545 159 565 165 l 534 165 l 530 165 l 523 150 l 519 130 q 510 124 517 124 l 506 124 l 509 159 l 505 159 l 497 121 l 490 121 q 450 363 473 152 q 449 391 449 384 l 449 395 l 445 395 l 309 81 q 245 38 252 75 q 203 6 241 20 l 203 7 q 196 12 203 12 q 163 1 170 1 q 121 24 127 24 l 104 18 q 96 35 102 35 q 82 26 94 31 l 82 27 q 64 52 82 35 l 64 55 q 77 61 66 61 l 78 64 q 65 78 68 78 q 109 193 85 149 l 109 194 q 106 196 109 196 q 323 614 228 477 q 489 939 420 854 q 519 973 510 973 q 522 965 522 969 q 522 962 522 964 l 525 962 l 528 973 l 532 973 q 549 962 547 962 l 568 962 l 568 959 l 572 959 l 585 964 q 642 872 642 946 q 635 815 642 847 q 613 528 613 585 l 613 522 l 616 522 q 886 947 806 862 q 940 996 909 996 q 962 1010 959 1010 z "},"n":{"ha":827,"x_min":19,"x_max":831,"o":"m 805 1026 l 813 1026 l 808 999 l 812 999 l 819 1013 l 820 1021 l 828 1021 q 831 1000 831 1021 q 806 733 831 943 q 728 334 786 621 l 724 334 l 727 329 q 723 326 727 326 l 723 326 q 726 323 723 323 q 712 264 715 283 l 710 253 q 704 242 709 247 l 704 241 q 707 239 704 239 q 694 185 697 203 l 680 104 l 673 87 l 676 82 q 636 -7 673 62 l 649 -73 q 629 -45 636 -66 l 625 -45 l 625 -51 q 633 -72 633 -63 q 632 -75 633 -74 q 596 -51 607 -55 l 589 -51 l 554 -62 q 464 20 479 -62 q 463 41 463 31 q 466 77 463 61 l 475 134 l 360 394 l 356 394 q 349 378 354 382 l 349 377 q 353 375 349 375 q 348 370 352 370 q 325 261 332 301 l 308 166 q 300 142 307 157 l 300 141 q 303 139 300 139 l 297 125 l 296 117 q 240 6 276 6 q 215 3 237 6 l 212 9 l 203 6 q 178 25 201 6 l 174 20 l 184 9 q 146 -26 173 7 l 115 -37 l 83 -37 q 19 26 19 -22 q 20 41 19 33 l 33 115 q 38 117 34 117 q 34 120 38 120 q 293 861 249 749 q 298 869 296 861 q 290 928 290 884 l 290 934 q 313 950 298 934 q 329 953 328 950 l 328 966 q 353 1002 340 966 l 361 1002 l 360 994 l 368 994 l 369 999 l 373 999 l 413 972 l 415 985 l 423 985 q 424 972 424 978 q 423 961 424 966 l 427 961 q 439 985 431 985 q 458 836 456 972 q 549 459 542 511 l 553 459 l 559 473 l 597 619 l 601 619 l 601 620 q 597 622 601 622 q 666 855 628 704 l 674 855 q 694 923 676 865 l 703 923 l 701 912 l 700 885 l 704 885 l 709 912 q 718 918 711 918 l 722 918 q 726 871 726 895 q 724 836 726 854 l 728 836 q 805 1026 747 880 z "},"o":{"ha":918,"x_min":0,"x_max":873,"o":"m 551 1009 l 589 1009 q 761 882 682 1009 q 807 781 779 867 q 859 659 835 760 l 863 659 l 859 654 q 863 651 859 651 l 859 646 l 859 613 q 852 505 859 569 l 873 434 q 733 149 873 333 l 652 81 l 646 84 q 456 3 497 3 l 456 8 l 473 11 l 473 14 l 470 14 q 354 0 410 0 q 60 198 177 0 l 56 198 l 56 174 l 49 174 q 42 212 49 180 l 39 212 l 39 179 l 32 179 q 0 377 0 224 l 0 385 q 105 768 0 547 q 344 958 199 916 q 551 1009 506 1009 m 222 328 l 215 328 l 215 330 q 212 357 212 352 l 209 357 l 209 328 q 231 288 209 319 q 301 219 231 264 q 359 214 333 214 l 361 214 q 610 318 501 214 q 674 525 674 387 l 674 559 q 677 572 674 568 l 674 587 l 674 646 q 597 739 648 715 q 505 762 541 762 q 317 690 448 762 q 276 609 276 672 q 222 328 222 377 m 867 651 l 873 651 l 873 646 l 867 646 l 867 651 m 39 220 l 39 214 l 42 214 l 42 220 l 39 220 z "},"p":{"ha":1102,"x_min":73,"x_max":1108,"o":"m 608 1061 q 1038 995 782 1061 q 1105 926 1088 975 q 1108 914 1108 922 q 1107 909 1108 911 l 1105 883 q 1000 747 1102 841 q 736 488 951 654 q 397 293 524 340 l 397 286 q 175 -267 385 150 l 175 -271 l 166 -271 q 179 -224 168 -258 l 179 -221 l 175 -221 l 158 -267 l 150 -267 q 145 -218 145 -222 l 151 -201 l 142 -201 l 142 -212 l 134 -212 q 145 -168 144 -177 l 146 -165 l 142 -165 q 130 -201 131 -193 l 121 -201 l 123 -185 q 109 -205 115 -185 l 100 -205 l 103 -165 l 99 -165 l 92 -198 l 92 -201 l 83 -201 q 73 -109 73 -184 q 84 109 73 -31 q 125 382 97 255 l 125 382 q 121 385 125 385 q 136 458 132 413 l 140 458 l 140 458 q 136 461 140 461 l 237 899 q 229 905 229 899 l 229 906 l 230 909 l 235 916 l 101 945 l 102 952 l 123 952 l 123 956 q 99 965 101 956 q 237 988 132 975 q 277 1015 268 1000 l 277 1018 q 256 1021 271 1021 l 257 1027 l 278 1027 l 278 1031 q 262 1037 262 1031 l 262 1038 q 608 1061 263 1048 m 583 819 q 512 821 568 821 q 463 559 509 791 l 466 559 l 726 683 q 865 816 863 794 l 865 819 q 772 831 815 831 q 583 819 720 831 z "},"q":{"ha":936,"x_min":30,"x_max":934,"o":"m 453 958 l 460 956 q 464 958 464 956 q 747 877 589 958 q 916 676 871 800 q 930 595 926 633 l 926 595 l 930 589 q 920 475 930 557 q 934 440 930 475 q 719 74 934 310 q 683 47 716 74 q 704 -21 696 -18 l 719 -21 l 719 -26 l 701 -26 l 701 -32 l 715 -32 l 715 -35 l 701 -48 q 747 -344 747 -329 l 740 -344 q 726 -287 740 -335 l 722 -287 l 722 -290 l 733 -347 l 726 -347 q 669 -224 699 -307 q 661 -203 661 -207 l 658 -203 l 658 -208 q 708 -428 672 -292 l 701 -428 q 683 -382 683 -386 l 679 -382 l 679 -387 q 690 -428 690 -421 q 543 -176 655 -410 q 489 -62 532 -160 q 288 6 366 -43 q 144 136 173 87 q 30 418 30 273 l 33 418 q 30 421 33 421 q 199 801 30 593 q 270 869 270 860 q 274 880 270 880 l 270 885 q 381 950 270 923 q 453 958 416 956 m 295 728 q 306 720 300 728 q 295 717 299 717 l 299 711 l 299 709 q 267 676 287 700 l 270 671 q 231 486 245 643 l 231 481 q 421 207 231 292 q 425 210 421 210 q 353 467 392 338 q 360 473 360 467 l 378 470 l 385 470 l 378 478 q 389 494 380 494 l 403 492 q 421 497 414 497 q 435 489 421 494 q 460 508 441 489 q 475 513 475 508 q 525 494 525 505 q 618 267 557 473 l 622 267 q 686 549 686 420 q 564 760 686 694 q 428 795 448 795 q 295 728 378 789 m 363 90 q 431 58 409 58 l 456 58 l 456 60 q 446 85 454 85 l 435 85 q 363 90 414 85 z "},"r":{"ha":1042,"x_min":20,"x_max":1206,"o":"m 259 1175 q 307 1166 278 1172 l 347 1158 q 358 1157 353 1157 q 366 1158 362 1157 l 374 1154 q 382 1154 379 1154 q 389 1154 386 1154 l 387 1151 l 471 1143 q 1189 869 939 1055 q 1206 804 1206 829 q 1205 791 1206 797 q 1048 669 1182 705 q 719 543 1004 614 l 977 216 q 1156 -159 1102 77 q 1152 -163 1155 -163 q 985 85 1130 -163 l 1169 -286 l 1083 -219 q 1088 -233 1088 -228 l 1088 -235 l 1075 -232 q 722 107 1045 -218 q 460 468 602 254 l 456 469 q 244 -92 367 146 q 162 -284 222 -136 l 153 -282 l 172 -215 l 168 -214 l 154 -246 l 146 -272 l 142 -271 q 88 -134 106 -264 q 123 -26 89 -75 l 146 18 q 142 57 145 57 q 140 52 141 57 l 140 56 q 51 -175 134 56 q 82 -31 82 -45 l 82 -29 q 80 -32 81 -29 l 58 14 q 165 311 163 302 l 169 325 l 164 326 q 78 81 129 212 l 46 22 q 25 4 31 4 q 20 13 20 4 q 127 309 20 56 q 195 628 159 425 q 235 736 217 705 l 235 737 q 231 739 235 739 q 335 1013 292 857 q 152 1136 252 1038 l 259 1175 m 666 929 l 666 928 q 703 921 701 922 l 703 918 q 650 920 701 918 l 602 924 l 595 924 l 595 916 q 595 903 595 908 l 555 779 q 552 778 552 779 l 555 777 q 782 812 746 793 q 909 859 906 842 l 910 863 q 673 928 819 902 l 666 929 z "},"s":{"ha":873,"x_min":0,"x_max":928,"o":"m 928 1000 l 928 993 l 895 983 l 895 979 l 905 979 q 928 986 918 986 l 928 979 q 780 871 904 956 l 736 832 q 739 829 739 832 q 713 818 720 818 l 713 814 l 716 814 q 743 818 734 818 q 534 643 703 772 q 442 578 485 613 q 736 489 502 578 q 817 431 817 460 q 824 421 821 431 q 821 410 821 414 q 827 403 827 409 l 827 399 q 817 389 827 397 q 824 368 824 377 l 810 360 l 814 353 l 814 349 q 618 178 743 262 q 331 13 498 94 q 176 -76 300 -14 q 10 -165 26 -165 q 44 -140 10 -158 l 44 -137 l 41 -137 q 3 -159 16 -149 l 0 -159 l 0 -155 q 125 -26 0 -140 l 121 -26 q 44 -55 56 -55 q 81 -30 45 -46 l 81 -26 l 78 -26 q 41 -41 51 -41 l 37 -41 q 199 110 65 -3 q 442 332 248 163 l 500 396 l 500 399 l 496 399 q 317 428 353 428 q 227 425 270 425 q 111 460 130 425 q 81 481 104 460 q 75 475 81 475 q 68 489 68 484 l 64 489 l 64 486 q 68 471 68 479 l 64 471 q 31 528 31 492 q 260 804 31 677 q 635 968 543 968 l 645 968 q 723 961 665 968 q 928 1000 819 975 z "},"t":{"ha":1053,"x_min":0,"x_max":1152,"o":"m 623 1183 q 682 1113 664 1183 q 675 1068 675 1088 q 734 998 734 1044 l 734 995 q 731 970 731 977 l 911 983 l 911 976 l 851 966 l 851 963 l 855 963 l 916 970 l 916 963 q 887 954 911 963 l 887 947 q 1124 963 956 947 l 1124 954 l 1152 954 l 1152 951 q 1016 900 1152 937 q 968 884 981 884 l 968 880 l 976 880 q 1056 887 983 880 l 1056 880 l 1004 871 l 1004 868 l 1008 868 l 1056 874 l 1056 868 q 715 747 1004 834 q 659 718 659 739 q 458 120 526 262 q 345 -125 422 52 l 337 -125 q 341 -112 337 -117 l 341 -109 l 337 -109 l 333 -125 l 326 -125 l 321 -102 l 321 -58 q 317 -61 317 -58 q 277 -55 287 -58 q 189 -204 211 -178 l 189 -198 q 205 -153 205 -157 l 205 -150 l 201 -150 q 180 -198 180 -194 l 173 -198 l 173 -163 q 345 486 257 238 q 401 686 374 596 q 397 690 397 686 l 378 686 l 285 686 q 104 658 268 686 l 73 658 q 40 677 52 677 l 40 684 l 44 690 l 20 715 q 0 744 0 715 l 4 744 q 16 750 16 744 l 12 769 q 48 791 12 779 q 88 810 48 807 q 125 820 88 816 q 113 842 125 828 q 132 855 113 846 l 128 861 q 169 890 133 880 q 293 916 169 900 q 478 954 468 947 q 518 1059 478 1053 q 566 1177 552 1173 q 594 1173 583 1173 q 623 1183 594 1183 z "},"u":{"ha":829,"x_min":27,"x_max":837,"o":"m 773 1036 l 781 1036 q 795 1023 787 1036 l 803 1026 q 837 968 821 1026 q 676 349 686 499 q 609 102 642 170 q 567 -17 597 83 l 559 -17 l 562 12 l 557 12 l 553 -4 l 551 -17 l 544 -17 l 534 12 l 531 12 q 513 -75 516 -33 l 506 -75 q 504 -47 504 -60 q 505 -36 504 -41 l 500 -36 q 496 -43 500 -43 q 500 -45 496 -45 l 495 -62 q 498 -71 498 -68 l 491 -71 q 469 33 469 -46 q 471 86 469 57 l 467 86 l 467 73 l 459 73 l 460 98 l 457 98 l 451 66 l 444 66 q 433 137 434 96 q 212 15 302 15 l 208 15 q 27 262 41 15 l 31 311 l 31 313 q 28 323 31 319 l 32 330 l 29 346 q 34 355 34 352 q 31 359 34 359 l 42 422 l 39 429 q 143 827 85 654 q 205 949 186 949 l 212 949 q 216 946 216 949 q 251 956 238 950 q 262 952 258 952 l 281 962 q 289 956 282 956 q 300 958 296 958 q 349 939 300 949 l 347 923 q 361 910 353 923 l 361 898 l 357 891 q 363 886 363 890 l 363 885 q 351 875 358 885 l 351 865 q 281 513 285 572 l 277 471 q 277 421 277 444 q 309 269 277 290 q 442 381 441 361 l 443 387 q 467 522 458 522 l 467 523 q 464 526 467 526 q 494 631 491 626 q 490 635 494 635 q 612 1004 579 962 l 627 1004 l 637 997 l 645 997 q 661 1013 646 1013 q 705 987 680 1013 q 731 1029 707 1004 l 735 1029 l 749 1019 l 761 1019 q 773 1036 763 1036 m 173 224 l 172 214 l 175 198 l 179 198 q 183 208 180 208 q 177 222 177 218 l 177 224 l 173 224 m 191 157 l 191 153 q 198 146 191 146 l 199 157 l 191 157 m 201 144 l 201 140 q 227 124 203 131 l 227 131 l 201 144 z "},"v":{"ha":764,"x_min":0,"x_max":690,"o":"m 618 1105 l 627 1105 l 618 1074 l 618 1072 l 623 1072 l 635 1101 l 644 1101 q 652 1061 652 1069 q 627 900 652 1046 l 627 897 l 631 897 q 661 951 631 902 l 669 951 q 652 910 656 916 l 652 907 l 656 907 q 677 949 677 944 l 686 949 l 686 937 q 690 924 686 928 q 564 519 618 654 q 347 164 435 241 q 247 7 291 7 l 205 0 q 125 39 151 0 l 121 52 l 130 54 q 121 81 121 77 q 130 85 130 81 l 130 88 q 121 93 130 93 q 134 146 121 98 q 125 252 134 167 q 117 247 117 251 q 109 174 117 226 l 100 174 q 96 210 100 186 l 92 210 l 92 174 l 83 174 q 8 408 58 198 q 4 487 4 446 l 4 565 q 0 574 4 570 q 4 582 4 579 q 12 758 12 723 l 17 758 q 12 761 17 761 l 17 770 q 58 900 17 900 l 71 900 l 71 892 q 92 917 85 892 l 87 929 q 104 964 87 964 l 109 964 l 117 961 l 117 964 l 113 968 l 121 971 q 125 964 125 966 l 130 964 q 176 983 146 983 l 180 983 l 193 978 q 205 981 200 981 q 234 966 205 966 q 238 968 234 968 l 288 929 q 292 910 288 919 l 288 910 l 292 905 l 292 648 q 297 574 292 624 l 292 574 l 297 570 l 297 541 q 301 499 297 528 l 305 499 q 585 1040 464 846 l 618 1105 z "},"w":{"ha":1008,"x_min":0,"x_max":966,"o":"m 934 1180 l 942 1180 q 934 1136 938 1141 l 934 1133 l 938 1133 q 950 1177 950 1166 l 958 1177 q 966 1119 958 1173 q 794 266 966 771 q 687 -26 727 35 q 671 -33 677 -26 l 675 -40 l 675 -64 l 667 -64 q 654 -33 664 -33 l 654 -40 l 659 -64 l 650 -64 q 584 -9 650 -44 l 584 -6 l 559 -6 q 535 1 548 -6 l 539 7 l 539 11 l 530 7 l 526 7 q 465 130 465 111 l 460 130 l 460 106 l 452 106 q 370 266 428 140 l 362 269 q 193 41 334 189 q 127 -77 173 41 q 103 -94 110 -77 l 99 -94 l 90 -91 l 66 -94 q 0 -23 0 -71 q 37 79 0 7 q 8 433 8 329 l 8 450 q 66 976 26 976 l 70 983 l 66 1000 q 95 1027 83 1002 q 140 1038 126 1038 l 148 1034 q 165 1038 155 1038 l 193 1020 q 214 986 193 1013 q 227 867 227 928 l 227 728 q 222 487 227 643 l 222 484 l 227 484 q 313 633 255 555 q 296 749 296 719 l 333 779 q 337 776 337 779 q 366 783 354 783 q 416 755 400 770 l 436 755 l 436 752 l 440 752 l 440 759 l 448 759 q 498 708 448 746 q 617 378 551 650 l 625 378 q 786 752 664 505 q 934 1180 823 874 m 539 154 l 539 144 q 543 103 543 109 l 547 103 l 551 134 q 543 154 543 147 l 539 154 z "},"x":{"ha":846,"x_min":29,"x_max":954,"o":"m 942 1061 l 941 1053 q 923 1023 924 1032 q 954 1050 949 1050 l 949 1017 q 842 809 935 977 l 841 805 l 846 805 l 868 831 l 878 831 l 877 827 l 848 791 l 853 791 q 885 820 874 818 l 884 812 q 749 580 880 783 q 730 539 748 573 q 853 128 853 142 l 844 128 l 820 187 l 815 187 l 814 184 l 834 124 l 825 124 q 697 306 792 158 l 696 302 q 869 -161 753 174 l 868 -164 l 852 -150 l 851 -153 l 865 -183 q 859 -194 860 -190 l 854 -194 q 624 117 805 -152 l 509 261 l 505 261 q 262 -75 322 43 q 234 -116 243 -116 l 224 -116 l 208 -105 l 203 -105 q 176 -127 200 -127 q 65 -61 137 -119 q 52 -20 65 -37 q 58 -9 58 -13 l 29 14 l 31 24 q 36 28 31 28 l 32 35 l 33 39 q 381 472 37 73 l 386 472 l 273 698 l 271 716 q 287 728 278 716 q 201 882 201 871 l 201 883 q 244 920 218 920 l 245 924 q 241 933 241 930 l 241 935 q 247 939 246 935 l 256 935 l 265 939 q 279 935 274 935 q 289 942 281 942 l 298 942 q 311 931 305 942 l 344 935 l 376 931 q 395 939 376 939 l 393 957 q 415 979 409 979 l 466 979 q 635 758 546 979 q 937 1061 739 872 l 942 1061 z "},"y":{"ha":893,"x_min":276,"x_max":1206,"o":"m 1140 1141 l 1140 1139 q 1148 1134 1140 1134 l 1161 1137 q 1206 1055 1206 1137 l 1206 1050 l 1190 1027 l 1179 1003 q 1183 968 1183 983 q 1177 939 1183 950 q 877 513 1167 918 q 524 37 642 155 q 368 -178 380 -150 l 351 -178 l 355 -168 q 340 -174 343 -169 q 342 -182 342 -179 q 342 -184 342 -183 l 330 -184 q 303 -119 303 -155 q 309 -84 303 -102 l 309 -76 q 349 77 309 -10 l 371 124 q 450 269 444 258 l 454 279 q 461 282 456 282 q 462 283 462 283 q 457 286 462 286 l 474 309 l 488 339 l 490 355 l 496 355 l 479 419 l 474 419 l 473 416 q 457 359 461 367 l 446 359 l 449 389 l 443 389 l 438 379 l 433 355 l 422 355 q 284 698 402 375 q 276 798 276 754 q 294 903 276 864 q 349 936 302 920 q 365 932 359 932 q 422 956 375 945 q 443 953 430 953 q 481 973 457 966 l 498 963 q 513 970 504 970 l 525 970 q 569 943 553 964 q 627 674 606 943 q 637 597 627 597 q 876 966 844 922 l 894 966 l 903 963 q 962 989 909 975 q 1088 1127 1053 1127 l 1107 1120 q 1140 1141 1117 1141 z "},"z":{"ha":964,"x_min":4,"x_max":1125,"o":"m 1075 1020 l 1084 1006 q 1080 1002 1080 1006 q 1082 1000 1082 1002 l 1082 999 q 1116 1013 1088 999 l 1116 1010 l 1107 999 l 1114 996 q 1122 1002 1116 1002 l 1125 1002 l 1124 999 l 1090 926 q 1038 877 1084 926 q 926 733 998 817 q 868 667 869 671 l 950 726 l 949 723 l 901 674 l 904 674 q 955 712 928 694 l 954 709 q 806 524 932 665 q 513 205 684 374 l 517 205 q 927 311 795 311 q 1091 338 927 314 l 1090 332 q 1047 321 1050 321 l 1046 317 l 1057 317 q 1090 324 1084 324 l 1089 321 q 979 261 1061 289 l 979 258 l 982 258 q 1029 272 1024 272 l 1029 269 l 978 227 l 985 227 q 1017 233 1008 233 l 1017 227 q 962 209 964 209 l 961 205 l 968 205 q 1015 220 986 212 l 1015 212 q 913 160 935 160 q 481 -22 617 19 q 136 -119 273 -94 l 132 -119 q 95 -113 102 -116 q 54 -158 57 -158 l 54 -155 q 73 -116 55 -149 q 20 -172 50 -140 l 14 -172 q 28 -140 14 -166 q 12 -161 21 -140 l 4 -161 q 37 -81 20 -104 q 15 -60 23 -81 q 26 -57 22 -57 l 29 -36 q 94 6 85 6 l 235 216 l 224 209 l 220 209 l 221 212 l 258 254 l 258 258 l 216 223 l 216 230 q 413 489 241 282 q 577 684 494 600 l 574 684 q 188 625 491 654 l 189 632 q 221 639 194 632 l 222 642 l 214 642 l 190 639 l 191 646 q 266 684 247 684 l 267 688 l 256 688 q 235 684 254 688 l 235 688 q 317 730 262 713 l 318 733 l 270 741 l 228 736 q 182 762 188 736 q 176 766 176 762 l 176 768 q 189 779 181 768 q 182 784 182 779 l 182 786 l 252 838 q 159 869 181 838 l 163 877 q 154 883 154 877 l 154 884 q 166 894 155 886 q 164 903 164 899 l 164 905 q 472 981 210 945 q 630 989 572 989 l 633 989 q 864 960 684 989 q 910 992 876 977 l 921 992 q 961 978 930 978 q 1075 1020 963 978 z "},"{":{"ha":688,"x_min":0,"x_max":0,"o":""},"|":{"ha":688,"x_min":0,"x_max":0,"o":""},"}":{"ha":688,"x_min":0,"x_max":0,"o":""},"~":{"ha":1211,"x_min":23,"x_max":1085,"o":"m 372 987 l 386 987 q 399 977 392 987 l 395 969 l 399 969 l 430 973 q 496 924 458 942 l 496 921 l 505 924 q 652 813 519 924 q 705 792 690 792 q 855 910 711 792 q 961 949 917 928 l 961 945 q 957 935 957 939 l 970 941 l 975 941 l 975 938 l 970 931 l 979 928 q 1076 969 1038 959 q 1085 956 1076 961 q 943 730 1020 772 q 855 671 899 699 l 859 664 l 859 660 q 793 632 842 660 q 775 650 775 640 l 758 640 l 753 640 l 736 650 q 691 632 736 640 q 682 650 682 641 l 669 643 l 665 643 l 669 660 q 426 775 534 707 l 421 775 q 240 636 371 750 q 209 653 235 636 q 182 646 195 646 l 174 646 l 160 653 l 151 653 l 90 618 l 85 618 l 94 632 l 90 632 q 81 625 90 625 l 76 625 l 76 629 q 112 709 84 663 l 107 709 q 28 677 45 677 l 45 695 l 41 695 l 28 688 l 23 688 l 23 692 q 125 817 23 711 q 279 949 136 852 q 372 987 336 987 z "},"":{"ha":456,"x_min":4,"x_max":428,"o":"m 303 817 q 292 825 292 821 q 290 823 290 825 q 268 825 275 825 l 262 823 q 249 842 249 823 l 243 840 l 241 840 q 224 873 224 844 q 284 1033 224 966 q 330 1058 313 1042 l 333 1053 l 338 1055 q 368 1030 355 1030 q 412 1061 408 1061 l 412 1058 q 409 1050 409 1053 q 414 1058 414 1050 l 420 1058 l 422 1044 q 428 954 422 1011 q 395 859 404 869 q 385 842 385 859 l 379 840 l 379 848 l 371 848 q 366 840 366 848 l 360 840 q 352 851 359 851 q 341 829 341 851 l 330 829 q 317 840 318 840 l 314 840 l 314 837 l 317 823 q 303 817 308 817 m 175 -79 l 167 -79 q 137 -65 149 -65 q 99 -76 125 -76 l 96 -76 q 88 -67 96 -67 q 83 -72 87 -72 q 80 -60 83 -60 l 66 -62 q 53 -56 66 -58 l 50 -60 q 34 -56 34 -59 l 23 -60 q 20 -58 23 -58 l 23 -54 l 9 -44 q 20 -33 15 -43 q 4 -6 7 -33 q 148 608 4 41 l 237 838 l 243 838 l 243 836 l 240 815 l 240 812 l 243 812 q 248 836 248 827 l 254 836 q 259 812 259 817 l 259 777 q 275 694 275 739 l 275 608 q 281 604 275 604 l 313 696 l 319 696 q 311 658 319 692 l 311 656 l 313 656 l 324 690 l 330 690 q 332 656 330 684 q 251 153 297 319 q 208 -60 229 76 q 180 -76 191 -60 l 175 -79 z "},"":{"ha":842,"x_min":-16,"x_max":1188,"o":"m 464 990 l 467 990 l 719 941 q 996 833 949 882 q 1038 760 1038 780 q 1041 745 1038 751 q 1027 734 1027 740 q 1031 724 1031 728 l 1017 710 l 1010 710 l 1010 718 l 1006 718 l 1006 710 q 1010 661 1010 667 q 975 619 996 631 l 954 619 q 922 630 935 619 q 908 626 916 626 q 890 637 908 631 q 887 633 887 637 q 733 654 806 654 l 730 654 l 705 651 l 705 654 l 698 651 l 694 651 q 362 567 556 651 q 302 413 302 474 l 302 395 q 331 266 311 266 q 485 238 403 238 q 618 266 496 238 q 1093 420 737 266 q 1153 452 1094 423 l 1156 444 q 1055 395 1061 395 l 1059 389 q 1041 374 1041 379 l 1048 374 l 1167 420 l 1167 416 q 1055 364 1160 408 l 1048 350 l 1051 350 q 1118 378 1096 370 l 1118 374 l 1023 322 l 1031 322 q 1156 374 1078 334 l 1156 371 q 1086 332 1147 357 l 1086 329 l 1090 329 q 1185 360 1170 360 l 1160 339 l 1164 339 q 1188 347 1173 347 q 1038 199 1188 330 q 852 81 995 157 q 544 3 796 60 l 544 0 l 541 0 q 236 94 419 0 q 111 231 153 166 q 58 371 58 264 q 41 448 41 405 l 41 469 q 153 718 41 603 l 156 718 l 156 721 l 153 721 q 26 651 76 691 q 20 658 26 658 q -12 630 20 652 l -16 637 q 138 777 64 707 q 153 784 147 784 l 149 791 q 226 846 168 815 l 226 850 l 219 850 l 205 843 l 201 850 q 534 948 417 948 q 579 955 534 953 l 579 959 q 464 983 479 983 l 464 990 m 120 613 q 144 627 141 627 l 144 629 l 142 629 q 120 613 121 619 m 976 1486 q 983 1471 983 1480 q 982 1465 983 1468 l 985 1465 q 992 1474 987 1474 q 1001 1466 1001 1469 l 1001 1465 q 998 1461 998 1465 q 1006 1426 1005 1461 q 1008 1423 1008 1426 l 1008 1422 l 1005 1407 q 1002 1404 1004 1404 l 1003 1398 q 962 1295 976 1321 l 962 1294 q 964 1292 962 1292 q 415 76 673 543 q 368 -6 413 75 l 363 -6 l 388 49 l 389 52 l 386 52 q 182 -376 315 -102 l 176 -376 q 195 -327 180 -370 l 195 -324 l 193 -324 q 176 -367 177 -359 l 170 -367 q 172 -333 172 -358 l 210 -194 l 209 -182 q 220 -155 213 -175 l 221 -151 l 218 -151 q 201 -178 207 -178 l 199 -178 l 201 -167 l 199 -167 q 176 -209 177 -203 l 171 -209 l 189 -163 q 171 -197 182 -163 l 165 -197 q 167 -180 167 -186 q 165 -172 167 -172 q 427 546 326 321 q 639 1059 532 833 q 709 1249 696 1189 l 711 1249 l 710 1255 q 728 1265 711 1259 l 730 1274 l 737 1267 l 740 1267 l 786 1331 q 798 1337 790 1331 l 808 1337 q 813 1333 813 1337 l 813 1331 l 827 1334 l 830 1334 q 848 1316 840 1316 l 854 1319 q 864 1316 858 1316 q 924 1449 886 1345 q 938 1461 935 1461 l 951 1461 q 976 1486 953 1468 z "},"":{"ha":688,"x_min":0,"x_max":0,"o":""},"":{"ha":688,"x_min":0,"x_max":0,"o":""},"":{"ha":842,"x_min":-20,"x_max":1046,"o":"m 902 1236 l 915 1226 l 918 1226 l 919 1232 l 922 1232 q 936 1229 931 1232 q 951 1232 943 1232 l 951 1229 q 967 1210 951 1213 q 966 1203 966 1206 q 968 1187 966 1196 q 960 1177 964 1177 l 969 1161 q 942 1093 969 1156 l 1023 1164 l 1026 1164 l 1026 1161 l 1006 1135 l 1006 1132 l 1033 1155 l 1036 1155 l 1031 1139 l 1031 1135 q 1047 1119 1038 1121 q 866 840 972 961 q 664 519 761 690 q 450 -555 623 377 l 442 -384 l 390 -551 l 359 -442 l 417 -219 l 303 -585 l 308 -553 l 309 -552 l 308 -552 q 253 -572 303 -552 l 300 -503 l 330 -316 q 338 -271 338 -280 q 337 -267 338 -267 q 308 -335 333 -267 l 363 -230 l 347 -206 q 353 -177 348 -195 l 353 -174 l 349 -174 l 325 -284 l 287 -384 q 293 -324 293 -351 q 288 -281 293 -299 l 349 98 q 458 523 358 193 q 205 746 308 637 q -20 1012 -1 982 l -20 1015 q -8 1025 -19 1020 q -16 1053 -16 1039 l -16 1057 q 13 1099 3 1069 q 31 1106 30 1099 l 28 1112 l 39 1119 q 45 1112 45 1119 l 45 1109 l 60 1109 q 68 1119 61 1119 q 67 1112 67 1115 q 73 1099 67 1099 l 76 1099 q 88 1109 77 1109 l 106 1106 l 106 1116 l 117 1116 l 153 1119 q 169 1106 153 1114 l 177 1109 l 184 1109 q 376 918 203 1109 q 525 682 466 814 l 536 682 q 666 905 638 827 q 713 947 680 930 q 875 1223 855 1194 l 902 1236 z "},"":{"ha":688,"x_min":0,"x_max":0,"o":"z "},"":{"ha":688,"x_min":0,"x_max":0,"o":""},"":{"ha":694,"x_min":63,"x_max":622,"o":"m 526 1379 l 530 1372 l 537 1376 l 549 1376 q 559 1357 549 1357 q 563 1361 559 1361 q 611 1320 563 1355 l 611 1313 q 604 1306 611 1306 q 622 1258 617 1276 l 611 1236 q 614 1225 614 1229 l 607 1221 l 604 1229 q 593 1225 597 1225 l 596 1217 l 596 1214 l 593 1206 l 585 1211 l 581 1211 q 511 1170 536 1170 q 500 1181 511 1175 l 493 1177 q 449 1203 493 1192 q 423 1247 438 1214 q 420 1251 420 1247 l 423 1258 q 416 1269 416 1258 q 515 1379 416 1343 l 526 1379 m 162 1369 q 174 1357 162 1363 q 181 1364 174 1364 l 184 1364 q 192 1346 192 1364 q 206 1350 200 1346 l 214 1346 q 239 1350 229 1350 q 288 1284 277 1350 l 295 1273 l 295 1269 l 288 1269 l 288 1276 q 254 1247 256 1254 l 258 1225 l 199 1162 l 199 1155 l 184 1155 q 181 1159 181 1155 l 148 1144 q 89 1177 115 1146 l 85 1177 l 89 1185 l 89 1192 q 74 1217 74 1192 q 78 1229 78 1225 q 66 1232 71 1232 l 66 1240 l 74 1251 q 63 1269 66 1251 l 71 1273 l 66 1280 l 66 1284 q 162 1369 66 1349 z "},"":{"ha":1135,"x_min":0,"x_max":0,"o":""},"":{"ha":593,"x_min":6,"x_max":615,"o":"m 557 1158 q 563 1154 558 1154 q 573 1157 570 1157 q 604 1095 604 1138 l 604 1091 q 565 788 567 843 q 608 795 603 795 q 590 786 608 793 l 593 786 q 615 790 605 790 q 557 761 607 783 q 552 686 552 704 l 549 686 q 551 684 549 684 q 510 412 510 423 l 504 412 l 504 416 q 502 443 504 425 l 498 443 l 497 412 l 491 412 l 491 418 q 481 385 482 418 l 475 385 l 472 407 l 469 407 l 468 387 l 462 387 q 433 449 447 406 l 430 449 l 430 443 l 424 443 l 425 473 l 422 473 l 418 451 l 418 449 l 412 449 q 399 531 399 476 q 400 553 399 541 l 394 553 l 394 547 l 387 547 l 391 560 l 392 577 l 389 577 q 382 551 388 573 l 375 551 l 375 556 q 370 577 375 565 q 381 689 380 676 q 201 629 258 633 q 101 536 144 562 l 63 538 l 51 538 l 45 536 q 42 544 42 540 l 36 542 q 6 578 6 565 l 6 584 q 281 928 8 645 q 442 1091 298 951 q 500 1135 444 1135 l 503 1131 l 500 1127 l 512 1127 q 535 1153 513 1143 q 544 1151 541 1151 q 557 1158 544 1154 m 433 1072 q 419 1052 433 1069 l 419 1051 l 422 1051 q 435 1065 422 1055 l 436 1072 l 433 1072 m 416 894 q 298 737 416 882 q 392 759 345 752 l 392 761 l 419 892 l 420 894 l 416 894 z "},"":{"ha":428,"x_min":0,"x_max":0,"o":"z "},"":{"ha":688,"x_min":0,"x_max":0,"o":""},"":{"ha":1135,"x_min":0,"x_max":0,"o":""},"":{"ha":1140,"x_min":-1,"x_max":983,"o":"m 726 1404 l 772 1404 q 983 1393 814 1404 l 983 1388 l 954 1388 l 954 1382 l 979 1382 l 979 1377 q 789 1328 941 1363 l 789 1325 l 810 1325 q 928 1322 843 1325 q 941 1317 928 1317 l 941 1312 q 814 1276 820 1276 l 814 1271 l 857 1274 l 861 1274 l 861 1268 q 823 1263 829 1263 l 823 1260 l 844 1260 l 865 1263 l 865 1257 q 375 1146 581 1158 q 58 1124 113 1124 l 41 1130 q 29 1127 33 1127 l 12 1149 l 16 1154 q -1 1179 -1 1171 q 46 1206 35 1206 l 50 1206 l 41 1214 q 67 1246 56 1246 q 58 1263 58 1255 l 71 1263 l 71 1268 l 62 1276 q 105 1303 68 1287 q 270 1336 105 1315 l 616 1393 q 726 1404 699 1404 z "},"":{"ha":457,"x_min":31,"x_max":444,"o":"m 224 1284 l 232 1284 q 351 1246 260 1284 q 444 1114 444 1174 q 408 1002 444 1039 q 368 951 403 1002 q 208 878 288 878 l 202 878 q 85 926 158 878 q 31 1065 31 983 q 134 1246 31 1194 q 202 1279 166 1249 q 224 1284 212 1284 m 153 1048 q 229 1005 153 1033 q 314 1048 275 1017 q 345 1097 345 1048 q 229 1166 315 1120 q 153 1048 163 1166 z "},"":{"ha":905,"x_min":8,"x_max":787,"o":"m 498 890 l 502 890 l 502 887 q 498 879 498 882 q 505 887 505 879 l 512 887 q 526 789 519 858 q 502 678 519 726 q 675 708 621 708 q 713 705 682 708 q 787 708 751 708 l 787 703 l 770 700 l 770 697 l 787 697 l 787 694 q 621 602 758 667 l 614 602 l 614 600 l 634 600 l 634 597 l 631 591 l 634 591 q 688 597 640 591 l 688 591 q 665 586 667 586 l 665 583 l 668 583 l 688 586 l 692 586 q 505 486 654 551 q 471 437 471 486 q 427 255 444 344 q 379 220 400 220 l 372 222 q 369 220 369 222 q 318 255 328 220 l 315 255 l 304 228 l 297 228 q 304 258 301 252 l 304 260 l 301 260 q 294 239 294 243 l 290 239 q 283 252 283 239 l 280 252 l 270 247 l 267 247 l 267 252 l 256 247 q 233 361 245 247 q 236 423 236 404 q 239 426 239 423 q 236 429 236 426 q 90 401 115 410 q 35 429 49 401 l 25 442 l 28 448 l 25 453 l 25 461 l 15 467 l 18 472 l 18 475 l 8 486 q 28 491 28 488 l 25 505 q 39 515 31 505 l 39 545 l 32 543 l 25 543 q 15 551 20 543 l 18 564 q 12 570 12 564 q 69 618 12 597 q 273 651 134 632 q 290 751 290 734 q 283 760 283 751 l 280 760 l 273 757 l 270 762 q 355 854 339 845 q 460 882 405 882 q 477 871 461 878 l 498 890 m 318 266 l 318 260 l 321 260 l 321 266 l 318 266 z "},"":{"ha":817,"x_min":-216,"x_max":881,"o":"m 411 1183 q 627 1015 528 1183 q 646 924 642 968 l 642 916 q 646 905 642 912 q 391 422 646 762 l 282 254 l 282 250 l 286 250 q 442 274 361 266 q 446 270 446 274 q 548 278 490 278 q 618 266 604 266 q 881 317 637 266 l 881 309 l 842 298 l 842 294 l 850 294 l 877 301 l 877 298 q 732 192 852 267 l 713 176 l 732 176 q 568 86 712 151 q 368 -4 525 64 q 153 -90 224 -90 q -83 -196 18 -180 q -121 -176 -83 -192 l -121 -161 l -149 -161 q -161 -141 -160 -161 l -165 -141 q -173 -153 -165 -153 q -200 -114 -200 -125 q -204 -98 -200 -105 q -200 -83 -200 -92 q -216 -75 -216 -83 l -216 -63 l -212 -63 l -200 -71 l -200 -67 l -204 -39 q -86 113 -144 33 q 35 281 -33 170 q 219 564 98 345 q 380 991 380 855 q 356 1018 380 1009 q 227 842 238 909 q 180 631 201 771 q 113 583 144 588 q 102 595 113 589 q 90 572 90 577 l 71 576 l 71 568 l 39 568 q 0 583 28 578 q -32 658 -32 618 l -32 682 q -47 697 -47 682 l -55 693 q -79 740 -65 693 q 188 1139 -79 964 q 380 1179 243 1179 q 411 1183 380 1183 z "},"":{"ha":1211,"x_min":1,"x_max":1234,"o":"m 1048 1253 q 1091 1236 1072 1253 l 1091 1232 l 1080 1217 l 1080 1214 l 1098 1192 l 1098 1189 l 1095 1171 q 1101 1164 1101 1170 l 1087 1156 q 1091 1153 1087 1153 q 894 923 1091 1118 l 854 873 q 1016 895 955 873 q 1116 866 1041 885 q 1192 780 1171 844 q 1234 686 1234 747 l 1234 665 q 955 231 1234 480 q 499 -74 691 -5 q 170 -195 307 -163 l 170 -189 q 223 -170 178 -189 l 223 -163 q 173 -178 198 -174 l 173 -170 q 234 -127 180 -170 q 331 -74 239 -127 l 331 -70 l 327 -70 q 234 -117 305 -84 l 234 -113 l 270 -84 l 266 -84 q 223 -106 228 -106 l 223 -102 q 280 -38 256 -62 q 277 -34 277 -38 q 305 -13 300 -24 l 302 -13 q 277 -20 288 -20 q 438 102 314 18 q 836 465 512 177 q 951 665 937 571 l 944 669 q 930 665 938 665 l 930 669 l 922 665 l 901 665 q 747 626 821 665 q 621 590 680 604 q 600 576 621 585 l 582 576 q 564 579 570 576 q 481 565 527 576 l 481 572 q 424 557 435 557 q 341 576 421 557 l 341 579 l 345 586 q 334 590 334 586 q 349 611 334 593 q 345 626 345 618 q 374 654 349 626 l 370 654 q 320 640 326 640 l 320 647 q 341 661 331 647 l 338 661 l 313 651 l 313 654 q 485 816 313 667 q 571 891 555 867 l 614 938 l 610 938 q 187 777 463 852 l 187 783 l 209 791 l 209 794 l 205 794 l 83 769 l 83 777 l 112 787 l 112 791 l 109 791 q 79 783 81 783 l 79 787 q 195 873 96 812 l 195 877 q 94 841 120 863 l 76 841 l 40 838 q 33 844 40 844 l 12 844 l 12 852 l 18 852 l 18 855 l 12 855 q 8 852 12 852 l 8 855 l 22 873 q 18 877 18 873 q 29 880 26 880 l 29 884 l 22 884 l 22 888 l 65 916 q 18 934 18 927 l 22 941 q 8 970 14 941 q 1 977 1 970 l 15 991 l 8 991 l 8 995 q 98 1038 12 1010 q 109 1063 101 1063 l 109 1056 l 112 1056 l 112 1063 q 109 1067 109 1063 l 112 1067 q 155 1049 147 1049 q 259 1081 163 1063 q 786 1181 641 1181 q 1048 1253 991 1253 z "},"":{"ha":490,"x_min":328,"x_max":1029,"o":"m 657 1548 q 623 1532 638 1535 q 574 1501 589 1503 q 576 1499 574 1499 q 579 1499 577 1499 q 554 1467 555 1478 q 537 1472 537 1468 q 500 1451 500 1455 l 500 1448 l 505 1443 q 328 1240 328 1282 q 351 1225 328 1225 q 405 1236 370 1225 l 404 1230 l 410 1232 l 435 1245 l 435 1242 q 362 1189 362 1196 q 365 1187 362 1187 q 368 1188 366 1187 q 380 1185 374 1185 q 427 1224 400 1185 q 333 1113 334 1125 l 332 1110 l 345 1113 q 362 1124 362 1120 l 369 1126 q 362 1122 369 1123 l 362 1121 q 368 1118 362 1118 q 374 1118 370 1118 l 380 1120 l 453 1162 q 446 1152 452 1158 l 445 1147 q 530 1207 452 1148 q 659 1292 658 1288 q 1029 1507 764 1353 l 825 1513 l 825 1516 q 781 1544 825 1544 l 774 1544 l 774 1544 q 758 1559 774 1554 l 739 1556 l 728 1551 l 728 1552 q 718 1559 728 1559 q 711 1558 715 1559 l 682 1541 q 657 1548 657 1545 z "},"":{"ha":0,"x_min":0,"x_max":0,"o":"z "},"":{"ha":694,"x_min":0,"x_max":0,"o":""},"":{"ha":345,"x_min":15,"x_max":188,"o":"m 121 682 q 130 676 130 679 q 132 678 132 676 q 151 676 145 676 l 155 678 q 167 661 167 678 l 172 663 l 174 663 q 188 635 188 660 q 137 499 188 556 q 98 478 113 492 l 95 482 l 91 480 q 65 501 77 501 q 29 475 32 475 l 29 478 q 31 485 31 482 q 26 478 26 485 l 22 478 l 19 490 q 15 566 19 518 q 42 647 35 639 q 52 661 52 647 l 56 663 l 56 656 l 63 656 q 68 663 68 656 l 72 663 q 79 654 74 654 q 88 673 88 654 l 98 673 q 109 663 108 663 l 112 663 l 112 666 l 109 678 q 121 682 117 682 z "},"":{"ha":694,"x_min":0,"x_max":0,"o":""},"":{"ha":627,"x_min":-133,"x_max":627,"o":"m 399 1253 q 433 1230 420 1253 q 467 1204 467 1230 l 475 1208 q 501 1200 490 1200 q 532 1211 520 1211 l 536 1211 q 593 1162 570 1162 q 608 1143 602 1143 q 627 1116 616 1141 q 623 1113 627 1113 l 627 1086 q 425 665 627 1053 q 125 102 317 396 q 57 -12 98 44 l 57 -8 l 64 18 q -118 -267 -18 -93 l -118 -259 q -103 -214 -118 -254 l -103 -210 l -106 -210 q -125 -255 -125 -252 l -133 -255 l -133 -243 q -130 -240 -133 -240 l -133 -233 q -27 136 -133 -203 q 201 675 -27 234 l 273 839 l 266 839 q 155 789 174 789 l 163 801 l 159 801 q 83 755 100 755 l 72 755 q 60 770 66 755 l 53 767 q 30 779 33 767 l 38 789 q 15 820 20 789 q 30 843 20 833 l 26 850 l 117 972 q 296 1215 117 990 q 349 1242 317 1242 q 357 1227 357 1233 l 361 1227 l 399 1253 z "},"":{"ha":621,"x_min":0,"x_max":576,"o":"m 363 1158 l 389 1158 q 502 1082 450 1158 q 533 1021 514 1073 q 567 948 551 1008 l 569 948 l 567 945 q 569 943 567 943 l 567 940 l 567 921 q 563 855 567 894 l 576 813 q 484 642 576 752 l 431 602 l 426 603 q 301 554 328 554 l 301 558 l 312 559 l 312 561 l 310 561 q 234 553 270 553 q 39 672 117 553 l 37 672 l 37 657 l 32 657 q 28 680 32 661 l 26 680 l 26 660 l 21 660 q 0 779 0 687 l 0 784 q 69 1013 0 881 q 227 1127 131 1102 q 363 1158 334 1158 m 146 749 l 142 749 l 142 751 q 140 767 140 764 l 138 767 l 138 749 q 153 726 138 744 q 199 684 153 711 q 237 681 220 681 l 239 681 q 403 744 331 681 q 445 868 445 785 l 445 888 q 447 896 445 893 l 445 905 l 445 940 q 394 996 428 982 q 333 1010 357 1010 q 209 967 295 1010 q 182 918 182 956 q 146 749 146 779 m 572 943 l 576 943 l 576 940 l 572 940 l 572 943 m 26 685 l 26 681 l 28 681 l 28 685 l 26 685 z "},"":{"ha":428,"x_min":0,"x_max":0,"o":"z "},"":{"ha":1277,"x_min":-268,"x_max":1118,"o":"m 310 1577 q 329 1567 321 1577 q 348 1556 348 1567 l 353 1558 q 367 1554 361 1554 q 385 1559 378 1559 l 387 1559 q 418 1539 406 1539 q 427 1531 424 1531 q 437 1519 432 1529 q 435 1518 437 1518 l 437 1506 q 325 1330 437 1493 q 157 1093 264 1217 q 119 1045 141 1069 l 119 1047 l 123 1058 q 20 939 76 1011 l 20 942 q 28 961 20 943 l 28 962 l 27 962 q 16 943 16 945 l 12 943 l 12 948 q 14 949 12 949 l 12 953 q 71 1107 12 965 q 199 1334 71 1149 l 239 1403 l 235 1403 q 174 1382 184 1382 l 178 1387 l 176 1387 q 133 1368 142 1368 l 127 1368 q 120 1374 123 1368 l 116 1373 q 103 1377 105 1373 l 108 1382 q 95 1395 98 1382 q 103 1404 98 1400 l 101 1408 l 152 1459 q 252 1561 152 1466 q 282 1572 264 1572 q 286 1566 286 1569 l 289 1566 l 310 1577 m 975 1359 q 979 1348 979 1354 q 976 1337 979 1343 l 978 1337 q 986 1343 982 1343 l 987 1343 q 995 1334 995 1338 q 994 1333 995 1333 l 994 1333 q 990 1330 991 1333 q 994 1321 994 1329 q 989 1293 994 1312 q 991 1291 991 1292 q 991 1289 991 1290 l 983 1276 q 980 1274 982 1274 l 979 1274 l 979 1267 q 914 1177 934 1200 q 913 1176 913 1177 q 916 1174 913 1175 q 80 134 447 522 q 14 66 78 134 l 9 68 l 47 115 l 48 117 l 45 118 q -259 -245 -62 -14 l -264 -243 q -235 -201 -259 -239 l -233 -199 l -235 -198 q -262 -235 -260 -229 l -268 -233 q -258 -201 -264 -226 l -187 -76 l -184 -64 q -166 -41 -178 -59 l -165 -37 l -168 -37 q -190 -59 -184 -59 l -191 -59 l -193 -58 l -188 -47 l -191 -47 q -222 -82 -220 -77 l -228 -81 l -199 -41 l -200 -41 q -225 -69 -206 -41 l -231 -68 q -224 -46 -224 -51 q -224 -44 -224 -44 q 210 586 55 394 q 542 1029 381 838 q 657 1197 630 1141 l 660 1196 l 660 1202 q 680 1206 662 1206 l 684 1215 l 689 1207 l 692 1206 l 752 1257 l 753 1257 q 766 1260 758 1257 l 776 1257 q 779 1253 779 1255 q 779 1250 779 1251 l 793 1250 l 795 1249 q 808 1227 801 1229 l 815 1228 q 824 1223 818 1224 q 916 1337 853 1246 q 932 1345 929 1345 l 932 1345 l 945 1341 q 975 1359 949 1348 m 1088 815 q 1093 802 1093 815 l 1109 802 q 1116 770 1116 802 l 1114 761 q 1118 757 1118 760 q 983 519 1118 741 l 966 482 l 970 482 q 1024 490 1017 490 l 1024 486 q 1002 478 1002 483 l 1004 478 q 1028 482 1023 482 q 1015 469 1015 471 l 1019 469 l 1067 478 l 1067 473 q 1047 467 1048 467 l 1047 465 l 1049 465 q 1069 469 1065 469 l 1069 467 q 972 407 1049 445 q 899 362 899 366 q 661 -48 757 90 q 564 -171 572 -165 q 562 -164 562 -166 l 558 -166 l 556 -166 q 554 -151 556 -159 q 592 -41 559 -123 l 592 -39 l 590 -39 q 547 -109 561 -96 l 547 -104 q 560 -74 554 -92 q 543 -104 556 -74 l 538 -104 q 597 75 538 -78 q 693 287 626 170 l 693 291 q 568 261 596 261 q 545 274 552 261 q 547 283 547 278 q 530 280 538 283 l 519 283 q 477 272 491 272 q 463 280 467 272 l 463 283 l 465 287 q 448 298 453 287 l 453 304 l 448 311 q 463 334 448 315 l 618 568 q 695 682 648 604 q 781 793 766 781 q 792 785 791 785 l 800 791 l 809 791 l 822 779 q 848 791 837 791 q 852 787 848 787 l 859 791 q 871 783 871 785 q 869 781 869 783 l 873 779 q 882 781 878 781 l 882 768 q 888 738 886 764 q 878 712 886 738 q 869 703 876 712 l 871 699 l 871 697 q 691 463 728 506 l 659 427 l 663 427 q 815 467 766 467 q 1022 787 920 645 l 1030 793 l 1032 793 l 1041 785 q 1088 815 1073 815 z "},"":{"ha":1605,"x_min":-200,"x_max":1451,"o":"m 274 1509 q 290 1499 284 1509 q 307 1488 307 1499 l 311 1490 q 323 1487 317 1487 q 338 1491 332 1491 l 340 1491 q 367 1471 356 1471 q 374 1463 372 1463 q 383 1451 378 1461 q 381 1450 383 1450 l 383 1438 q 287 1262 383 1425 q 142 1025 235 1149 q 110 977 130 1001 l 110 979 l 113 990 q 26 871 74 943 l 26 874 q 33 893 26 876 l 33 895 l 31 895 q 22 876 22 877 l 19 876 l 19 880 q 20 882 19 882 l 19 885 q 70 1040 19 897 q 179 1266 70 1081 l 214 1335 l 210 1335 q 157 1314 166 1314 l 161 1319 l 159 1319 q 123 1300 130 1300 l 117 1300 q 112 1306 115 1300 l 108 1305 q 97 1310 98 1305 l 101 1314 q 90 1327 92 1314 q 97 1337 92 1333 l 96 1340 l 139 1391 q 225 1493 139 1398 q 250 1504 235 1504 q 254 1498 254 1501 l 256 1498 l 274 1509 m 1042 1359 q 1046 1348 1046 1354 q 1044 1337 1046 1343 l 1046 1337 q 1054 1343 1050 1343 l 1055 1343 q 1063 1334 1063 1338 q 1062 1333 1063 1333 l 1061 1333 q 1058 1330 1059 1333 q 1061 1321 1061 1329 q 1057 1293 1061 1312 q 1059 1291 1059 1292 q 1059 1289 1059 1290 l 1051 1276 q 1048 1274 1050 1274 l 1047 1274 l 1047 1267 q 982 1177 1002 1200 q 981 1176 981 1177 q 983 1174 981 1175 q 148 134 515 522 q 82 66 146 134 l 77 68 l 115 115 l 116 117 l 113 118 q -191 -245 6 -14 l -197 -243 q -167 -201 -191 -239 l -165 -199 l -168 -198 q -195 -235 -192 -229 l -200 -233 q -191 -201 -196 -226 l -119 -76 l -116 -64 q -98 -41 -111 -59 l -97 -37 l -100 -37 q -122 -59 -117 -59 l -123 -59 l -125 -58 l -120 -47 l -123 -47 q -155 -82 -153 -77 l -160 -81 l -132 -41 l -132 -41 q -157 -69 -138 -41 l -163 -68 q -156 -46 -156 -51 q -157 -44 -156 -44 q 277 586 123 394 q 610 1029 449 838 q 725 1197 698 1141 l 728 1196 l 728 1202 q 748 1206 730 1206 l 752 1215 l 757 1207 l 760 1206 l 820 1257 l 821 1257 q 833 1260 825 1257 l 844 1257 q 847 1253 847 1255 q 846 1250 847 1251 l 861 1250 l 863 1249 q 876 1227 869 1229 l 883 1228 q 892 1223 886 1224 q 984 1337 921 1246 q 1000 1345 997 1345 l 1000 1345 l 1013 1341 q 1042 1359 1017 1348 m 1075 787 q 1247 703 1168 787 q 1263 659 1260 680 l 1260 654 q 1263 648 1260 652 q 1059 408 1263 577 l 972 323 l 972 321 l 975 321 q 1100 333 1035 329 q 1103 331 1103 333 q 1184 335 1138 335 q 1241 329 1230 329 q 1451 355 1256 329 l 1451 351 l 1419 345 l 1419 343 l 1426 343 l 1447 347 l 1447 345 q 1332 292 1428 330 l 1316 284 l 1332 284 q 1200 239 1316 271 q 1040 194 1166 228 q 868 151 925 151 q 680 98 760 106 q 649 108 680 100 l 649 116 l 627 116 q 617 125 618 116 l 614 125 q 608 119 614 119 q 586 139 586 134 q 583 147 586 144 q 586 155 586 151 q 574 159 574 155 l 574 165 l 576 165 l 586 161 l 586 163 l 583 176 q 677 253 631 212 q 774 337 720 281 q 921 478 825 369 q 1050 692 1050 624 q 1031 705 1050 701 q 928 617 937 651 q 890 511 907 582 q 837 488 861 490 q 827 494 837 491 q 818 482 818 485 l 802 484 l 802 480 l 777 480 q 746 488 768 486 q 720 525 720 505 l 720 537 q 708 545 708 537 l 702 543 q 683 566 694 543 q 897 766 683 678 q 1050 785 941 785 q 1075 787 1050 787 z "},"":{"ha":1845,"x_min":1,"x_max":1746,"o":"m 629 1362 q 654 1352 644 1362 l 654 1350 l 648 1341 l 648 1339 l 659 1326 l 659 1324 l 656 1313 q 661 1309 661 1312 l 652 1304 q 654 1302 652 1302 q 536 1164 654 1281 l 513 1134 q 610 1147 573 1134 q 670 1130 625 1141 q 715 1078 703 1116 q 741 1022 741 1059 l 741 1010 q 573 749 741 899 q 300 566 414 608 q 102 493 184 512 l 102 497 q 134 508 106 497 l 134 512 q 104 504 119 506 l 104 508 q 140 534 108 508 q 199 566 143 534 l 199 568 l 196 568 q 140 541 183 560 l 140 543 l 162 560 l 159 560 q 134 547 137 547 l 134 549 q 168 587 154 573 q 166 590 166 587 q 183 603 180 595 l 181 603 q 166 599 172 599 q 263 671 189 621 q 502 889 307 717 q 570 1010 562 953 l 566 1012 q 558 1010 563 1010 l 558 1012 l 553 1010 l 541 1010 q 448 986 493 1010 q 373 964 408 973 q 359 956 373 962 l 349 956 q 338 958 342 956 q 289 949 316 956 l 289 954 q 254 945 261 945 q 205 956 253 945 l 205 958 l 207 962 q 201 964 201 962 q 209 977 201 966 q 207 986 207 981 q 224 1003 210 986 l 222 1003 q 192 994 196 994 l 192 998 q 205 1007 199 998 l 203 1007 l 188 1001 l 188 1003 q 291 1100 188 1010 q 342 1145 333 1131 l 368 1173 l 366 1173 q 113 1076 277 1122 l 113 1080 l 125 1085 l 125 1087 l 123 1087 l 50 1072 l 50 1076 l 67 1083 l 67 1085 l 65 1085 q 47 1080 49 1080 l 47 1083 q 117 1134 58 1097 l 117 1137 q 56 1115 72 1128 l 45 1115 l 24 1113 q 20 1117 24 1117 l 7 1117 l 7 1122 l 11 1122 l 11 1124 l 7 1124 q 5 1122 7 1122 l 5 1124 l 14 1134 q 11 1137 11 1134 q 18 1139 16 1139 l 18 1141 l 14 1141 l 14 1143 l 39 1160 q 11 1171 11 1166 l 14 1175 q 5 1192 9 1175 q 1 1197 1 1192 l 9 1205 l 5 1205 l 5 1207 q 58 1234 7 1217 q 65 1249 60 1249 l 65 1244 l 67 1244 l 67 1249 q 65 1251 65 1249 l 67 1251 q 93 1240 88 1240 q 155 1259 98 1249 q 471 1319 385 1319 q 629 1362 595 1362 m 1449 1359 q 1453 1348 1453 1354 q 1451 1337 1453 1343 l 1453 1337 q 1461 1343 1457 1343 l 1462 1343 q 1470 1334 1470 1338 q 1469 1333 1470 1333 l 1468 1333 q 1465 1330 1466 1333 q 1468 1321 1468 1329 q 1464 1293 1468 1312 q 1466 1291 1466 1292 q 1466 1289 1466 1290 l 1458 1276 q 1455 1274 1457 1274 l 1454 1274 l 1454 1267 q 1389 1177 1409 1200 q 1388 1176 1388 1177 q 1390 1174 1388 1175 q 555 134 922 522 q 489 66 553 134 l 484 68 l 522 115 l 523 117 l 520 118 q 216 -245 413 -14 l 210 -243 q 240 -201 216 -239 l 241 -199 l 239 -198 q 212 -235 215 -229 l 207 -233 q 216 -201 211 -226 l 288 -76 l 291 -64 q 309 -41 296 -59 l 310 -37 l 307 -37 q 285 -59 290 -59 l 284 -59 l 281 -58 l 287 -47 l 284 -47 q 252 -82 254 -77 l 247 -81 l 275 -41 l 275 -41 q 250 -69 269 -41 l 244 -68 q 251 -46 251 -51 q 250 -44 251 -44 q 684 586 530 394 q 1017 1029 856 838 q 1132 1197 1105 1141 l 1135 1196 l 1135 1202 q 1155 1206 1137 1206 l 1159 1215 l 1164 1207 l 1166 1206 l 1227 1257 l 1228 1257 q 1240 1260 1232 1257 l 1251 1257 q 1254 1253 1254 1255 q 1253 1250 1254 1251 l 1267 1250 l 1270 1249 q 1283 1227 1276 1229 l 1290 1228 q 1299 1223 1293 1224 q 1391 1337 1328 1246 q 1407 1345 1404 1345 l 1407 1345 l 1420 1341 q 1449 1359 1423 1348 m 1710 755 q 1716 741 1716 755 l 1735 741 q 1743 709 1743 741 l 1740 701 q 1746 696 1746 700 q 1588 458 1746 681 l 1567 422 l 1573 422 q 1635 430 1627 430 l 1635 426 q 1610 418 1610 422 l 1613 418 q 1640 422 1634 422 q 1626 409 1626 411 l 1630 409 l 1685 418 l 1685 413 q 1663 407 1664 407 l 1663 405 l 1665 405 q 1688 409 1684 409 l 1688 407 q 1575 347 1665 385 q 1490 302 1490 305 q 1212 -109 1324 29 q 1099 -231 1108 -226 q 1097 -224 1097 -227 l 1092 -227 l 1089 -227 q 1087 -212 1089 -220 q 1131 -102 1093 -183 l 1131 -100 l 1129 -100 q 1079 -169 1095 -156 l 1079 -164 q 1094 -134 1087 -152 q 1074 -164 1089 -134 l 1069 -164 q 1137 14 1069 -138 q 1249 227 1171 110 l 1249 231 q 1104 201 1136 201 q 1076 214 1084 201 q 1079 222 1079 218 q 1059 220 1069 222 l 1046 222 q 997 212 1014 212 q 981 220 986 212 l 981 222 l 984 227 q 964 237 970 227 l 969 243 l 964 250 q 981 273 964 254 l 1162 507 q 1252 621 1197 543 q 1352 733 1334 720 q 1364 724 1363 724 l 1375 731 l 1385 731 l 1400 718 q 1430 731 1417 731 q 1435 726 1431 726 l 1442 731 q 1457 722 1457 725 q 1455 720 1455 722 l 1460 718 q 1470 720 1464 720 l 1470 707 q 1478 677 1475 704 q 1465 652 1474 677 q 1455 643 1462 652 l 1457 639 l 1457 637 q 1247 403 1290 446 l 1209 366 l 1215 366 q 1392 407 1334 407 q 1633 726 1514 585 l 1643 733 l 1645 733 l 1655 724 q 1710 755 1693 755 z "},"":{"ha":630,"x_min":-39,"x_max":693,"o":"m 143 -76 q 107 -66 134 -76 q 39 -70 66 -70 l 28 -70 q -39 -23 -39 -63 q -37 -12 -39 -18 l -35 -4 q -3 24 -21 24 q 5 78 4 73 q 40 205 20 146 q 39 212 39 209 q 43 220 42 215 q 41 226 41 224 l 47 226 l 47 230 l 47 240 q 77 281 51 240 q 220 458 153 388 q 307 572 296 516 q 382 712 310 588 l 383 714 q 384 718 384 716 q 359 773 384 735 l 360 778 q 378 788 361 780 l 374 794 q 385 804 382 804 q 392 802 389 802 q 404 808 393 808 l 404 812 q 401 833 404 819 l 406 833 q 412 821 412 824 l 412 821 l 417 821 l 409 835 l 410 837 l 412 837 q 473 775 427 836 q 507 708 493 775 q 512 661 512 688 q 501 566 512 622 q 476 507 496 545 q 296 262 466 455 q 225 152 283 262 l 224 144 q 216 90 220 125 q 202 62 205 77 l 205 62 q 463 136 299 73 q 479 144 477 139 l 479 144 q 437 164 479 153 l 437 168 l 448 168 l 448 170 l 440 170 l 441 172 q 518 195 444 176 q 589 207 520 205 l 591 207 q 627 224 612 224 q 631 215 631 219 l 631 214 q 642 216 637 214 q 663 212 658 212 q 686 218 677 218 l 673 207 l 675 207 l 690 214 l 693 214 l 692 212 l 661 176 q 666 173 666 176 l 666 172 l 665 168 q 628 130 663 158 l 631 119 q 625 115 626 119 q 631 104 631 115 l 611 86 q 489 14 607 63 q 155 -74 256 -74 q 143 -76 153 -74 m 424 911 q 356 979 365 911 q 362 985 359 985 l 360 989 l 361 991 l 376 999 q 374 1005 374 1003 q 383 1007 380 1007 l 391 1007 q 401 1017 393 1017 q 409 1015 406 1015 q 524 1061 412 1034 q 534 1049 534 1054 l 534 1048 l 553 1034 l 553 1032 q 531 1001 537 1001 l 533 997 q 518 977 532 991 q 538 969 538 977 l 538 968 l 537 964 q 526 960 536 960 q 529 951 529 954 l 529 950 q 511 927 514 941 l 498 929 q 424 911 497 924 z "},"":{"ha":1200,"x_min":-73,"x_max":1421,"o":"m 1289 1295 l 1301 1294 q 1259 1221 1259 1232 q 1261 1219 1259 1219 q 1296 1246 1268 1219 q 1278 1215 1278 1219 q 1278 1213 1278 1213 q 1417 1350 1289 1213 q 1299 1141 1358 1238 l 1421 1296 l 1312 1113 q 1240 861 1312 1076 q 964 0 1181 692 q 754 -259 880 -129 l 897 70 l 803 -60 q 842 101 842 63 q 835 118 842 118 q 791 76 823 118 q 888 227 888 222 q 849 172 855 172 q 848 174 848 172 q 920 360 848 193 q 888 322 888 339 l 875 322 l 875 332 l 868 332 l 861 313 l 848 313 l 848 336 l 836 336 q 829 322 836 332 q 809 327 817 327 l 542 265 q 144 -73 303 28 l 237 31 l 45 -78 q 45 -77 45 -78 q 140 40 45 -68 l -73 -79 l 33 51 q 620 608 97 159 q 1025 1051 620 615 q 1289 1295 1160 1175 m 770 460 l 777 460 q 901 532 901 490 q 960 661 907 532 q 770 460 926 631 m 1009 1901 q 1001 1895 1006 1895 q 993 1898 998 1895 q 994 1888 994 1892 q 987 1874 994 1874 q 984 1874 985 1874 q 992 1868 987 1870 q 1009 1829 996 1847 q 985 1848 990 1841 q 973 1839 973 1844 q 975 1835 973 1837 l 978 1831 l 989 1820 q 1167 1525 1045 1546 l 1175 1516 l 1179 1514 l 1187 1520 l 1191 1516 q 1183 1485 1183 1497 q 1195 1465 1183 1470 q 1218 1450 1212 1450 q 1221 1454 1221 1450 q 1207 1490 1221 1463 q 1259 1358 1244 1379 l 1263 1354 l 1273 1350 q 1277 1354 1277 1352 q 1275 1359 1277 1356 l 1280 1357 q 1282 1354 1282 1355 q 1281 1354 1282 1354 q 1278 1354 1280 1354 q 1295 1341 1286 1345 l 1300 1339 l 1320 1364 q 1326 1352 1324 1359 l 1333 1343 q 1341 1392 1338 1343 q 1361 1453 1361 1440 q 1360 1457 1361 1456 q 1242 1723 1320 1621 l 1234 1732 q 1139 1818 1191 1788 q 1099 1856 1126 1835 l 1085 1862 l 1080 1861 q 1051 1885 1065 1879 l 1043 1875 q 1009 1901 1013 1896 z "},"":{"ha":1200,"x_min":-73,"x_max":1979,"o":"m 1289 1295 l 1301 1294 q 1259 1221 1259 1232 q 1261 1219 1259 1219 q 1296 1246 1268 1219 q 1278 1215 1278 1219 q 1278 1213 1278 1213 q 1417 1350 1289 1213 q 1299 1141 1358 1238 l 1421 1296 l 1312 1113 q 1240 861 1312 1076 q 964 0 1181 692 q 754 -259 880 -129 l 897 70 l 803 -60 q 842 101 842 63 q 835 118 842 118 q 791 76 823 118 q 888 227 888 222 q 849 172 855 172 q 848 174 848 172 q 920 360 848 193 q 888 322 888 339 l 875 322 l 875 332 l 868 332 l 861 313 l 848 313 l 848 336 l 836 336 q 829 322 836 332 q 809 327 817 327 l 542 265 q 144 -73 303 28 l 237 31 l 45 -78 q 45 -77 45 -78 q 140 40 45 -68 l -73 -79 l 33 51 q 620 608 97 159 q 1025 1051 620 615 q 1289 1295 1160 1175 m 770 460 l 777 460 q 901 532 901 490 q 960 661 907 532 q 770 460 926 631 m 1607 1751 q 1572 1735 1588 1739 q 1523 1704 1538 1707 q 1526 1702 1523 1702 q 1529 1703 1527 1702 q 1503 1670 1504 1681 q 1487 1675 1487 1671 q 1450 1654 1450 1658 l 1449 1651 l 1455 1647 q 1278 1443 1278 1485 q 1300 1429 1278 1429 q 1354 1440 1319 1429 l 1354 1434 l 1360 1435 l 1385 1449 l 1384 1446 q 1312 1392 1312 1400 q 1314 1391 1312 1391 q 1318 1392 1316 1391 q 1329 1388 1323 1388 q 1377 1428 1350 1388 q 1282 1316 1283 1329 l 1282 1314 l 1295 1316 q 1312 1328 1312 1324 l 1318 1329 q 1312 1325 1318 1326 l 1312 1324 q 1318 1321 1312 1321 q 1323 1322 1320 1321 l 1329 1323 l 1402 1365 q 1395 1356 1402 1362 l 1394 1350 q 1480 1411 1401 1352 q 1608 1495 1607 1491 q 1979 1710 1713 1556 l 1774 1716 l 1774 1720 q 1731 1747 1774 1747 l 1723 1747 l 1723 1748 q 1707 1763 1723 1757 l 1689 1759 l 1678 1754 l 1678 1755 q 1668 1763 1678 1763 q 1660 1762 1664 1763 l 1631 1745 q 1607 1751 1607 1748 z "},"":{"ha":1200,"x_min":-73,"x_max":1421,"o":"m 1289 1295 l 1301 1294 q 1259 1221 1259 1232 q 1261 1219 1259 1219 q 1296 1246 1268 1219 q 1278 1215 1278 1219 q 1278 1213 1278 1213 q 1417 1350 1289 1213 q 1299 1141 1358 1238 l 1421 1296 l 1312 1113 q 1240 861 1312 1076 q 964 0 1181 692 q 754 -259 880 -129 l 897 70 l 803 -60 q 842 101 842 63 q 835 118 842 118 q 791 76 823 118 q 888 227 888 222 q 849 172 855 172 q 848 174 848 172 q 920 360 848 193 q 888 322 888 339 l 875 322 l 875 332 l 868 332 l 861 313 l 848 313 l 848 336 l 836 336 q 829 322 836 332 q 809 327 817 327 l 542 265 q 144 -73 303 28 l 237 31 l 45 -78 q 45 -77 45 -78 q 140 40 45 -68 l -73 -79 l 33 51 q 620 608 97 159 q 1025 1051 620 615 q 1289 1295 1160 1175 m 770 460 l 777 460 q 901 532 901 490 q 960 661 907 532 q 770 460 926 631 m 673 1645 q 697 1631 697 1645 l 711 1634 l 713 1634 q 724 1620 721 1620 q 882 1433 730 1620 q 922 1365 922 1388 q 903 1349 922 1359 q 884 1330 903 1330 q 871 1327 876 1330 q 860 1330 866 1330 l 854 1330 q 844 1324 848 1324 q 781 1398 823 1329 q 711 1466 732 1451 q 605 1354 624 1354 q 548 1330 558 1330 q 537 1333 543 1333 q 475 1267 505 1267 q 472 1281 472 1272 l 464 1281 q 456 1270 464 1270 q 437 1276 450 1276 l 437 1278 l 445 1292 q 429 1305 429 1292 q 426 1314 429 1308 q 434 1333 434 1327 q 429 1338 429 1333 q 648 1636 477 1439 q 673 1645 661 1645 z "},"":{"ha":1200,"x_min":-73,"x_max":1699,"o":"m 1289 1295 l 1301 1294 q 1259 1221 1259 1232 q 1261 1219 1259 1219 q 1296 1246 1268 1219 q 1278 1215 1278 1219 q 1278 1213 1278 1213 q 1417 1350 1289 1213 q 1299 1141 1358 1238 l 1421 1296 l 1312 1113 q 1240 861 1312 1076 q 964 0 1181 692 q 754 -259 880 -129 l 897 70 l 803 -60 q 842 101 842 63 q 835 118 842 118 q 791 76 823 118 q 888 227 888 222 q 849 172 855 172 q 848 174 848 172 q 920 360 848 193 q 888 322 888 339 l 875 322 l 875 332 l 868 332 l 861 313 l 848 313 l 848 336 l 836 336 q 829 322 836 332 q 809 327 817 327 l 542 265 q 144 -73 303 28 l 237 31 l 45 -78 q 45 -77 45 -78 q 140 40 45 -68 l -73 -79 l 33 51 q 620 608 97 159 q 1025 1051 620 615 q 1289 1295 1160 1175 m 770 460 l 777 460 q 901 532 901 490 q 960 661 907 532 q 770 460 926 631 m 1263 1643 l 1271 1643 q 1279 1634 1275 1643 l 1276 1629 l 1279 1629 l 1298 1632 q 1339 1594 1316 1607 l 1339 1591 l 1344 1594 q 1434 1507 1353 1594 q 1466 1491 1457 1491 q 1558 1583 1470 1491 q 1624 1613 1596 1596 l 1624 1610 q 1621 1602 1621 1605 l 1629 1607 l 1632 1607 l 1632 1605 l 1629 1599 l 1634 1596 q 1694 1629 1670 1621 q 1699 1618 1694 1623 q 1613 1442 1659 1474 q 1558 1396 1586 1417 l 1561 1390 l 1561 1388 q 1520 1366 1550 1388 q 1510 1379 1510 1371 l 1499 1371 l 1496 1371 l 1485 1379 q 1458 1366 1485 1372 q 1453 1379 1453 1373 l 1444 1374 l 1442 1374 l 1444 1388 q 1295 1477 1362 1424 l 1293 1477 q 1181 1369 1261 1458 q 1162 1382 1179 1369 q 1146 1377 1154 1377 l 1141 1377 l 1133 1382 l 1127 1382 l 1089 1355 l 1086 1355 l 1092 1366 l 1089 1366 q 1084 1360 1089 1360 l 1081 1360 l 1081 1363 q 1103 1426 1086 1390 l 1100 1426 q 1051 1401 1062 1401 l 1062 1415 l 1059 1415 l 1051 1409 l 1048 1409 l 1048 1412 q 1111 1510 1048 1428 q 1206 1613 1118 1537 q 1263 1643 1240 1643 z "},"":{"ha":1200,"x_min":-73,"x_max":1598,"o":"m 1289 1295 l 1301 1294 q 1259 1221 1259 1232 q 1261 1219 1259 1219 q 1296 1246 1268 1219 q 1278 1215 1278 1219 q 1278 1213 1278 1213 q 1417 1350 1289 1213 q 1299 1141 1358 1238 l 1421 1296 l 1312 1113 q 1240 861 1312 1076 q 964 0 1181 692 q 754 -259 880 -129 l 897 70 l 803 -60 q 842 101 842 63 q 835 118 842 118 q 791 76 823 118 q 888 227 888 222 q 849 172 855 172 q 848 174 848 172 q 920 360 848 193 q 888 322 888 339 l 875 322 l 875 332 l 868 332 l 861 313 l 848 313 l 848 336 l 836 336 q 829 322 836 332 q 809 327 817 327 l 542 265 q 144 -73 303 28 l 237 31 l 45 -78 q 45 -77 45 -78 q 140 40 45 -68 l -73 -79 l 33 51 q 620 608 97 159 q 1025 1051 620 615 q 1289 1295 1160 1175 m 770 460 l 777 460 q 901 532 901 490 q 960 661 907 532 q 770 460 926 631 m 1502 1500 l 1506 1493 l 1513 1497 l 1525 1497 q 1535 1478 1525 1478 q 1539 1482 1535 1482 q 1587 1441 1539 1476 l 1587 1434 q 1579 1427 1587 1427 q 1598 1379 1593 1396 l 1587 1357 q 1590 1345 1590 1350 l 1583 1342 l 1579 1350 q 1569 1345 1573 1345 l 1572 1338 l 1572 1335 l 1569 1327 l 1561 1331 l 1557 1331 q 1487 1291 1512 1291 q 1476 1301 1487 1296 l 1469 1298 q 1425 1324 1469 1313 q 1399 1368 1414 1335 q 1396 1371 1396 1368 l 1399 1379 q 1392 1390 1392 1379 q 1491 1500 1392 1463 l 1502 1500 m 1138 1489 q 1149 1478 1138 1484 q 1157 1485 1150 1485 l 1160 1485 q 1168 1467 1168 1485 q 1182 1471 1176 1467 l 1190 1467 q 1215 1471 1204 1471 q 1263 1404 1253 1471 l 1271 1394 l 1271 1390 l 1263 1390 l 1263 1397 q 1230 1368 1232 1375 l 1234 1345 l 1175 1283 l 1175 1276 l 1160 1276 q 1157 1280 1157 1276 l 1124 1265 q 1065 1298 1090 1267 l 1061 1298 l 1065 1305 l 1065 1312 q 1050 1338 1050 1312 q 1054 1350 1054 1345 q 1042 1353 1046 1353 l 1042 1360 l 1050 1371 q 1039 1390 1042 1371 l 1046 1394 l 1042 1401 l 1042 1404 q 1138 1489 1042 1470 z "},"":{"ha":1200,"x_min":-73,"x_max":1603,"o":"m 1289 1295 l 1301 1294 q 1259 1221 1259 1232 q 1261 1219 1259 1219 q 1296 1246 1268 1219 q 1278 1215 1278 1219 q 1278 1213 1278 1213 q 1417 1350 1289 1213 q 1299 1141 1358 1238 l 1421 1296 l 1312 1113 q 1240 861 1312 1076 q 964 0 1181 692 q 754 -259 880 -129 l 897 70 l 803 -60 q 842 101 842 63 q 835 118 842 118 q 791 76 823 118 q 888 227 888 222 q 849 172 855 172 q 848 174 848 172 q 920 360 848 193 q 888 322 888 339 l 875 322 l 875 332 l 868 332 l 861 313 l 848 313 l 848 336 l 836 336 q 829 322 836 332 q 809 327 817 327 l 542 265 q 144 -73 303 28 l 237 31 l 45 -78 q 45 -77 45 -78 q 140 40 45 -68 l -73 -79 l 33 51 q 620 608 97 159 q 1025 1051 620 615 q 1289 1295 1160 1175 m 770 460 l 777 460 q 901 532 901 490 q 960 661 907 532 q 770 460 926 631 m 1383 1705 l 1392 1705 q 1511 1667 1419 1705 q 1603 1534 1603 1594 q 1568 1423 1603 1459 q 1527 1371 1563 1423 q 1367 1298 1447 1298 l 1362 1298 q 1245 1347 1318 1298 q 1191 1485 1191 1404 q 1294 1667 1191 1614 q 1362 1699 1326 1670 q 1383 1705 1372 1705 m 1511 1552 l 1511 1553 q 1421 1617 1511 1573 q 1314 1564 1364 1605 l 1312 1564 q 1272 1496 1276 1564 q 1407 1391 1308 1462 l 1411 1391 q 1511 1552 1489 1391 z "},"":{"ha":1874,"x_min":-148,"x_max":2155,"o":"m 1214 1097 l 1226 1097 q 1185 1031 1185 1042 q 1187 1029 1185 1029 q 1221 1053 1194 1029 q 1203 1025 1203 1029 q 1204 1024 1203 1024 q 1343 1147 1215 1024 q 1224 960 1283 1046 l 1347 1099 l 1238 934 q 1166 707 1238 901 q 890 -68 1107 555 q 680 -301 806 -184 l 823 -5 l 728 -121 q 768 23 768 -11 q 760 39 768 39 q 716 1 748 39 q 813 136 813 132 q 774 87 781 87 q 773 89 773 87 q 846 256 773 106 q 813 222 813 237 l 800 222 l 800 231 l 793 231 l 787 214 l 774 214 l 774 235 l 761 235 q 754 222 761 231 q 734 227 742 227 l 467 171 q 69 -134 229 -42 l 162 -40 l -29 -138 q -30 -138 -30 -138 q 65 -32 -30 -130 l -148 -139 l -42 -22 q 545 479 22 76 q 950 878 545 486 q 1214 1097 1085 989 m 696 347 l 702 347 q 826 411 826 373 q 885 527 833 411 q 696 347 852 500 m 1785 1170 q 2113 1161 2058 1161 l 2149 1157 l 2149 1148 l 2123 1148 l 2123 1143 l 2155 1143 l 2155 1135 q 1560 943 2007 1065 q 1472 899 1472 937 q 1415 781 1472 892 l 1420 781 l 1451 785 l 1482 785 l 1639 742 l 1639 737 l 1634 729 l 1644 729 l 1644 720 q 1410 624 1435 624 q 1311 585 1311 624 l 1128 205 l 1134 205 q 1723 397 1282 273 l 1723 388 q 1696 375 1696 385 l 1723 379 l 1727 379 l 1727 375 q 1478 218 1677 320 q 1076 -5 1263 78 q 701 -201 806 -129 q 660 -227 701 -208 l 654 -227 q 633 -201 633 -220 l 587 -210 q 550 -123 565 -189 q 540 -110 540 -123 q 1149 882 576 -17 q 1185 947 1149 890 q 1165 951 1165 947 q 1149 947 1155 947 q 1050 943 1121 947 q 998 969 999 960 l 998 982 l 1008 982 q 977 1000 1008 987 q 983 1004 977 1004 l 977 1025 q 1004 1065 977 1040 q 1118 1104 1052 1091 q 1758 1170 1150 1104 l 1785 1170 z "},"":{"ha":1297,"x_min":0,"x_max":1384,"o":"m 1202 1140 q 1356 1084 1269 1140 l 1350 1076 l 1350 1072 q 1373 1059 1373 1069 q 1367 1047 1367 1052 q 1384 1035 1375 1047 l 1373 1019 l 1384 1015 q 1179 705 1369 915 q 1139 688 1165 705 l 1128 688 q 1116 701 1116 688 l 1111 701 l 1088 684 q 1042 705 1088 699 l 1037 713 l 1025 709 l 980 709 q 940 728 980 715 l 906 789 q 923 829 917 789 q 968 874 935 829 l 963 874 q 786 777 863 829 q 518 568 755 777 q 296 152 322 314 l 296 140 q 308 132 308 138 q 296 123 296 130 q 330 59 313 123 q 342 55 330 55 q 547 123 368 55 q 821 208 683 152 l 826 208 l 809 193 l 814 193 l 831 200 l 838 200 q 809 156 838 186 l 831 164 l 831 160 l 814 140 l 821 140 l 843 152 l 849 152 q 433 -122 794 18 q 256 -146 361 -146 q 12 27 81 -146 q 0 116 0 61 l 0 148 q 518 874 0 457 q 1037 1116 788 1050 q 1202 1140 1142 1140 z "},"":{"ha":1293,"x_min":0,"x_max":1615,"o":"m 1245 1170 q 1573 1161 1518 1161 l 1609 1157 l 1609 1148 l 1584 1148 l 1584 1143 l 1615 1143 l 1615 1135 q 1021 943 1467 1065 q 932 899 932 937 q 875 781 932 892 l 880 781 l 911 785 l 943 785 l 1099 742 l 1099 737 l 1094 729 l 1104 729 l 1104 720 q 870 624 895 624 q 771 585 771 624 l 589 205 l 594 205 q 1183 397 742 273 l 1183 388 q 1156 375 1156 385 l 1183 379 l 1187 379 l 1187 375 q 938 218 1137 320 q 536 -5 724 78 q 161 -201 266 -129 q 120 -227 161 -208 l 115 -227 q 94 -201 94 -220 l 47 -210 q 10 -123 25 -189 q 0 -110 0 -123 q 610 882 37 -17 q 646 947 610 890 q 625 951 625 947 q 610 947 615 947 q 511 943 581 947 q 458 969 459 960 l 458 982 l 469 982 q 437 1000 469 987 q 443 1004 437 1004 l 437 1025 q 464 1065 437 1040 q 578 1104 512 1091 q 1219 1170 610 1104 l 1245 1170 m 852 1737 q 844 1732 849 1732 q 836 1734 840 1732 q 836 1725 836 1729 q 830 1710 836 1710 q 827 1711 828 1710 q 835 1705 830 1706 q 852 1666 838 1683 q 827 1685 833 1678 q 816 1675 816 1681 q 817 1672 816 1674 l 821 1668 l 832 1656 q 1010 1362 888 1383 l 1017 1352 l 1021 1350 l 1030 1357 l 1034 1353 q 1026 1321 1026 1333 q 1038 1301 1026 1306 q 1061 1286 1055 1286 q 1063 1291 1063 1286 q 1050 1326 1063 1299 q 1102 1195 1086 1215 l 1105 1190 l 1116 1187 q 1120 1191 1120 1188 q 1118 1196 1120 1193 l 1123 1194 q 1124 1191 1124 1192 q 1124 1190 1124 1190 q 1121 1191 1122 1190 q 1138 1178 1128 1181 l 1143 1176 l 1163 1201 q 1168 1189 1167 1196 l 1175 1180 q 1184 1229 1181 1180 q 1204 1289 1204 1276 q 1203 1294 1204 1293 q 1084 1559 1162 1457 l 1077 1569 q 981 1655 1034 1625 q 942 1693 968 1672 l 928 1698 l 922 1697 q 894 1721 908 1716 l 886 1712 q 852 1737 855 1733 z "},"":{"ha":1293,"x_min":0,"x_max":1708,"o":"m 1245 1170 q 1573 1161 1518 1161 l 1609 1157 l 1609 1148 l 1584 1148 l 1584 1143 l 1615 1143 l 1615 1135 q 1021 943 1467 1065 q 932 899 932 937 q 875 781 932 892 l 880 781 l 911 785 l 943 785 l 1099 742 l 1099 737 l 1094 729 l 1104 729 l 1104 720 q 870 624 895 624 q 771 585 771 624 l 589 205 l 594 205 q 1183 397 742 273 l 1183 388 q 1156 375 1156 385 l 1183 379 l 1187 379 l 1187 375 q 938 218 1137 320 q 536 -5 724 78 q 161 -201 266 -129 q 120 -227 161 -208 l 115 -227 q 94 -201 94 -220 l 47 -210 q 10 -123 25 -189 q 0 -110 0 -123 q 610 882 37 -17 q 646 947 610 890 q 625 951 625 947 q 610 947 615 947 q 511 943 581 947 q 458 969 459 960 l 458 982 l 469 982 q 437 1000 469 987 q 443 1004 437 1004 l 437 1025 q 464 1065 437 1040 q 578 1104 512 1091 q 1219 1170 610 1104 l 1245 1170 m 1335 1548 q 1301 1532 1316 1535 q 1252 1501 1267 1503 q 1255 1499 1252 1499 q 1257 1499 1255 1499 q 1232 1467 1233 1478 q 1215 1472 1215 1468 q 1179 1451 1179 1455 l 1178 1448 l 1183 1443 q 1006 1240 1006 1282 q 1029 1225 1006 1225 q 1083 1236 1048 1225 l 1082 1230 l 1088 1232 l 1114 1245 l 1113 1242 q 1040 1189 1040 1196 q 1043 1187 1040 1187 q 1046 1188 1044 1187 q 1058 1185 1052 1185 q 1105 1224 1078 1185 q 1011 1113 1012 1125 l 1010 1110 l 1023 1113 q 1040 1124 1040 1120 l 1047 1126 q 1040 1122 1047 1123 l 1040 1121 q 1046 1118 1040 1118 q 1052 1118 1048 1118 l 1058 1120 l 1131 1162 q 1124 1152 1131 1158 l 1123 1147 q 1208 1207 1130 1148 q 1337 1292 1336 1288 q 1708 1507 1442 1353 l 1503 1513 l 1503 1516 q 1459 1544 1503 1544 l 1452 1544 l 1452 1544 q 1436 1559 1452 1554 l 1417 1556 l 1407 1551 l 1407 1552 q 1396 1559 1407 1559 q 1389 1558 1393 1559 l 1360 1541 q 1335 1548 1335 1545 z "},"":{"ha":1293,"x_min":0,"x_max":1615,"o":"m 1245 1170 q 1573 1161 1518 1161 l 1609 1157 l 1609 1148 l 1584 1148 l 1584 1143 l 1615 1143 l 1615 1135 q 1021 943 1467 1065 q 932 899 932 937 q 875 781 932 892 l 880 781 l 911 785 l 943 785 l 1099 742 l 1099 737 l 1094 729 l 1104 729 l 1104 720 q 870 624 895 624 q 771 585 771 624 l 589 205 l 594 205 q 1183 397 742 273 l 1183 388 q 1156 375 1156 385 l 1183 379 l 1187 379 l 1187 375 q 938 218 1137 320 q 536 -5 724 78 q 161 -201 266 -129 q 120 -227 161 -208 l 115 -227 q 94 -201 94 -220 l 47 -210 q 10 -123 25 -189 q 0 -110 0 -123 q 610 882 37 -17 q 646 947 610 890 q 625 951 625 947 q 610 947 615 947 q 511 943 581 947 q 458 969 459 960 l 458 982 l 469 982 q 437 1000 469 987 q 443 1004 437 1004 l 437 1025 q 464 1065 437 1040 q 578 1104 512 1091 q 1219 1170 610 1104 l 1245 1170 m 806 1645 q 831 1631 831 1645 l 844 1634 l 847 1634 q 858 1620 854 1620 q 1015 1433 863 1620 q 1056 1365 1056 1388 q 1037 1349 1056 1359 q 1018 1330 1037 1330 q 1004 1327 1009 1330 q 994 1330 1000 1330 l 988 1330 q 977 1324 981 1324 q 915 1398 957 1329 q 844 1466 865 1451 q 739 1354 758 1354 q 682 1330 692 1330 q 671 1333 677 1333 q 608 1267 638 1267 q 606 1281 606 1272 l 597 1281 q 589 1270 597 1270 q 570 1276 583 1276 l 570 1278 l 578 1292 q 562 1305 562 1292 q 559 1314 562 1308 q 568 1333 568 1327 q 562 1338 562 1333 q 782 1636 610 1439 q 806 1645 795 1645 z "},"":{"ha":1293,"x_min":0,"x_max":1615,"o":"m 1245 1170 q 1573 1161 1518 1161 l 1609 1157 l 1609 1148 l 1584 1148 l 1584 1143 l 1615 1143 l 1615 1135 q 1021 943 1467 1065 q 932 899 932 937 q 875 781 932 892 l 880 781 l 911 785 l 943 785 l 1099 742 l 1099 737 l 1094 729 l 1104 729 l 1104 720 q 870 624 895 624 q 771 585 771 624 l 589 205 l 594 205 q 1183 397 742 273 l 1183 388 q 1156 375 1156 385 l 1183 379 l 1187 379 l 1187 375 q 938 218 1137 320 q 536 -5 724 78 q 161 -201 266 -129 q 120 -227 161 -208 l 115 -227 q 94 -201 94 -220 l 47 -210 q 10 -123 25 -189 q 0 -110 0 -123 q 610 882 37 -17 q 646 947 610 890 q 625 951 625 947 q 610 947 615 947 q 511 943 581 947 q 458 969 459 960 l 458 982 l 469 982 q 437 1000 469 987 q 443 1004 437 1004 l 437 1025 q 464 1065 437 1040 q 578 1104 512 1091 q 1219 1170 610 1104 l 1245 1170 m 1282 1461 l 1286 1454 l 1293 1458 l 1304 1458 q 1315 1439 1305 1439 q 1318 1443 1315 1443 q 1367 1402 1318 1437 l 1367 1395 q 1359 1388 1367 1388 q 1377 1340 1373 1358 l 1367 1318 q 1370 1307 1370 1311 l 1362 1303 l 1359 1311 q 1348 1307 1352 1307 l 1352 1299 l 1352 1296 l 1348 1289 l 1341 1293 l 1337 1293 q 1267 1252 1291 1252 q 1256 1263 1267 1257 l 1249 1259 q 1204 1285 1249 1274 q 1179 1329 1194 1296 q 1175 1333 1175 1329 l 1179 1340 q 1172 1351 1172 1340 q 1271 1461 1172 1425 l 1282 1461 m 918 1451 q 929 1439 918 1445 q 937 1447 930 1447 l 940 1447 q 947 1428 947 1447 q 962 1432 956 1428 l 969 1428 q 995 1432 984 1432 q 1043 1366 1033 1432 l 1050 1355 l 1050 1351 l 1043 1351 l 1043 1358 q 1010 1329 1011 1336 l 1013 1307 l 955 1244 l 955 1237 l 940 1237 q 937 1241 937 1237 l 903 1226 q 844 1259 870 1228 l 841 1259 l 844 1267 l 844 1274 q 829 1299 829 1274 q 833 1311 833 1307 q 822 1314 826 1314 l 822 1322 l 829 1333 q 819 1351 821 1333 l 826 1355 l 822 1362 l 822 1366 q 918 1451 822 1431 z "},"":{"ha":960,"x_min":0,"x_max":1056,"o":"m 994 1152 q 1016 1137 994 1149 l 1013 1132 q 1052 1108 1021 1122 q 1041 1099 1047 1108 l 1041 1097 q 1056 1088 1056 1095 q 1052 1079 1056 1085 l 1056 1067 q 1034 1023 1047 1023 l 1030 1023 l 1013 1027 q 911 965 1013 1016 q 500 263 654 454 l 500 254 l 508 254 l 508 249 q 619 276 608 276 l 621 276 q 503 233 621 272 l 665 263 q 707 259 665 259 q 752 260 726 259 q 566 193 745 259 l 566 190 l 569 190 q 736 245 727 245 q 726 239 736 243 l 741 224 q 551 161 577 173 q 393 85 551 144 q 332 53 340 60 q 328 56 328 53 q 112 18 204 26 q 58 0 107 10 q 47 9 58 4 l 50 15 q 14 23 50 21 l 14 29 l 22 38 l 14 41 q 3 38 7 38 l 0 44 l 7 53 l 3 64 q 87 129 14 94 q 288 210 87 149 q 357 395 302 210 q 609 909 399 505 q 598 912 602 912 q 511 921 511 914 q 418 912 508 918 q 393 924 393 920 l 393 933 q 375 945 376 939 l 382 954 q 375 959 375 954 l 389 989 q 375 1000 383 989 l 375 1003 q 382 1006 382 1003 l 378 1021 q 566 1088 407 1054 q 667 1097 634 1097 q 721 1094 689 1097 q 966 1149 791 1094 q 994 1152 981 1149 m 446 1737 q 437 1732 443 1732 q 429 1734 434 1732 q 430 1725 430 1729 q 424 1710 430 1710 q 420 1711 422 1710 q 429 1705 424 1706 q 446 1666 432 1683 q 421 1685 427 1678 q 410 1675 410 1681 q 411 1672 410 1674 l 414 1668 l 426 1656 q 604 1362 481 1383 l 611 1352 l 615 1350 l 624 1357 l 627 1353 q 620 1321 620 1333 q 631 1301 620 1306 q 654 1286 648 1286 q 657 1291 657 1286 q 644 1326 657 1299 q 696 1195 680 1215 l 699 1190 l 709 1187 q 713 1191 713 1188 q 711 1196 713 1193 l 717 1194 q 718 1191 718 1192 q 718 1190 718 1190 q 715 1191 716 1190 q 732 1178 722 1181 l 736 1176 l 757 1201 q 762 1189 761 1196 l 769 1180 q 778 1229 774 1180 q 798 1289 798 1276 q 797 1294 798 1293 q 678 1559 756 1457 l 671 1569 q 575 1655 627 1625 q 536 1693 562 1672 l 522 1698 l 516 1697 q 488 1721 502 1716 l 479 1712 q 446 1737 449 1733 z "},"":{"ha":960,"x_min":0,"x_max":1436,"o":"m 994 1152 q 1016 1137 994 1149 l 1013 1132 q 1052 1108 1021 1122 q 1041 1099 1047 1108 l 1041 1097 q 1056 1088 1056 1095 q 1052 1079 1056 1085 l 1056 1067 q 1034 1023 1047 1023 l 1030 1023 l 1013 1027 q 911 965 1013 1016 q 500 263 654 454 l 500 254 l 508 254 l 508 249 q 619 276 608 276 l 621 276 q 503 233 621 272 l 665 263 q 707 259 665 259 q 752 260 726 259 q 566 193 745 259 l 566 190 l 569 190 q 736 245 727 245 q 726 239 736 243 l 741 224 q 551 161 577 173 q 393 85 551 144 q 332 53 340 60 q 328 56 328 53 q 112 18 204 26 q 58 0 107 10 q 47 9 58 4 l 50 15 q 14 23 50 21 l 14 29 l 22 38 l 14 41 q 3 38 7 38 l 0 44 l 7 53 l 3 64 q 87 129 14 94 q 288 210 87 149 q 357 395 302 210 q 609 909 399 505 q 598 912 602 912 q 511 921 511 914 q 418 912 508 918 q 393 924 393 920 l 393 933 q 375 945 376 939 l 382 954 q 375 959 375 954 l 389 989 q 375 1000 383 989 l 375 1003 q 382 1006 382 1003 l 378 1021 q 566 1088 407 1054 q 667 1097 634 1097 q 721 1094 689 1097 q 966 1149 791 1094 q 994 1152 981 1149 m 1064 1548 q 1029 1532 1045 1535 q 981 1501 996 1503 q 983 1499 981 1499 q 986 1499 984 1499 q 961 1467 962 1478 q 944 1472 944 1468 q 907 1451 907 1455 l 907 1448 l 912 1443 q 735 1240 735 1282 q 758 1225 735 1225 q 812 1236 777 1225 l 811 1230 l 817 1232 l 842 1245 l 842 1242 q 769 1189 769 1196 q 772 1187 769 1187 q 775 1188 773 1187 q 787 1185 781 1185 q 834 1224 807 1185 q 740 1113 741 1125 l 739 1110 l 752 1113 q 769 1124 769 1120 l 776 1126 q 769 1122 776 1123 l 769 1121 q 775 1118 769 1118 q 781 1118 777 1118 l 787 1120 l 860 1162 q 852 1152 859 1158 l 852 1147 q 937 1207 859 1148 q 1065 1292 1065 1288 q 1436 1507 1171 1353 l 1232 1513 l 1232 1516 q 1188 1544 1232 1544 l 1181 1544 l 1181 1544 q 1164 1559 1181 1554 l 1146 1556 l 1135 1551 l 1135 1552 q 1125 1559 1135 1559 q 1118 1558 1122 1559 l 1088 1541 q 1064 1548 1064 1545 z "},"":{"ha":960,"x_min":0,"x_max":1056,"o":"m 994 1152 q 1016 1137 994 1149 l 1013 1132 q 1052 1108 1021 1122 q 1041 1099 1047 1108 l 1041 1097 q 1056 1088 1056 1095 q 1052 1079 1056 1085 l 1056 1067 q 1034 1023 1047 1023 l 1030 1023 l 1013 1027 q 911 965 1013 1016 q 500 263 654 454 l 500 254 l 508 254 l 508 249 q 619 276 608 276 l 621 276 q 503 233 621 272 l 665 263 q 707 259 665 259 q 752 260 726 259 q 566 193 745 259 l 566 190 l 569 190 q 736 245 727 245 q 726 239 736 243 l 741 224 q 551 161 577 173 q 393 85 551 144 q 332 53 340 60 q 328 56 328 53 q 112 18 204 26 q 58 0 107 10 q 47 9 58 4 l 50 15 q 14 23 50 21 l 14 29 l 22 38 l 14 41 q 3 38 7 38 l 0 44 l 7 53 l 3 64 q 87 129 14 94 q 288 210 87 149 q 357 395 302 210 q 609 909 399 505 q 598 912 602 912 q 511 921 511 914 q 418 912 508 918 q 393 924 393 920 l 393 933 q 375 945 376 939 l 382 954 q 375 959 375 954 l 389 989 q 375 1000 383 989 l 375 1003 q 382 1006 382 1003 l 378 1021 q 566 1088 407 1054 q 667 1097 634 1097 q 721 1094 689 1097 q 966 1149 791 1094 q 994 1152 981 1149 m 527 1645 q 551 1631 551 1645 l 565 1634 l 568 1634 q 578 1620 575 1620 q 736 1433 584 1620 q 777 1365 777 1388 q 758 1349 777 1359 q 739 1330 758 1330 q 725 1327 730 1330 q 714 1330 720 1330 l 709 1330 q 698 1324 702 1324 q 635 1398 677 1329 q 565 1466 586 1451 q 459 1354 478 1354 q 402 1330 412 1330 q 391 1333 397 1333 q 329 1267 359 1267 q 326 1281 326 1272 l 318 1281 q 310 1270 318 1270 q 291 1276 304 1276 l 291 1278 l 299 1292 q 283 1305 283 1292 q 280 1314 283 1308 q 288 1333 288 1327 q 283 1338 283 1333 q 503 1636 331 1439 q 527 1645 515 1645 z "},"":{"ha":960,"x_min":0,"x_max":1097,"o":"m 994 1152 q 1016 1137 994 1149 l 1013 1132 q 1052 1108 1021 1122 q 1041 1099 1047 1108 l 1041 1097 q 1056 1088 1056 1095 q 1052 1079 1056 1085 l 1056 1067 q 1034 1023 1047 1023 l 1030 1023 l 1013 1027 q 911 965 1013 1016 q 500 263 654 454 l 500 254 l 508 254 l 508 249 q 619 276 608 276 l 621 276 q 503 233 621 272 l 665 263 q 707 259 665 259 q 752 260 726 259 q 566 193 745 259 l 566 190 l 569 190 q 736 245 727 245 q 726 239 736 243 l 741 224 q 551 161 577 173 q 393 85 551 144 q 332 53 340 60 q 328 56 328 53 q 112 18 204 26 q 58 0 107 10 q 47 9 58 4 l 50 15 q 14 23 50 21 l 14 29 l 22 38 l 14 41 q 3 38 7 38 l 0 44 l 7 53 l 3 64 q 87 129 14 94 q 288 210 87 149 q 357 395 302 210 q 609 909 399 505 q 598 912 602 912 q 511 921 511 914 q 418 912 508 918 q 393 924 393 920 l 393 933 q 375 945 376 939 l 382 954 q 375 959 375 954 l 389 989 q 375 1000 383 989 l 375 1003 q 382 1006 382 1003 l 378 1021 q 566 1088 407 1054 q 667 1097 634 1097 q 721 1094 689 1097 q 966 1149 791 1094 q 994 1152 981 1149 m 1001 1477 l 1005 1470 l 1012 1474 l 1023 1474 q 1034 1455 1024 1455 q 1038 1459 1034 1459 q 1086 1418 1038 1453 l 1086 1411 q 1078 1404 1086 1404 q 1097 1356 1092 1373 l 1086 1334 q 1089 1322 1089 1326 l 1082 1319 l 1078 1326 q 1067 1322 1072 1322 l 1071 1315 l 1071 1312 l 1067 1304 l 1060 1308 l 1056 1308 q 986 1267 1010 1267 q 975 1278 986 1273 l 968 1275 q 924 1301 968 1290 q 898 1345 913 1312 q 895 1348 895 1345 l 898 1356 q 891 1367 891 1356 q 990 1477 891 1440 l 1001 1477 m 637 1466 q 648 1455 637 1461 q 656 1462 649 1462 l 659 1462 q 667 1444 667 1462 q 681 1448 675 1444 l 688 1444 q 714 1448 703 1448 q 762 1381 752 1448 l 770 1371 l 770 1367 l 762 1367 l 762 1374 q 729 1345 730 1352 l 732 1322 l 674 1260 l 674 1253 l 659 1253 q 656 1257 656 1253 l 623 1242 q 564 1275 589 1244 l 560 1275 l 564 1282 l 564 1289 q 549 1315 549 1289 q 553 1326 553 1322 q 541 1330 545 1330 l 541 1337 l 549 1348 q 538 1367 541 1348 l 545 1371 l 541 1378 l 541 1381 q 637 1466 541 1447 z "},"":{"ha":1383,"x_min":-340,"x_max":1521,"o":"m 1439 1171 q 1510 1143 1495 1171 l 1510 1133 l 1499 1119 l 1499 1114 q 1521 1109 1521 1114 q 1489 1048 1521 1061 l 1494 1038 l 1494 1034 q 1139 754 1494 1027 q 185 -9 248 -9 l 153 -14 q 136 -5 136 -9 q 65 -81 102 -5 l 38 -100 l 33 -100 l 22 -95 q 16 -100 22 -100 q 0 -43 0 -60 l 0 -33 q 158 564 0 219 q 321 924 240 764 l 142 924 q 82 962 113 924 l 93 967 l 87 977 q 251 1048 87 1012 q 823 1105 486 1086 l 823 1100 q 840 1105 834 1105 q 1080 1124 886 1105 q 1112 1119 1108 1119 l 1439 1171 m 627 943 q 610 939 616 939 l 610 943 q 529 901 529 943 q 305 389 398 630 q 741 773 532 627 l 943 953 l 943 958 q 627 943 745 943 m 387 812 l 433 812 q 644 805 475 812 l 644 801 l 614 801 l 614 798 l 640 798 l 640 793 q 450 760 602 784 l 450 758 l 471 758 q 589 755 504 758 q 602 751 589 751 l 602 748 q 475 723 481 723 l 475 720 l 517 722 l 522 722 l 522 718 q 484 713 490 713 l 484 712 l 505 712 l 526 713 l 526 710 q 36 632 242 641 q -281 617 -227 617 l -298 621 q -310 618 -306 618 l -327 634 l -323 637 q -340 655 -340 649 q -293 674 -304 674 l -289 674 l -298 680 q -272 703 -283 703 q -281 713 -281 709 l -268 713 l -268 718 l -277 723 q -234 742 -271 731 q -69 765 -234 750 l 277 805 q 387 812 360 812 z "},"":{"ha":991,"x_min":0,"x_max":1111,"o":"m 471 1308 l 479 1308 q 471 1251 479 1251 q 479 1222 475 1246 q 475 1176 475 1181 l 597 302 q 642 460 606 302 l 808 916 l 812 916 l 812 912 q 804 873 812 906 l 804 866 l 808 866 q 821 912 808 873 l 829 912 l 829 902 q 825 899 829 899 q 829 876 829 895 l 833 876 l 853 942 l 861 942 l 861 935 l 865 935 q 1032 1268 871 958 l 1036 1268 l 1036 1265 q 1024 1232 1036 1258 l 1024 1228 l 1028 1228 q 1040 1258 1028 1232 l 1048 1258 l 1048 1242 l 935 793 q 804 131 857 349 l 715 -132 q 731 -222 731 -203 l 723 -222 q 719 -201 723 -219 l 715 -201 l 715 -205 l 719 -224 l 719 -231 q 678 -185 712 -231 q 658 -195 678 -195 l 662 -201 l 662 -208 l 654 -208 l 654 -201 l 650 -201 l 650 -205 l 674 -281 l 666 -281 l 658 -261 l 654 -261 l 654 -264 q 658 -277 658 -270 l 650 -277 q 455 164 569 -172 q 329 668 422 280 q 288 553 318 668 q 146 134 288 496 q 110 118 130 118 q 94 134 110 125 l 94 174 l 90 174 q 41 121 75 121 q 37 118 41 118 q 8 184 8 129 q 0 194 5 184 q 280 994 0 307 q 304 1038 280 1038 q 374 1153 324 1059 q 366 1258 366 1186 l 366 1272 q 398 1295 391 1295 q 439 1281 420 1295 l 447 1281 l 455 1304 l 463 1304 q 451 1274 463 1298 l 451 1272 l 455 1272 q 471 1308 471 1301 m 857 955 l 865 955 l 865 948 l 857 948 l 857 955 m 587 1710 l 596 1710 q 606 1702 601 1710 l 603 1697 l 606 1697 l 629 1699 q 677 1662 650 1675 l 677 1659 l 684 1662 q 791 1575 694 1662 q 831 1558 820 1558 q 941 1651 836 1558 q 1019 1681 987 1664 l 1019 1678 q 1016 1670 1016 1672 l 1026 1675 l 1029 1675 l 1029 1672 l 1026 1667 l 1032 1664 q 1104 1697 1076 1689 q 1111 1686 1104 1691 q 1006 1510 1063 1542 q 941 1463 974 1485 l 945 1458 l 945 1455 q 896 1434 932 1455 q 883 1447 883 1439 l 869 1439 l 867 1439 l 853 1447 q 821 1434 853 1440 q 814 1447 814 1440 l 804 1442 l 802 1442 l 804 1455 q 625 1545 705 1492 l 623 1545 q 489 1436 585 1526 q 466 1450 486 1436 q 446 1444 456 1444 l 440 1444 l 430 1450 l 424 1450 l 378 1423 l 375 1423 l 381 1434 l 378 1434 q 372 1428 378 1428 l 368 1428 l 368 1431 q 395 1493 374 1457 l 391 1493 q 332 1469 346 1469 l 346 1482 l 342 1482 l 332 1477 l 330 1477 l 330 1480 q 404 1577 330 1495 q 518 1681 412 1605 q 587 1710 559 1710 z "},"":{"ha":1414,"x_min":0,"x_max":1414,"o":"m 888 1160 l 911 1160 q 1088 1137 986 1160 l 1088 1140 q 1083 1150 1083 1147 l 1088 1150 q 1097 1140 1097 1150 l 1101 1140 l 1101 1143 q 1097 1156 1097 1149 l 1101 1156 q 1142 1127 1106 1156 q 1169 1131 1166 1131 q 1310 1010 1247 1112 q 1414 651 1414 814 q 1360 330 1414 576 l 1351 330 l 1351 357 l 1346 357 l 1341 324 l 1333 324 l 1324 389 l 1319 389 q 1065 123 1282 296 q 721 -75 910 -1 q 530 -117 586 -117 q 277 -75 472 -117 q 41 45 149 -75 q 0 240 0 136 q 222 758 0 516 q 480 991 296 867 q 671 1085 662 1085 q 829 1153 671 1114 q 888 1160 850 1160 m 363 564 q 385 496 385 526 q 317 301 317 336 q 385 146 317 228 q 508 111 472 111 q 789 175 736 136 q 1002 330 1002 296 q 1165 806 1165 562 q 1137 868 1165 860 q 934 975 978 975 l 880 943 q 576 791 722 886 q 490 696 490 727 q 363 564 456 696 m 852 1843 q 844 1838 849 1838 q 836 1840 840 1838 q 836 1830 836 1834 q 830 1816 836 1816 q 827 1817 828 1816 q 835 1811 830 1812 q 852 1771 838 1789 q 827 1790 833 1784 q 816 1781 816 1786 q 817 1777 816 1780 l 821 1773 l 832 1762 q 1010 1468 888 1489 l 1017 1458 l 1021 1456 l 1030 1463 l 1034 1459 q 1026 1427 1026 1439 q 1038 1407 1026 1412 q 1061 1392 1055 1392 q 1063 1396 1063 1392 q 1050 1432 1063 1405 q 1102 1301 1086 1321 l 1105 1296 l 1116 1293 q 1120 1297 1120 1294 q 1118 1301 1120 1299 l 1123 1299 q 1124 1297 1124 1297 q 1124 1296 1124 1296 q 1121 1297 1122 1296 q 1138 1284 1128 1287 l 1143 1282 l 1163 1307 q 1168 1295 1167 1301 l 1175 1286 q 1184 1335 1181 1286 q 1204 1395 1204 1382 q 1203 1400 1204 1398 q 1084 1665 1162 1563 l 1077 1674 q 981 1761 1034 1731 q 942 1799 968 1777 l 928 1804 l 922 1803 q 894 1827 908 1822 l 886 1817 q 852 1843 855 1839 z "},"":{"ha":1414,"x_min":0,"x_max":1737,"o":"m 888 1160 l 911 1160 q 1088 1137 986 1160 l 1088 1140 q 1083 1150 1083 1147 l 1088 1150 q 1097 1140 1097 1150 l 1101 1140 l 1101 1143 q 1097 1156 1097 1149 l 1101 1156 q 1142 1127 1106 1156 q 1169 1131 1166 1131 q 1310 1010 1247 1112 q 1414 651 1414 814 q 1360 330 1414 576 l 1351 330 l 1351 357 l 1346 357 l 1341 324 l 1333 324 l 1324 389 l 1319 389 q 1065 123 1282 296 q 721 -75 910 -1 q 530 -117 586 -117 q 277 -75 472 -117 q 41 45 149 -75 q 0 240 0 136 q 222 758 0 516 q 480 991 296 867 q 671 1085 662 1085 q 829 1153 671 1114 q 888 1160 850 1160 m 363 564 q 385 496 385 526 q 317 301 317 336 q 385 146 317 228 q 508 111 472 111 q 789 175 736 136 q 1002 330 1002 296 q 1165 806 1165 562 q 1137 868 1165 860 q 934 975 978 975 l 880 943 q 576 791 722 886 q 490 696 490 727 q 363 564 456 696 m 1364 1645 q 1330 1630 1345 1633 q 1281 1598 1296 1601 q 1284 1596 1281 1596 q 1286 1597 1284 1596 q 1261 1565 1262 1575 q 1244 1569 1244 1565 q 1208 1548 1208 1552 l 1207 1546 l 1213 1541 q 1036 1337 1036 1379 q 1058 1323 1036 1323 q 1112 1334 1077 1323 l 1112 1328 l 1118 1329 l 1143 1343 l 1142 1340 q 1069 1286 1069 1294 q 1072 1285 1069 1285 q 1076 1286 1074 1285 q 1087 1282 1081 1282 q 1135 1322 1107 1282 q 1040 1211 1041 1223 l 1040 1208 l 1053 1211 q 1069 1222 1069 1218 l 1076 1223 q 1069 1219 1076 1221 l 1069 1219 q 1076 1215 1069 1215 q 1081 1216 1078 1215 l 1087 1217 l 1160 1259 q 1153 1250 1160 1256 l 1152 1244 q 1238 1305 1159 1246 q 1366 1390 1365 1385 q 1737 1605 1471 1451 l 1532 1611 l 1532 1614 q 1489 1641 1532 1641 l 1481 1641 l 1481 1642 q 1465 1657 1481 1651 l 1447 1653 l 1436 1649 l 1436 1649 q 1426 1657 1436 1657 q 1418 1656 1422 1657 l 1389 1639 q 1364 1645 1364 1643 z "},"":{"ha":1414,"x_min":0,"x_max":1414,"o":"m 888 1160 l 911 1160 q 1088 1137 986 1160 l 1088 1140 q 1083 1150 1083 1147 l 1088 1150 q 1097 1140 1097 1150 l 1101 1140 l 1101 1143 q 1097 1156 1097 1149 l 1101 1156 q 1142 1127 1106 1156 q 1169 1131 1166 1131 q 1310 1010 1247 1112 q 1414 651 1414 814 q 1360 330 1414 576 l 1351 330 l 1351 357 l 1346 357 l 1341 324 l 1333 324 l 1324 389 l 1319 389 q 1065 123 1282 296 q 721 -75 910 -1 q 530 -117 586 -117 q 277 -75 472 -117 q 41 45 149 -75 q 0 240 0 136 q 222 758 0 516 q 480 991 296 867 q 671 1085 662 1085 q 829 1153 671 1114 q 888 1160 850 1160 m 363 564 q 385 496 385 526 q 317 301 317 336 q 385 146 317 228 q 508 111 472 111 q 789 175 736 136 q 1002 330 1002 296 q 1165 806 1165 562 q 1137 868 1165 860 q 934 975 978 975 l 880 943 q 576 791 722 886 q 490 696 490 727 q 363 564 456 696 m 706 1645 q 730 1631 730 1645 l 744 1634 l 747 1634 q 758 1620 754 1620 q 915 1433 763 1620 q 956 1365 956 1388 q 937 1349 956 1359 q 918 1330 937 1330 q 904 1327 909 1330 q 893 1330 899 1330 l 888 1330 q 877 1324 881 1324 q 814 1398 857 1329 q 744 1466 765 1451 q 638 1354 657 1354 q 581 1330 591 1330 q 570 1333 576 1333 q 508 1267 538 1267 q 505 1281 505 1272 l 497 1281 q 489 1270 497 1270 q 470 1276 483 1276 l 470 1278 l 478 1292 q 462 1305 462 1292 q 459 1314 462 1308 q 467 1333 467 1327 q 462 1338 462 1333 q 682 1636 510 1439 q 706 1645 694 1645 z "},"":{"ha":1414,"x_min":0,"x_max":1414,"o":"m 888 1160 l 911 1160 q 1088 1137 986 1160 l 1088 1140 q 1083 1150 1083 1147 l 1088 1150 q 1097 1140 1097 1150 l 1101 1140 l 1101 1143 q 1097 1156 1097 1149 l 1101 1156 q 1142 1127 1106 1156 q 1169 1131 1166 1131 q 1310 1010 1247 1112 q 1414 651 1414 814 q 1360 330 1414 576 l 1351 330 l 1351 357 l 1346 357 l 1341 324 l 1333 324 l 1324 389 l 1319 389 q 1065 123 1282 296 q 721 -75 910 -1 q 530 -117 586 -117 q 277 -75 472 -117 q 41 45 149 -75 q 0 240 0 136 q 222 758 0 516 q 480 991 296 867 q 671 1085 662 1085 q 829 1153 671 1114 q 888 1160 850 1160 m 363 564 q 385 496 385 526 q 317 301 317 336 q 385 146 317 228 q 508 111 472 111 q 789 175 736 136 q 1002 330 1002 296 q 1165 806 1165 562 q 1137 868 1165 860 q 934 975 978 975 l 880 943 q 576 791 722 886 q 490 696 490 727 q 363 564 456 696 m 596 1537 l 604 1537 q 612 1529 608 1537 l 610 1523 l 612 1523 l 631 1526 q 672 1488 649 1501 l 672 1485 l 677 1488 q 767 1401 686 1488 q 800 1385 791 1385 q 892 1477 804 1385 q 957 1507 930 1491 l 957 1504 q 954 1496 954 1499 l 962 1501 l 965 1501 l 965 1499 l 962 1493 l 968 1491 q 1027 1523 1004 1515 q 1033 1512 1027 1517 q 946 1336 993 1369 q 892 1290 919 1312 l 895 1284 l 895 1282 q 854 1260 884 1282 q 843 1274 843 1265 l 832 1265 l 829 1265 l 819 1274 q 791 1260 819 1266 q 786 1274 786 1267 l 778 1268 l 775 1268 l 778 1282 q 629 1371 695 1318 l 626 1371 q 515 1263 595 1352 q 496 1276 512 1263 q 479 1271 487 1271 l 474 1271 l 466 1276 l 460 1276 l 422 1249 l 420 1249 l 425 1260 l 422 1260 q 417 1255 422 1255 l 414 1255 l 414 1257 q 436 1320 419 1284 l 433 1320 q 385 1295 395 1295 l 395 1309 l 393 1309 l 385 1303 l 382 1303 l 382 1306 q 444 1404 382 1322 q 539 1507 451 1432 q 596 1537 573 1537 z "},"":{"ha":1414,"x_min":0,"x_max":1414,"o":"m 888 1160 l 911 1160 q 1088 1137 986 1160 l 1088 1140 q 1083 1150 1083 1147 l 1088 1150 q 1097 1140 1097 1150 l 1101 1140 l 1101 1143 q 1097 1156 1097 1149 l 1101 1156 q 1142 1127 1106 1156 q 1169 1131 1166 1131 q 1310 1010 1247 1112 q 1414 651 1414 814 q 1360 330 1414 576 l 1351 330 l 1351 357 l 1346 357 l 1341 324 l 1333 324 l 1324 389 l 1319 389 q 1065 123 1282 296 q 721 -75 910 -1 q 530 -117 586 -117 q 277 -75 472 -117 q 41 45 149 -75 q 0 240 0 136 q 222 758 0 516 q 480 991 296 867 q 671 1085 662 1085 q 829 1153 671 1114 q 888 1160 850 1160 m 363 564 q 385 496 385 526 q 317 301 317 336 q 385 146 317 228 q 508 111 472 111 q 789 175 736 136 q 1002 330 1002 296 q 1165 806 1165 562 q 1137 868 1165 860 q 934 975 978 975 l 880 943 q 576 791 722 886 q 490 696 490 727 q 363 564 456 696 m 1173 1477 l 1177 1470 l 1184 1474 l 1196 1474 q 1206 1455 1196 1455 q 1210 1459 1206 1459 q 1258 1418 1210 1453 l 1258 1411 q 1251 1404 1258 1404 q 1269 1356 1264 1373 l 1258 1334 q 1261 1322 1261 1326 l 1254 1319 l 1251 1326 q 1240 1322 1244 1322 l 1243 1315 l 1243 1312 l 1240 1304 l 1232 1308 l 1228 1308 q 1158 1267 1183 1267 q 1147 1278 1158 1273 l 1140 1275 q 1096 1301 1140 1290 q 1070 1345 1085 1312 q 1067 1348 1067 1345 l 1070 1356 q 1063 1367 1063 1356 q 1162 1477 1063 1440 l 1173 1477 m 732 1466 q 744 1455 732 1461 q 751 1462 745 1462 l 755 1462 q 762 1444 762 1462 q 777 1448 770 1444 l 784 1444 q 810 1448 799 1448 q 858 1381 848 1448 l 865 1371 l 865 1367 l 858 1367 l 858 1374 q 825 1345 826 1352 l 828 1322 l 770 1260 l 770 1253 l 755 1253 q 751 1257 751 1253 l 718 1242 q 659 1275 685 1244 l 656 1275 l 659 1282 l 659 1289 q 644 1315 644 1289 q 648 1326 648 1322 q 637 1330 641 1330 l 637 1337 l 644 1348 q 633 1367 636 1348 l 641 1371 l 637 1378 l 637 1381 q 732 1466 637 1447 z "},"":{"ha":905,"x_min":8,"x_max":787,"o":"m 498 890 l 502 890 l 502 887 q 498 879 498 882 q 505 887 505 879 l 512 887 q 526 789 519 858 q 502 678 519 726 q 675 708 621 708 q 713 705 682 708 q 787 708 751 708 l 787 703 l 770 700 l 770 697 l 787 697 l 787 694 q 621 602 758 667 l 614 602 l 614 600 l 634 600 l 634 597 l 631 591 l 634 591 q 688 597 640 591 l 688 591 q 665 586 667 586 l 665 583 l 668 583 l 688 586 l 692 586 q 505 486 654 551 q 471 437 471 486 q 427 255 444 344 q 379 220 400 220 l 372 222 q 369 220 369 222 q 318 255 328 220 l 315 255 l 304 228 l 297 228 q 304 258 301 252 l 304 260 l 301 260 q 294 239 294 243 l 290 239 q 283 252 283 239 l 280 252 l 270 247 l 267 247 l 267 252 l 256 247 q 233 361 245 247 q 236 423 236 404 q 239 426 239 423 q 236 429 236 426 q 90 401 115 410 q 35 429 49 401 l 25 442 l 28 448 l 25 453 l 25 461 l 15 467 l 18 472 l 18 475 l 8 486 q 28 491 28 488 l 25 505 q 39 515 31 505 l 39 545 l 32 543 l 25 543 q 15 551 20 543 l 18 564 q 12 570 12 564 q 69 618 12 597 q 273 651 134 632 q 290 751 290 734 q 283 760 283 751 l 280 760 l 273 757 l 270 762 q 355 854 339 845 q 460 882 405 882 q 477 871 461 878 l 498 890 m 318 266 l 318 260 l 321 260 l 321 266 l 318 266 z "},"":{"ha":1414,"x_min":0,"x_max":1414,"o":"m 888 1160 l 911 1160 q 1088 1137 986 1160 l 1088 1140 q 1083 1150 1083 1147 l 1088 1150 q 1097 1140 1097 1150 l 1101 1140 l 1101 1143 q 1097 1156 1097 1149 l 1101 1156 q 1142 1127 1106 1156 q 1169 1131 1166 1131 q 1310 1010 1247 1112 q 1414 651 1414 814 q 1360 330 1414 576 l 1351 330 l 1351 357 l 1346 357 l 1341 324 l 1333 324 l 1324 389 l 1319 389 q 1065 123 1282 296 q 721 -75 910 -1 q 530 -117 586 -117 q 277 -75 472 -117 q 41 45 149 -75 q 0 240 0 136 q 222 758 0 516 q 480 991 296 867 q 671 1085 662 1085 q 829 1153 671 1114 q 888 1160 850 1160 m 363 564 q 385 496 385 526 q 317 301 317 336 q 385 146 317 228 q 508 111 472 111 q 789 175 736 136 q 1002 330 1002 296 q 1165 806 1165 562 q 1137 868 1165 860 q 934 975 978 975 l 880 943 q 576 791 722 886 q 490 696 490 727 q 363 564 456 696 m 1375 1419 q 1377 1413 1377 1417 q 1374 1401 1377 1408 l 1376 1402 q 1384 1410 1380 1410 q 1390 1405 1390 1408 q 1389 1403 1390 1404 q 1385 1400 1387 1403 q 1388 1395 1388 1400 q 1381 1369 1388 1388 q 1383 1367 1383 1369 q 1382 1365 1383 1367 l 1375 1352 q 1371 1348 1373 1349 l 1371 1343 q 1307 1246 1326 1272 q 1306 1244 1306 1245 q 1308 1244 1306 1244 q 503 94 850 541 q 441 16 502 94 l 437 16 l 473 67 l 475 70 l 473 70 q 181 -335 370 -76 l 177 -336 q 206 -290 182 -330 l 208 -288 l 205 -288 q 179 -328 182 -321 l 175 -328 q 186 -298 178 -321 l 258 -169 l 261 -158 q 279 -132 267 -151 l 280 -130 l 278 -130 q 256 -156 260 -155 l 254 -156 l 260 -145 l 258 -146 q 227 -186 229 -181 l 222 -186 l 250 -144 q 227 -175 245 -144 l 222 -176 q 229 -155 229 -159 q 229 -154 229 -154 q 654 519 506 307 q 977 1002 824 787 q 1090 1180 1062 1124 l 1093 1180 l 1093 1185 q 1111 1196 1095 1190 l 1115 1204 l 1118 1199 l 1121 1200 l 1177 1261 q 1188 1268 1180 1262 l 1196 1269 q 1199 1267 1199 1269 q 1198 1264 1199 1265 l 1211 1268 l 1213 1268 q 1221 1254 1216 1254 l 1221 1254 l 1227 1257 q 1232 1256 1229 1256 l 1235 1256 q 1323 1381 1261 1284 q 1337 1394 1335 1394 l 1348 1395 q 1375 1419 1352 1401 z "},"":{"ha":1076,"x_min":0,"x_max":1126,"o":"m 711 1339 l 712 1333 l 690 1289 l 691 1286 l 695 1286 q 717 1327 717 1324 l 724 1329 l 724 1327 q 722 1319 724 1324 q 727 1311 722 1316 l 727 1310 q 722 1289 727 1304 l 727 1275 l 710 1228 l 739 1274 q 740 1257 740 1266 q 718 1140 740 1213 l 722 1135 l 703 1073 l 703 1070 l 707 1070 l 727 1124 l 734 1124 q 730 1103 734 1104 l 734 1098 l 734 1093 q 637 637 734 1053 q 496 212 496 224 l 496 209 l 500 209 q 766 290 575 236 q 766 308 766 298 q 883 935 766 425 q 920 1106 889 948 l 927 1110 l 935 1111 l 951 1104 l 955 1105 q 964 1121 956 1120 l 976 1122 l 1008 1114 l 1019 1116 l 1019 1118 q 1026 1126 1019 1124 l 1029 1126 q 1050 1117 1046 1117 l 1050 1117 q 1060 1133 1051 1132 l 1075 1135 q 1080 1126 1076 1126 l 1080 1126 q 1091 1131 1087 1131 q 1124 1090 1119 1109 l 1126 1070 l 1126 1065 q 1044 703 1126 1017 q 942 187 1029 639 q 885 -4 908 119 l 877 -5 l 876 3 l 872 3 l 872 3 q 861 -31 872 -2 l 853 -32 l 855 -17 l 848 -20 l 844 -21 l 838 -4 q 827 140 834 29 l 827 146 l 823 146 l 796 53 l 788 52 l 789 79 l 789 82 l 785 81 q 781 58 781 66 l 781 54 l 772 53 l 772 56 q 760 90 770 73 l 762 109 l 760 125 q 414 -87 572 -6 q 223 -242 252 -234 l 204 -245 q 132 -230 134 -243 l 131 -215 q 124 -216 127 -216 q 115 -211 115 -216 q 117 -203 117 -206 l 117 -202 l 117 -202 q 96 -190 111 -202 q 103 -184 103 -189 l 103 -183 l 102 -177 l 98 -172 q 116 -131 113 -170 q 150 -59 150 -73 l 150 -58 l 145 -58 q 125 -50 132 -58 l 132 -39 l 132 -37 q 126 -32 131 -32 l 123 -32 q 127 -7 124 -8 l 123 -2 l 123 1 q 189 155 123 30 q 242 382 230 231 q 421 993 287 610 q 428 1000 422 999 l 435 1001 q 453 988 452 996 l 456 988 l 456 989 q 509 1040 456 1004 l 711 1339 m 568 71 l 568 64 l 571 64 l 571 71 l 568 71 m 0 -145 l 6 -145 l 6 -151 l 0 -151 l 0 -145 m 3 -157 l 9 -157 q 3 -163 9 -163 l 3 -157 m 648 1843 q 640 1838 646 1838 q 632 1840 637 1838 q 633 1830 633 1834 q 627 1816 633 1816 q 623 1817 625 1816 q 631 1811 627 1812 q 648 1771 635 1789 q 624 1790 629 1784 q 612 1781 612 1786 q 614 1777 612 1780 l 617 1773 l 629 1762 q 806 1468 684 1489 l 814 1458 l 818 1456 l 827 1463 l 830 1459 q 823 1427 823 1439 q 834 1407 823 1412 q 857 1392 851 1392 q 860 1396 860 1392 q 846 1432 860 1405 q 899 1301 883 1321 l 902 1296 l 912 1293 q 916 1297 916 1294 q 914 1301 916 1299 l 920 1299 q 921 1297 921 1297 q 920 1296 921 1296 q 918 1297 919 1296 q 935 1284 925 1287 l 939 1282 l 960 1307 q 965 1295 964 1301 l 972 1286 q 981 1335 977 1286 q 1000 1395 1000 1382 q 1000 1400 1000 1398 q 881 1665 959 1563 l 873 1674 q 778 1761 830 1731 q 739 1799 765 1777 l 724 1804 l 719 1803 q 690 1827 705 1822 l 682 1817 q 648 1843 652 1839 z "},"":{"ha":1076,"x_min":0,"x_max":1126,"o":"m 711 1339 l 712 1333 l 690 1289 l 691 1286 l 695 1286 q 717 1327 717 1324 l 724 1329 l 724 1327 q 722 1319 724 1324 q 727 1311 722 1316 l 727 1310 q 722 1289 727 1304 l 727 1275 l 710 1228 l 739 1274 q 740 1257 740 1266 q 718 1140 740 1213 l 722 1135 l 703 1073 l 703 1070 l 707 1070 l 727 1124 l 734 1124 q 730 1103 734 1104 l 734 1098 l 734 1093 q 637 637 734 1053 q 496 212 496 224 l 496 209 l 500 209 q 766 290 575 236 q 766 308 766 298 q 883 935 766 425 q 920 1106 889 948 l 927 1110 l 935 1111 l 951 1104 l 955 1105 q 964 1121 956 1120 l 976 1122 l 1008 1114 l 1019 1116 l 1019 1118 q 1026 1126 1019 1124 l 1029 1126 q 1050 1117 1046 1117 l 1050 1117 q 1060 1133 1051 1132 l 1075 1135 q 1080 1126 1076 1126 l 1080 1126 q 1091 1131 1087 1131 q 1124 1090 1119 1109 l 1126 1070 l 1126 1065 q 1044 703 1126 1017 q 942 187 1029 639 q 885 -4 908 119 l 877 -5 l 876 3 l 872 3 l 872 3 q 861 -31 872 -2 l 853 -32 l 855 -17 l 848 -20 l 844 -21 l 838 -4 q 827 140 834 29 l 827 146 l 823 146 l 796 53 l 788 52 l 789 79 l 789 82 l 785 81 q 781 58 781 66 l 781 54 l 772 53 l 772 56 q 760 90 770 73 l 762 109 l 760 125 q 414 -87 572 -6 q 223 -242 252 -234 l 204 -245 q 132 -230 134 -243 l 131 -215 q 124 -216 127 -216 q 115 -211 115 -216 q 117 -203 117 -206 l 117 -202 l 117 -202 q 96 -190 111 -202 q 103 -184 103 -189 l 103 -183 l 102 -177 l 98 -172 q 116 -131 113 -170 q 150 -59 150 -73 l 150 -58 l 145 -58 q 125 -50 132 -58 l 132 -39 l 132 -37 q 126 -32 131 -32 l 123 -32 q 127 -7 124 -8 l 123 -2 l 123 1 q 189 155 123 30 q 242 382 230 231 q 421 993 287 610 q 428 1000 422 999 l 435 1001 q 453 988 452 996 l 456 988 l 456 989 q 509 1040 456 1004 l 711 1339 m 568 71 l 568 64 l 571 64 l 571 71 l 568 71 m 0 -145 l 6 -145 l 6 -151 l 0 -151 l 0 -145 m 3 -157 l 9 -157 q 3 -163 9 -163 l 3 -157 m 658 1645 q 623 1630 639 1633 q 574 1598 589 1601 q 577 1596 574 1596 q 580 1597 578 1596 q 555 1565 555 1575 q 538 1569 538 1565 q 501 1548 501 1552 l 500 1546 l 506 1541 q 329 1337 329 1379 q 351 1323 329 1323 q 406 1334 370 1323 l 405 1328 l 411 1329 l 436 1343 l 435 1340 q 363 1286 363 1294 q 366 1285 363 1285 q 369 1286 367 1285 q 380 1282 374 1282 q 428 1322 401 1282 q 334 1211 334 1223 l 333 1208 l 346 1211 q 363 1222 363 1218 l 370 1223 q 363 1219 370 1221 l 363 1219 q 369 1215 363 1215 q 374 1216 371 1215 l 380 1217 l 454 1259 q 446 1250 453 1256 l 446 1244 q 531 1305 452 1246 q 659 1390 659 1385 q 1030 1605 764 1451 l 825 1611 l 825 1614 q 782 1641 825 1641 l 774 1641 l 774 1642 q 758 1657 774 1651 l 740 1653 l 729 1649 l 729 1649 q 719 1657 729 1657 q 711 1656 715 1657 l 682 1639 q 658 1645 658 1643 z "},"":{"ha":1076,"x_min":0,"x_max":1126,"o":"m 711 1339 l 712 1333 l 690 1289 l 691 1286 l 695 1286 q 717 1327 717 1324 l 724 1329 l 724 1327 q 722 1319 724 1324 q 727 1311 722 1316 l 727 1310 q 722 1289 727 1304 l 727 1275 l 710 1228 l 739 1274 q 740 1257 740 1266 q 718 1140 740 1213 l 722 1135 l 703 1073 l 703 1070 l 707 1070 l 727 1124 l 734 1124 q 730 1103 734 1104 l 734 1098 l 734 1093 q 637 637 734 1053 q 496 212 496 224 l 496 209 l 500 209 q 766 290 575 236 q 766 308 766 298 q 883 935 766 425 q 920 1106 889 948 l 927 1110 l 935 1111 l 951 1104 l 955 1105 q 964 1121 956 1120 l 976 1122 l 1008 1114 l 1019 1116 l 1019 1118 q 1026 1126 1019 1124 l 1029 1126 q 1050 1117 1046 1117 l 1050 1117 q 1060 1133 1051 1132 l 1075 1135 q 1080 1126 1076 1126 l 1080 1126 q 1091 1131 1087 1131 q 1124 1090 1119 1109 l 1126 1070 l 1126 1065 q 1044 703 1126 1017 q 942 187 1029 639 q 885 -4 908 119 l 877 -5 l 876 3 l 872 3 l 872 3 q 861 -31 872 -2 l 853 -32 l 855 -17 l 848 -20 l 844 -21 l 838 -4 q 827 140 834 29 l 827 146 l 823 146 l 796 53 l 788 52 l 789 79 l 789 82 l 785 81 q 781 58 781 66 l 781 54 l 772 53 l 772 56 q 760 90 770 73 l 762 109 l 760 125 q 414 -87 572 -6 q 223 -242 252 -234 l 204 -245 q 132 -230 134 -243 l 131 -215 q 124 -216 127 -216 q 115 -211 115 -216 q 117 -203 117 -206 l 117 -202 l 117 -202 q 96 -190 111 -202 q 103 -184 103 -189 l 103 -183 l 102 -177 l 98 -172 q 116 -131 113 -170 q 150 -59 150 -73 l 150 -58 l 145 -58 q 125 -50 132 -58 l 132 -39 l 132 -37 q 126 -32 131 -32 l 123 -32 q 127 -7 124 -8 l 123 -2 l 123 1 q 189 155 123 30 q 242 382 230 231 q 421 993 287 610 q 428 1000 422 999 l 435 1001 q 453 988 452 996 l 456 988 l 456 989 q 509 1040 456 1004 l 711 1339 m 568 71 l 568 64 l 571 64 l 571 71 l 568 71 m 0 -145 l 6 -145 l 6 -151 l 0 -151 l 0 -145 m 3 -157 l 9 -157 q 3 -163 9 -163 l 3 -157 m 562 1645 q 586 1631 586 1645 l 600 1634 l 602 1634 q 613 1620 610 1620 q 770 1433 618 1620 q 811 1365 811 1388 q 792 1349 811 1359 q 773 1330 792 1330 q 760 1327 764 1330 q 749 1330 755 1330 l 743 1330 q 732 1324 736 1324 q 670 1398 712 1329 q 600 1466 621 1451 q 494 1354 513 1354 q 437 1330 447 1330 q 426 1333 432 1333 q 363 1267 393 1267 q 361 1281 361 1272 l 353 1281 q 345 1270 353 1270 q 326 1276 338 1276 l 326 1278 l 334 1292 q 317 1305 317 1292 q 315 1314 317 1308 q 323 1333 323 1327 q 317 1338 317 1333 q 537 1636 366 1439 q 562 1645 550 1645 z "},"":{"ha":1076,"x_min":0,"x_max":1126,"o":"m 711 1339 l 712 1333 l 690 1289 l 691 1286 l 695 1286 q 717 1327 717 1324 l 724 1329 l 724 1327 q 722 1319 724 1324 q 727 1311 722 1316 l 727 1310 q 722 1289 727 1304 l 727 1275 l 710 1228 l 739 1274 q 740 1257 740 1266 q 718 1140 740 1213 l 722 1135 l 703 1073 l 703 1070 l 707 1070 l 727 1124 l 734 1124 q 730 1103 734 1104 l 734 1098 l 734 1093 q 637 637 734 1053 q 496 212 496 224 l 496 209 l 500 209 q 766 290 575 236 q 766 308 766 298 q 883 935 766 425 q 920 1106 889 948 l 927 1110 l 935 1111 l 951 1104 l 955 1105 q 964 1121 956 1120 l 976 1122 l 1008 1114 l 1019 1116 l 1019 1118 q 1026 1126 1019 1124 l 1029 1126 q 1050 1117 1046 1117 l 1050 1117 q 1060 1133 1051 1132 l 1075 1135 q 1080 1126 1076 1126 l 1080 1126 q 1091 1131 1087 1131 q 1124 1090 1119 1109 l 1126 1070 l 1126 1065 q 1044 703 1126 1017 q 942 187 1029 639 q 885 -4 908 119 l 877 -5 l 876 3 l 872 3 l 872 3 q 861 -31 872 -2 l 853 -32 l 855 -17 l 848 -20 l 844 -21 l 838 -4 q 827 140 834 29 l 827 146 l 823 146 l 796 53 l 788 52 l 789 79 l 789 82 l 785 81 q 781 58 781 66 l 781 54 l 772 53 l 772 56 q 760 90 770 73 l 762 109 l 760 125 q 414 -87 572 -6 q 223 -242 252 -234 l 204 -245 q 132 -230 134 -243 l 131 -215 q 124 -216 127 -216 q 115 -211 115 -216 q 117 -203 117 -206 l 117 -202 l 117 -202 q 96 -190 111 -202 q 103 -184 103 -189 l 103 -183 l 102 -177 l 98 -172 q 116 -131 113 -170 q 150 -59 150 -73 l 150 -58 l 145 -58 q 125 -50 132 -58 l 132 -39 l 132 -37 q 126 -32 131 -32 l 123 -32 q 127 -7 124 -8 l 123 -2 l 123 1 q 189 155 123 30 q 242 382 230 231 q 421 993 287 610 q 428 1000 422 999 l 435 1001 q 453 988 452 996 l 456 988 l 456 989 q 509 1040 456 1004 l 711 1339 m 568 71 l 568 64 l 571 64 l 571 71 l 568 71 m 0 -145 l 6 -145 l 6 -151 l 0 -151 l 0 -145 m 3 -157 l 9 -157 q 3 -163 9 -163 l 3 -157 m 747 1477 l 751 1470 l 758 1474 l 769 1474 q 780 1455 770 1455 q 783 1459 780 1459 q 831 1418 783 1453 l 831 1411 q 824 1404 831 1404 q 842 1356 838 1373 l 831 1334 q 835 1322 835 1326 l 827 1319 l 824 1326 q 813 1322 817 1322 l 817 1315 l 817 1312 l 813 1304 l 806 1308 l 802 1308 q 732 1267 756 1267 q 721 1278 732 1273 l 713 1275 q 669 1301 713 1290 q 644 1345 659 1312 q 640 1348 640 1345 l 644 1356 q 637 1367 637 1356 q 736 1477 637 1440 l 747 1477 m 382 1466 q 394 1455 382 1461 q 401 1462 395 1462 l 405 1462 q 412 1444 412 1462 q 427 1448 420 1444 l 434 1444 q 460 1448 449 1448 q 508 1381 498 1448 l 515 1371 l 515 1367 l 508 1367 l 508 1374 q 475 1345 476 1352 l 478 1322 l 420 1260 l 420 1253 l 405 1253 q 401 1257 401 1253 l 368 1242 q 309 1275 335 1244 l 306 1275 l 309 1282 l 309 1289 q 294 1315 294 1289 q 298 1326 298 1322 q 287 1330 291 1330 l 287 1337 l 294 1348 q 283 1367 286 1348 l 291 1371 l 287 1378 l 287 1381 q 382 1466 287 1447 z "},"":{"ha":1140,"x_min":-20,"x_max":1235,"o":"m 1064 1236 l 1080 1226 l 1084 1226 l 1084 1232 l 1088 1232 q 1105 1229 1098 1232 q 1122 1232 1112 1232 l 1122 1229 q 1141 1210 1122 1213 q 1140 1203 1140 1206 q 1142 1187 1140 1196 q 1133 1177 1137 1177 l 1143 1161 q 1112 1093 1143 1156 l 1206 1164 l 1211 1164 l 1211 1161 l 1187 1135 l 1187 1132 l 1218 1155 l 1222 1155 l 1217 1139 l 1216 1135 q 1235 1119 1224 1121 q 1022 840 1147 961 q 784 519 899 690 q 532 -555 736 377 l 523 -384 l 462 -551 l 426 -442 l 494 -219 l 359 -585 l 366 -553 l 366 -552 l 366 -552 q 301 -572 360 -552 l 357 -503 l 392 -316 q 401 -271 401 -280 q 400 -267 401 -267 q 366 -335 395 -267 l 431 -230 l 411 -206 q 418 -177 412 -195 l 418 -174 l 414 -174 l 386 -284 l 341 -384 q 348 -324 348 -351 q 342 -281 348 -299 l 414 98 q 542 523 424 193 q 244 746 366 637 q -20 1012 2 982 l -20 1015 q -7 1025 -20 1020 q -16 1053 -16 1039 l -16 1057 q 18 1099 7 1069 q 39 1106 39 1099 l 36 1112 l 50 1119 q 56 1112 56 1119 l 56 1109 l 73 1109 q 83 1119 75 1119 q 82 1112 82 1115 q 89 1099 82 1099 l 93 1099 q 106 1109 94 1109 l 127 1106 l 128 1116 l 141 1116 l 183 1119 q 202 1106 183 1114 l 211 1109 l 220 1109 q 446 918 242 1109 q 621 682 552 814 l 634 682 q 787 905 753 827 q 842 947 804 930 q 1033 1223 1009 1194 l 1064 1236 m 703 1645 q 668 1630 684 1633 q 619 1598 634 1601 q 622 1596 619 1596 q 625 1597 623 1596 q 600 1565 600 1575 q 583 1569 583 1565 q 546 1548 546 1552 l 545 1546 l 551 1541 q 374 1337 374 1379 q 396 1323 374 1323 q 450 1334 415 1323 l 450 1328 l 456 1329 l 481 1343 l 480 1340 q 408 1286 408 1294 q 410 1285 408 1285 q 414 1286 412 1285 q 425 1282 419 1282 q 473 1322 446 1282 q 378 1211 379 1223 l 378 1208 l 391 1211 q 408 1222 408 1218 l 414 1223 q 408 1219 414 1221 l 408 1219 q 414 1215 408 1215 q 419 1216 416 1215 l 425 1217 l 498 1259 q 491 1250 498 1256 l 490 1244 q 576 1305 497 1246 q 704 1390 703 1385 q 1075 1605 809 1451 l 870 1611 l 870 1614 q 827 1641 870 1641 l 819 1641 l 819 1642 q 803 1657 819 1651 l 785 1653 l 774 1649 l 774 1649 q 764 1657 774 1657 q 756 1656 760 1657 l 727 1639 q 703 1645 703 1643 z "},"":{"ha":1167,"x_min":-47,"x_max":1266,"o":"m 603 1243 q 833 1235 767 1235 l 882 1235 l 1141 1211 l 1185 1211 q 1228 1203 1185 1206 l 1228 1200 l 1218 1200 l 1218 1192 l 1228 1192 l 1228 1187 l 1223 1179 q 1257 1175 1242 1175 l 1257 1168 l 1242 1168 q 1261 1160 1242 1160 l 1261 1152 q 1223 1120 1243 1152 l 1223 1116 q 1238 1120 1228 1116 l 1266 1116 q 1218 1072 1266 1097 q 612 579 916 789 q 348 416 395 416 q 343 420 348 420 q 184 14 315 368 l 179 14 l 179 18 q 189 62 179 28 l 189 66 l 184 66 l 170 14 l 160 14 q 165 34 160 27 l 160 50 l 170 110 l 170 113 l 165 113 q 73 -145 93 -76 l 64 -145 l 64 -125 l 59 -125 q 54 -149 54 -146 l 45 -149 l 45 -145 q 50 -141 45 -141 q 40 -113 40 -121 l 45 -73 l 45 -62 l 40 -62 q -18 -244 40 -69 l -33 -244 q -18 -201 -18 -228 l -18 -193 l -23 -193 q -33 -233 -23 -203 l -42 -233 q -47 -205 -42 -220 q 136 706 25 319 l 213 993 q 208 1013 208 999 l 194 1013 q 121 1000 148 1000 q 83 1028 100 1000 q 88 1032 83 1032 l 83 1040 l 83 1044 q 194 1124 83 1104 q 179 1164 179 1141 q 367 1231 199 1231 q 603 1243 570 1243 m 444 758 q 857 1024 697 944 l 857 1032 l 511 1004 l 444 758 m 718 1853 l 721 1853 l 734 1847 l 752 1849 l 751 1847 l 759 1849 l 766 1849 q 791 1807 791 1824 q 791 1801 791 1804 q 467 1074 587 1407 l 368 804 q 227 541 306 633 l 220 541 l 225 555 l 221 555 l 212 541 l 205 541 q 197 562 197 549 q 197 570 197 566 l 202 580 l 199 580 l 191 561 l 184 561 l 187 588 l 180 588 q 159 538 163 551 l 152 538 l 157 563 l 153 563 l 144 536 l 137 536 l 138 541 l 135 541 l 104 456 l 97 456 q 104 496 99 461 l 100 496 l 95 481 q 89 454 90 456 l 82 454 q 73 531 73 499 q 79 574 73 557 q 125 863 86 756 l 124 871 l 128 871 l 126 876 l 139 912 q 140 916 140 914 q 138 920 140 918 l 144 924 q 174 1054 165 1030 l 184 1085 q 185 1089 185 1087 q 184 1093 185 1091 q 191 1101 189 1097 l 205 1142 q 207 1148 207 1145 q 205 1152 207 1151 l 214 1165 l 220 1183 q 222 1187 222 1186 q 220 1190 222 1190 l 226 1198 q 503 1737 309 1427 l 511 1740 l 518 1740 l 527 1735 l 534 1735 q 587 1813 552 1754 q 642 1836 638 1836 l 652 1836 l 659 1834 l 675 1839 q 684 1836 680 1836 q 718 1853 696 1847 z "},"":{"ha":873,"x_min":0,"x_max":928,"o":"m 928 1000 l 928 993 l 895 983 l 895 979 l 905 979 q 928 986 918 986 l 928 979 q 780 871 904 956 l 736 832 q 739 829 739 832 q 713 818 720 818 l 713 814 l 716 814 q 743 818 734 818 q 534 643 703 772 q 442 578 485 613 q 736 489 502 578 q 817 431 817 460 q 824 421 821 431 q 821 410 821 414 q 827 403 827 409 l 827 399 q 817 389 827 397 q 824 368 824 377 l 810 360 l 814 353 l 814 349 q 618 178 743 262 q 331 13 498 94 q 176 -76 300 -14 q 10 -165 26 -165 q 44 -140 10 -158 l 44 -137 l 41 -137 q 3 -159 16 -149 l 0 -159 l 0 -155 q 125 -26 0 -140 l 121 -26 q 44 -55 56 -55 q 81 -30 45 -46 l 81 -26 l 78 -26 q 41 -41 51 -41 l 37 -41 q 199 110 65 -3 q 442 332 248 163 l 500 396 l 500 399 l 496 399 q 317 428 353 428 q 227 425 270 425 q 111 460 130 425 q 81 481 104 460 q 75 475 81 475 q 68 489 68 484 l 64 489 l 64 486 q 68 471 68 479 l 64 471 q 31 528 31 492 q 260 804 31 677 q 635 968 543 968 l 645 968 q 723 961 665 968 q 928 1000 819 975 z "},"":{"ha":906,"x_min":6,"x_max":928,"o":"m 841 1050 q 850 1044 842 1044 q 865 1047 860 1047 q 913 945 913 1016 l 913 937 q 852 433 856 525 q 919 445 911 445 q 890 430 919 441 l 895 430 q 928 436 914 436 q 842 387 917 424 q 833 262 833 293 l 828 262 q 832 260 828 260 q 770 -193 770 -176 l 760 -193 l 760 -188 q 757 -142 760 -172 l 752 -142 l 751 -193 l 741 -193 l 741 -184 q 726 -239 728 -184 l 716 -239 l 713 -202 l 708 -202 l 707 -236 l 697 -236 q 654 -132 675 -203 l 649 -132 l 648 -142 l 640 -142 l 641 -93 l 636 -93 l 630 -130 l 630 -132 l 621 -132 q 602 5 602 -87 q 603 41 602 22 l 593 41 l 593 32 l 584 32 l 589 53 l 591 81 l 586 81 q 575 38 585 74 l 566 38 l 566 46 q 557 81 566 60 q 574 269 572 245 q 301 168 387 175 q 149 14 215 57 l 93 16 l 74 16 l 64 14 q 60 26 60 19 l 51 22 q 6 82 6 61 l 6 92 q 422 667 9 194 q 667 937 449 704 q 755 1010 670 1010 l 760 1004 l 755 998 l 773 998 q 808 1041 774 1025 q 822 1038 817 1038 q 841 1050 822 1042 m 652 907 q 632 873 652 902 l 632 871 l 637 871 q 656 895 637 878 l 657 907 l 652 907 m 628 609 q 449 348 627 590 q 591 385 520 372 l 591 387 l 632 606 l 633 609 l 628 609 m 245 1640 q 237 1634 242 1634 q 229 1636 233 1634 q 229 1627 229 1631 q 223 1613 229 1613 q 220 1613 221 1613 q 228 1607 223 1609 q 245 1568 231 1586 q 220 1587 226 1580 q 209 1577 209 1583 q 210 1574 209 1576 l 214 1570 l 225 1558 q 403 1264 281 1285 l 410 1255 l 414 1253 l 423 1259 l 427 1255 q 419 1223 419 1236 q 431 1204 419 1208 q 454 1189 448 1189 q 456 1193 456 1189 q 443 1229 456 1202 q 495 1097 479 1118 l 498 1093 l 509 1089 q 513 1093 513 1090 q 511 1098 513 1095 l 516 1096 q 517 1093 517 1094 q 517 1093 517 1093 q 514 1093 515 1093 q 531 1080 522 1084 l 536 1078 l 556 1103 q 562 1091 560 1098 l 568 1082 q 577 1131 574 1082 q 597 1192 597 1179 q 596 1196 597 1195 q 477 1461 555 1360 l 470 1471 q 374 1557 427 1527 q 335 1595 361 1574 l 321 1600 l 315 1600 q 287 1624 301 1618 l 279 1614 q 245 1640 248 1635 z "},"":{"ha":906,"x_min":6,"x_max":935,"o":"m 841 1050 q 850 1044 842 1044 q 865 1047 860 1047 q 913 945 913 1016 l 913 937 q 852 433 856 525 q 919 445 911 445 q 890 430 919 441 l 895 430 q 928 436 914 436 q 842 387 917 424 q 833 262 833 293 l 828 262 q 832 260 828 260 q 770 -193 770 -176 l 760 -193 l 760 -188 q 757 -142 760 -172 l 752 -142 l 751 -193 l 741 -193 l 741 -184 q 726 -239 728 -184 l 716 -239 l 713 -202 l 708 -202 l 707 -236 l 697 -236 q 654 -132 675 -203 l 649 -132 l 648 -142 l 640 -142 l 641 -93 l 636 -93 l 630 -130 l 630 -132 l 621 -132 q 602 5 602 -87 q 603 41 602 22 l 593 41 l 593 32 l 584 32 l 589 53 l 591 81 l 586 81 q 575 38 585 74 l 566 38 l 566 46 q 557 81 566 60 q 574 269 572 245 q 301 168 387 175 q 149 14 215 57 l 93 16 l 74 16 l 64 14 q 60 26 60 19 l 51 22 q 6 82 6 61 l 6 92 q 422 667 9 194 q 667 937 449 704 q 755 1010 670 1010 l 760 1004 l 755 998 l 773 998 q 808 1041 774 1025 q 822 1038 817 1038 q 841 1050 822 1042 m 652 907 q 632 873 652 902 l 632 871 l 637 871 q 656 895 637 878 l 657 907 l 652 907 m 628 609 q 449 348 627 590 q 591 385 520 372 l 591 387 l 632 606 l 633 609 l 628 609 m 562 1548 q 528 1532 543 1535 q 479 1501 494 1503 q 481 1499 479 1499 q 484 1499 482 1499 q 459 1467 460 1478 q 442 1472 442 1468 q 406 1451 406 1455 l 405 1448 l 410 1443 q 233 1240 233 1282 q 256 1225 233 1225 q 310 1236 275 1225 l 309 1230 l 315 1232 l 340 1245 l 340 1242 q 267 1189 267 1196 q 270 1187 267 1187 q 273 1188 271 1187 q 285 1185 279 1185 q 332 1224 305 1185 q 238 1113 239 1125 l 237 1110 l 250 1113 q 267 1124 267 1120 l 274 1126 q 267 1122 274 1123 l 267 1121 q 273 1118 267 1118 q 279 1118 275 1118 l 285 1120 l 358 1162 q 351 1152 357 1158 l 350 1147 q 435 1207 357 1148 q 564 1292 563 1288 q 935 1507 669 1353 l 730 1513 l 730 1516 q 686 1544 730 1544 l 679 1544 l 679 1544 q 663 1559 679 1554 l 644 1556 l 633 1551 l 633 1552 q 623 1559 633 1559 q 616 1558 620 1559 l 587 1541 q 562 1548 562 1545 z "},"":{"ha":906,"x_min":6,"x_max":928,"o":"m 841 1050 q 850 1044 842 1044 q 865 1047 860 1047 q 913 945 913 1016 l 913 937 q 852 433 856 525 q 919 445 911 445 q 890 430 919 441 l 895 430 q 928 436 914 436 q 842 387 917 424 q 833 262 833 293 l 828 262 q 832 260 828 260 q 770 -193 770 -176 l 760 -193 l 760 -188 q 757 -142 760 -172 l 752 -142 l 751 -193 l 741 -193 l 741 -184 q 726 -239 728 -184 l 716 -239 l 713 -202 l 708 -202 l 707 -236 l 697 -236 q 654 -132 675 -203 l 649 -132 l 648 -142 l 640 -142 l 641 -93 l 636 -93 l 630 -130 l 630 -132 l 621 -132 q 602 5 602 -87 q 603 41 602 22 l 593 41 l 593 32 l 584 32 l 589 53 l 591 81 l 586 81 q 575 38 585 74 l 566 38 l 566 46 q 557 81 566 60 q 574 269 572 245 q 301 168 387 175 q 149 14 215 57 l 93 16 l 74 16 l 64 14 q 60 26 60 19 l 51 22 q 6 82 6 61 l 6 92 q 422 667 9 194 q 667 937 449 704 q 755 1010 670 1010 l 760 1004 l 755 998 l 773 998 q 808 1041 774 1025 q 822 1038 817 1038 q 841 1050 822 1042 m 652 907 q 632 873 652 902 l 632 871 l 637 871 q 656 895 637 878 l 657 907 l 652 907 m 628 609 q 449 348 627 590 q 591 385 520 372 l 591 387 l 632 606 l 633 609 l 628 609 m 466 1547 q 490 1533 490 1547 l 504 1536 l 507 1536 q 517 1522 514 1522 q 675 1335 523 1522 q 715 1267 715 1290 q 696 1251 715 1261 q 677 1232 696 1232 q 664 1230 669 1232 q 653 1232 659 1232 l 648 1232 q 637 1227 641 1227 q 574 1300 616 1231 q 504 1368 525 1353 q 398 1257 417 1257 q 341 1232 351 1232 q 330 1235 336 1235 q 268 1170 298 1170 q 265 1183 265 1175 l 257 1183 q 249 1173 257 1173 q 230 1178 243 1178 l 230 1181 l 238 1194 q 222 1208 222 1194 q 219 1216 222 1211 q 227 1235 227 1230 q 222 1240 222 1235 q 441 1539 270 1341 q 466 1547 454 1547 z "}}}
